<svg width="178" height="178" viewBox="0 0 178 178" fill="none" xmlns="http://www.w3.org/2000/svg">
<g filter="url(#filter0_d_20_44)">
<rect x="24" y="20" width="130" height="130" rx="20" fill="#F22751"/>
</g>
<path fill-rule="evenodd" clip-rule="evenodd" d="M107.793 91.5795C113.452 91.5795 118.056 96.1602 118.056 101.79C118.056 107.419 113.452 112 107.793 112C102.131 112 97.5237 107.419 97.5237 101.79C97.5237 96.1602 102.131 91.5795 107.793 91.5795ZM107.793 96.5263C104.858 96.5263 102.47 98.8876 102.47 101.79C102.47 104.695 104.858 107.053 107.793 107.053C110.725 107.053 113.109 104.695 113.109 101.79C113.109 98.8876 110.725 96.5263 107.793 96.5263ZM83.6938 99.4442C85.0591 99.4442 86.1672 100.552 86.1672 101.918C86.1672 103.283 85.0591 104.391 83.6938 104.391H62.914C61.5487 104.391 60.4406 103.283 60.4406 101.918C60.4406 100.552 61.5487 99.4442 62.914 99.4442H83.6938ZM70.6102 59.564C76.2726 59.564 80.8764 64.148 80.8764 69.7774C80.8764 75.4068 76.2726 79.9843 70.6102 79.9843C64.9511 79.9843 60.344 75.4068 60.344 69.7774C60.344 64.148 64.9511 59.564 70.6102 59.564ZM70.6102 64.5107C67.6784 64.5107 65.2908 66.872 65.2908 69.7774C65.2908 72.6795 67.6784 75.0375 70.6102 75.0375C73.5453 75.0375 75.9296 72.6795 75.9296 69.7774C75.9296 66.872 73.5453 64.5107 70.6102 64.5107ZM113.74 67.4801C115.105 67.4801 116.213 68.5882 116.213 69.9535C116.213 71.3188 115.105 72.4269 113.74 72.4269H92.9634C91.5981 72.4269 90.49 71.3188 90.49 69.9535C90.49 68.5882 91.5981 67.4801 92.9634 67.4801H113.74Z" fill="white"/>
<defs>
<filter id="filter0_d_20_44" x="0" y="0" width="178" height="178" filterUnits="userSpaceOnUse" color-interpolation-filters="sRGB">
<feFlood flood-opacity="0" result="BackgroundImageFix"/>
<feColorMatrix in="SourceAlpha" type="matrix" values="0 0 0 0 0 0 0 0 0 0 0 0 0 0 0 0 0 0 127 0" result="hardAlpha"/>
<feOffset dy="4"/>
<feGaussianBlur stdDeviation="12"/>
<feColorMatrix type="matrix" values="0 0 0 0 0.94902 0 0 0 0 0.152941 0 0 0 0 0.317647 0 0 0 0.55 0"/>
<feBlend mode="normal" in2="BackgroundImageFix" result="effect1_dropShadow_20_44"/>
<feBlend mode="normal" in="SourceGraphic" in2="effect1_dropShadow_20_44" result="shape"/>
</filter>
</defs>
</svg>
