<svg width="178" height="178" viewBox="0 0 178 178" fill="none" xmlns="http://www.w3.org/2000/svg">
<g filter="url(#filter0_d_20_24)">
<rect x="24" y="20" width="130" height="130" rx="20" fill="#F22751"/>
</g>
<path fill-rule="evenodd" clip-rule="evenodd" d="M87.5039 57.4815C88.6681 57.4815 89.613 58.4264 89.613 59.5906C89.613 60.7548 88.6681 61.6997 87.5039 61.6997H76.9895C69.723 61.6997 65.0296 66.6771 65.0296 74.3794V97.7592C65.0296 105.462 69.723 110.439 76.9895 110.439H101.803C109.07 110.439 113.766 105.462 113.766 97.7592V86.4321C113.766 85.2679 114.711 84.323 115.875 84.323C117.039 84.323 117.984 85.2679 117.984 86.4321V97.7592C117.984 107.866 111.48 114.657 101.803 114.657H76.9895C67.313 114.657 60.8115 107.866 60.8115 97.7592V74.3794C60.8115 64.2727 67.313 57.4815 76.9895 57.4815H87.5039ZM111.996 59.9522L115.418 63.3745C117.086 65.0393 118.003 67.2524 118 69.609C118 71.9655 117.083 74.1758 115.418 75.8378L94.3024 96.9538C92.753 98.5033 90.6889 99.3582 88.4954 99.3582H77.9613C77.3933 99.3582 76.8477 99.1276 76.4512 98.7198C76.0547 98.3149 75.8382 97.7665 75.8522 97.1957L76.1166 86.5687C76.17 84.454 77.0221 82.4659 78.5181 80.967H78.5209L99.5357 59.9522C102.972 56.5215 108.56 56.5215 111.996 59.9522ZM97.8046 67.6461L81.5018 83.9507C80.7734 84.679 80.36 85.6464 80.3347 86.6728L80.1238 95.14H88.4954C89.564 95.14 90.5651 94.7266 91.3216 93.9702L107.723 77.5644L97.8046 67.6461ZM102.517 62.9359L100.785 64.6625L110.704 74.5836L112.438 72.8541C113.304 71.988 113.782 70.835 113.782 69.609C113.782 68.3801 113.304 67.2243 112.438 66.3582L109.015 62.9359C107.224 61.1502 104.311 61.1502 102.517 62.9359Z" fill="white"/>
<defs>
<filter id="filter0_d_20_24" x="0" y="0" width="178" height="178" filterUnits="userSpaceOnUse" color-interpolation-filters="sRGB">
<feFlood flood-opacity="0" result="BackgroundImageFix"/>
<feColorMatrix in="SourceAlpha" type="matrix" values="0 0 0 0 0 0 0 0 0 0 0 0 0 0 0 0 0 0 127 0" result="hardAlpha"/>
<feOffset dy="4"/>
<feGaussianBlur stdDeviation="12"/>
<feColorMatrix type="matrix" values="0 0 0 0 0.94902 0 0 0 0 0.152941 0 0 0 0 0.317647 0 0 0 0.55 0"/>
<feBlend mode="normal" in2="BackgroundImageFix" result="effect1_dropShadow_20_24"/>
<feBlend mode="normal" in="SourceGraphic" in2="effect1_dropShadow_20_24" result="shape"/>
</filter>
</defs>
</svg>
