<svg width="178" height="178" viewBox="0 0 178 178" fill="none" xmlns="http://www.w3.org/2000/svg">
<g filter="url(#filter0_d_20_4)">
<rect x="24" y="20" width="130" height="130" rx="20" fill="#F22751"/>
</g>
<path d="M103.792 67.3617C104.913 67.3617 105.84 68.1948 105.986 69.2757L106.007 69.5762L106.006 104.417L114.262 96.1278C115.125 95.261 116.527 95.2577 117.394 96.1205C118.182 96.9049 118.256 98.135 117.615 99.0034L117.401 99.2523L105.361 111.348C105.289 111.419 105.215 111.484 105.137 111.544L105.361 111.348C105.253 111.457 105.135 111.553 105.012 111.634C104.969 111.661 104.924 111.689 104.878 111.715C104.836 111.74 104.792 111.763 104.748 111.784C104.705 111.803 104.661 111.822 104.617 111.84C104.56 111.864 104.502 111.885 104.443 111.903C104.409 111.912 104.373 111.922 104.338 111.931C104.274 111.949 104.21 111.962 104.145 111.972C104.115 111.976 104.083 111.98 104.052 111.984C103.979 111.994 103.907 111.999 103.835 112C103.82 111.999 103.806 111.999 103.792 111.999L103.749 112C103.677 111.999 103.605 111.994 103.533 111.985L103.792 111.999C103.671 111.999 103.553 111.989 103.438 111.971C103.374 111.962 103.31 111.949 103.246 111.932C103.213 111.922 103.179 111.913 103.146 111.903C103.082 111.885 103.019 111.863 102.957 111.838C102.923 111.822 102.89 111.808 102.858 111.793C102.807 111.771 102.756 111.745 102.705 111.716C102.66 111.689 102.615 111.661 102.572 111.632C102.538 111.612 102.504 111.588 102.471 111.564L102.447 111.544C102.369 111.484 102.295 111.419 102.226 111.35L102.222 111.348L90.1821 99.2523C89.3193 98.3855 89.3226 96.9833 90.1894 96.1205C90.9773 95.3362 92.2078 95.2676 93.0732 95.9128L93.3211 96.1278L101.577 104.423L101.578 69.5762C101.578 68.3532 102.569 67.3617 103.792 67.3617ZM74.4771 59.3496L74.5203 59.3484C74.5924 59.3498 74.6645 59.3547 74.7363 59.3631L74.4771 59.3496C74.5978 59.3496 74.7162 59.3593 74.8316 59.3778C74.8947 59.3865 74.958 59.3995 75.0208 59.4153C75.0578 59.4262 75.0954 59.4367 75.1326 59.4482C75.1908 59.4646 75.2471 59.4846 75.3026 59.5068C75.3428 59.5247 75.3834 59.5425 75.4234 59.5614C75.471 59.582 75.5178 59.6062 75.5639 59.6322C75.6034 59.6565 75.6425 59.6801 75.6807 59.705C75.7201 59.7284 75.7595 59.7558 75.7982 59.7846L76.0469 60.0002L88.0871 72.0961C88.9499 72.9629 88.9466 74.365 88.0798 75.2278C87.2918 76.0122 86.0614 76.0808 85.196 75.4356L84.9481 75.2206L76.6896 66.9219L76.6916 101.772C76.6916 102.995 75.7001 103.987 74.4771 103.987C73.356 103.987 72.4295 103.154 72.2829 102.073L72.2627 101.772L72.2607 66.9248L64.0068 75.2206C63.2225 76.0086 61.9924 76.0829 61.124 75.4416L60.8751 75.2278C60.0871 74.4434 60.0128 73.2134 60.654 72.345L60.8679 72.0961L72.908 60.0002L73.0384 59.8806C73.069 59.8544 73.1003 59.8291 73.1324 59.8045L72.908 60.0002C73.0166 59.8911 73.1338 59.7956 73.2573 59.7139C73.3005 59.687 73.3453 59.6596 73.3911 59.6338C73.4336 59.6081 73.4769 59.5856 73.5207 59.5647C73.5639 59.5455 73.6078 59.5262 73.6524 59.5083C73.709 59.4841 73.7671 59.4636 73.8258 59.4456C73.8615 59.436 73.8981 59.4258 73.935 59.4165C73.9945 59.4001 74.0547 59.3876 74.1151 59.3776C74.1515 59.3731 74.1871 59.3681 74.223 59.364C74.2914 59.3546 74.3615 59.3499 74.4317 59.3484C74.4472 59.3498 74.4621 59.3496 74.4771 59.3496Z" fill="white"/>
<defs>
<filter id="filter0_d_20_4" x="0" y="0" width="178" height="178" filterUnits="userSpaceOnUse" color-interpolation-filters="sRGB">
<feFlood flood-opacity="0" result="BackgroundImageFix"/>
<feColorMatrix in="SourceAlpha" type="matrix" values="0 0 0 0 0 0 0 0 0 0 0 0 0 0 0 0 0 0 127 0" result="hardAlpha"/>
<feOffset dy="4"/>
<feGaussianBlur stdDeviation="12"/>
<feColorMatrix type="matrix" values="0 0 0 0 0.94902 0 0 0 0 0.152941 0 0 0 0 0.317647 0 0 0 0.55 0"/>
<feBlend mode="normal" in2="BackgroundImageFix" result="effect1_dropShadow_20_4"/>
<feBlend mode="normal" in="SourceGraphic" in2="effect1_dropShadow_20_4" result="shape"/>
</filter>
</defs>
</svg>
