<svg width="90" height="53" viewBox="0 0 90 53" fill="none" xmlns="http://www.w3.org/2000/svg">
<path d="M76.5953 43.7946C74.5979 45.1248 72.7114 46.6147 70.603 47.7854C67.385 49.4881 64.7218 47.9982 64.3889 44.4331C64.2779 43.3689 64.1669 42.3579 63.945 40.868C63.0018 41.9854 62.336 42.8368 61.5592 43.6349C59.118 46.3487 56.6212 49.0092 54.1244 51.6697C53.7915 52.0422 53.3476 52.2551 52.8483 52.4679C51.1838 53.2128 49.5193 52.255 49.5748 50.4991C49.6303 49.222 49.9077 47.945 50.3515 46.7743C51.2393 44.3799 52.2935 41.9854 53.2922 39.5909C54.1799 37.3561 54.6238 35.0148 54.5128 32.1946C53.2922 33.2056 52.238 33.8974 51.4057 34.8019C47.5774 38.8992 43.86 43.0496 40.0871 47.2C39.2548 48.1046 38.478 49.0092 37.6458 49.9138C37.3129 50.233 36.98 50.6587 36.5916 50.7652C35.8703 50.9248 34.9826 51.1376 34.3168 50.9248C33.3181 50.6587 33.2626 49.6477 33.5955 48.9028C34.2058 47.3597 34.9271 45.923 35.6484 44.4331C35.8148 44.0606 36.0923 43.7945 36.0923 43.2092C35.7039 43.5285 35.371 43.8478 34.9826 44.167C32.5968 46.5615 30.0445 48.7964 26.9375 50.3927C16.1182 55.9266 2.30275 49.4881 0.249854 37.8882C-1.63659 26.9268 7.40724 17.136 19.0033 17.6149C19.5027 17.6149 20.002 17.6149 20.5014 17.6149C21.3336 15.6993 21.9439 13.6773 22.9426 11.8681C27.2704 4.25901 34.0948 0.108581 43.1387 0.00215916C51.7386 -0.104262 58.5076 3.72691 63.1128 10.6975C63.834 11.8149 64.4444 12.1342 65.8315 11.9214C76.9282 10.1122 87.3591 17.0828 89.6339 27.6717C91.3539 35.7065 86.8597 45.0716 79.3695 49.1156C75.4301 51.244 71.1579 52.4147 66.6082 53C68.9385 51.8294 71.2689 50.7652 73.4327 49.4881C77.2056 47.3065 80.3127 44.4331 82.5875 40.7615C86.8043 33.9506 86.1939 26.3947 80.923 20.8075C76.4843 16.125 68.6056 14.6351 62.5579 17.2956C62.1695 17.4553 61.7812 17.6149 61.3373 17.8277C59.6173 12.4002 56.2328 8.30303 50.8509 5.90854C47.2999 4.36543 43.5825 3.93975 39.7542 4.6847C30.5439 6.49386 25.5504 12.7727 24.6071 23.3084C22.8872 22.8827 21.2227 22.2974 19.4472 22.0846C12.7337 21.2864 6.13112 26.0754 4.91048 32.5671C3.68984 39.1652 7.85111 45.7633 14.5646 47.3065C20.2794 48.5835 25.4394 47.945 29.9336 43.4753C36.7026 36.824 42.6948 29.5873 48.1877 21.925C48.2986 21.7653 48.4651 21.5525 48.5761 21.3929C49.3528 20.3818 50.6844 19.9562 51.4612 20.5415C52.4599 21.3396 52.3489 22.2974 51.7941 23.3084C49.2973 27.6185 46.7451 31.8754 44.2483 36.1854C43.9709 36.6643 43.6935 37.1432 43.638 37.7285C45.5245 35.8129 47.3554 33.8442 49.2973 32.035C50.3515 31.0772 51.5167 30.1726 52.7928 29.4277C55.6225 27.7781 58.3412 29.2148 58.3967 32.3543C58.4521 35.334 57.9528 38.2606 56.7321 41.0276C56.0109 42.6239 55.2896 44.2734 54.5683 45.8698C54.6793 45.923 54.7902 45.9762 54.8457 46.0294C56.0109 44.6459 57.176 43.2624 58.3412 41.9322C59.3954 40.7615 60.3386 39.4845 61.4483 38.3671C62.447 37.3561 63.6676 36.6643 65.1657 37.1964C66.6082 37.6753 66.9411 38.846 67.0521 40.1762C67.1631 41.3469 67.3295 42.5707 67.496 43.7413C67.7734 45.6569 68.994 46.4551 70.936 45.7633C72.7669 45.1248 74.5424 44.2734 76.3733 43.5285C76.4288 43.6349 76.5398 43.6881 76.5953 43.7946Z" fill="#F22751"/>
</svg>
