<svg xmlns="http://www.w3.org/2000/svg" width="200" height="29" viewBox="0 0 200 29">
  <g id="Group_137" data-name="Group 137" transform="translate(-353 -203)">
    <text id="Own_the_race" data-name="Own the race" transform="translate(388 226)" fill="#fff" font-size="24" font-family="Montserrat-Medium, Montserrat" font-weight="500" opacity="0.498"><tspan x="0" y="0">Own the race</tspan></text>
    <path id="Icon_material-av-timer" data-name="Icon material-av-timer" d="M16.5,25.5A1.5,1.5,0,1,0,18,24,1.5,1.5,0,0,0,16.5,25.5Zm0-21v6h3V7.62A10.494,10.494,0,1,1,7.5,18a10.376,10.376,0,0,1,2.37-6.63L18,19.5l2.115-2.115-10.2-10.2v.03A13.474,13.474,0,1,0,18,4.5ZM27,18a1.5,1.5,0,1,0-1.5,1.5A1.5,1.5,0,0,0,27,18ZM9,18a1.5,1.5,0,1,0,1.5-1.5A1.5,1.5,0,0,0,9,18Z" transform="translate(348.5 199.5)" fill="rgba(255,255,255,0.47)"/>
  </g>
</svg>
