<svg width="421" height="280" viewBox="0 0 421 280" fill="none" xmlns="http://www.w3.org/2000/svg">
<g clip-path="url(#clip0_30_1359)">
<path d="M318.307 252.518L291.562 237.948C299.924 232.217 308.286 226.9 316.234 221.1L342.978 235.67C335.031 241.401 326.669 246.787 318.307 252.518Z" fill="#F6F6F6"/>
<path d="M342.978 235.6L316.234 221.031C318.031 219.719 319.758 218.407 321.486 217.095C322.246 216.543 322.937 215.921 323.697 215.369L350.442 229.938C349.682 230.491 348.99 231.112 348.23 231.665C346.503 233.046 344.775 234.358 342.978 235.6Z" fill="#F7F7F7"/>
<path d="M350.442 229.938L323.697 215.369C325.356 214.057 327.014 212.676 328.604 211.295L355.348 225.864C353.759 227.314 352.1 228.626 350.442 229.938Z" fill="#F8F8F8"/>
<path d="M355.348 225.933L328.604 211.364C330.193 209.983 331.783 208.602 333.303 207.152L360.048 221.721C358.527 223.102 356.938 224.552 355.348 225.933Z" fill="#F9F9F9"/>
<path d="M360.048 221.721L333.234 207.152C334.754 205.702 336.275 204.252 337.726 202.732L364.47 217.302C363.088 218.752 361.568 220.271 360.048 221.721Z" fill="#F9F9F9"/>
<path d="M364.54 217.302L337.795 202.732C339.315 201.213 340.767 199.625 342.218 198.037L368.962 212.607C367.511 214.195 366.06 215.714 364.54 217.302Z" fill="#FAFAFA"/>
<path d="M368.962 212.538L342.218 197.968C343.738 196.242 345.19 194.515 346.641 192.789L373.385 207.359C372.003 209.154 370.483 210.88 368.962 212.538Z" fill="#FBFBFB"/>
<path d="M373.385 207.359L346.641 192.789C348.23 190.856 349.681 188.922 351.202 186.92L377.946 201.489C376.495 203.492 374.975 205.425 373.385 207.359Z" fill="#FBFBFB"/>
<path d="M377.946 201.489L351.202 186.92C352.86 184.641 354.45 182.293 356.039 179.877L382.784 194.446C381.194 196.794 379.605 199.142 377.946 201.489Z" fill="#FCFCFC"/>
<path d="M382.784 194.377L356.039 179.808C357.974 176.769 359.84 173.593 361.568 170.348L388.312 184.917C386.585 188.163 384.719 191.339 382.784 194.377Z" fill="#FDFDFD"/>
<path d="M388.312 184.917L361.568 170.348C361.637 170.279 361.637 170.21 361.706 170.141C367.718 158.816 371.519 147.423 373.109 136.444L399.853 151.014C398.264 161.993 394.463 173.386 388.45 184.71C388.381 184.779 388.312 184.848 388.312 184.917Z" fill="#FEFEFE"/>
<path d="M399.784 150.944L373.04 136.375C373.385 134.027 373.592 131.61 373.731 129.332L400.475 143.901C400.406 146.249 400.13 148.597 399.784 150.944Z" fill="#FDFDFD"/>
<path d="M400.544 143.901L373.8 129.332C373.869 127.536 373.938 125.81 373.938 124.084L400.683 138.653C400.683 140.38 400.613 142.106 400.544 143.901Z" fill="#FCFCFC"/>
<path d="M400.682 138.654L373.869 124.084C373.869 122.634 373.8 121.184 373.731 119.734L400.475 134.303C400.613 135.753 400.682 137.203 400.682 138.654Z" fill="#FBFBFB"/>
<path d="M400.475 134.303L373.731 119.734C373.662 118.422 373.523 117.179 373.385 115.867L400.13 130.436C400.268 131.679 400.406 132.991 400.475 134.303Z" fill="#FBFBFB"/>
<path d="M400.13 130.436L373.385 115.867C373.247 114.693 373.109 113.519 372.901 112.345L399.646 126.915C399.853 128.089 399.991 129.263 400.13 130.436Z" fill="#FAFAFA"/>
<path d="M399.646 126.915L372.901 112.345C372.694 111.24 372.487 110.136 372.279 109.031L399.024 123.6C399.231 124.705 399.439 125.81 399.646 126.915Z" fill="#F9F9F9"/>
<path d="M399.024 123.6L372.28 109.031C372.072 107.995 371.796 106.959 371.519 105.924L398.264 120.493C398.54 121.529 398.748 122.565 399.024 123.6Z" fill="#F9F9F9"/>
<path d="M398.264 120.493L371.519 105.924C371.243 104.957 370.966 103.921 370.621 102.954L397.365 117.524C397.711 118.56 397.987 119.527 398.264 120.493Z" fill="#F8F8F8"/>
<path d="M397.365 117.593L370.621 103.023C370.345 102.057 369.999 101.09 369.654 100.123L396.398 114.693C396.743 115.66 397.089 116.626 397.365 117.593Z" fill="#F7F7F7"/>
<path d="M396.398 114.693L369.584 100.123C369.239 99.1566 368.893 98.2589 368.479 97.3613L395.223 111.931C395.638 112.829 396.052 113.726 396.398 114.693Z" fill="#F6F6F6"/>
<path d="M395.292 111.931L368.479 97.3613C368.064 96.4636 367.649 95.4969 367.235 94.5993L393.979 109.169C394.463 110.067 394.878 110.964 395.292 111.931Z" fill="#F6F6F6"/>
<path d="M394.048 109.169L367.235 94.5993C366.82 93.7016 366.336 92.804 365.853 91.9063L392.597 106.476C393.15 107.374 393.565 108.271 394.048 109.169Z" fill="#F5F5F5"/>
<path d="M392.666 106.476L365.922 91.9063C365.438 91.0086 364.885 90.0419 364.401 89.1443L391.146 103.714C391.629 104.612 392.182 105.509 392.666 106.476Z" fill="#F4F4F4"/>
<path d="M391.077 103.714L364.332 89.1443C363.779 88.2466 363.226 87.2799 362.604 86.3822L389.349 100.952C389.971 101.919 390.524 102.816 391.077 103.714Z" fill="#F4F4F4"/>
<path d="M389.349 101.021L362.605 86.4513C361.983 85.5536 361.361 84.5869 360.67 83.6893L387.414 98.2589C388.105 99.1566 388.727 100.054 389.349 101.021Z" fill="#F3F3F3"/>
<path d="M387.414 98.2589L360.67 83.6893C359.979 82.7226 359.218 81.7559 358.389 80.8582L385.133 95.4279C385.963 96.3255 386.654 97.2922 387.414 98.2589Z" fill="#F2F2F2"/>
<path d="M385.133 95.3588L358.389 80.7891C357.56 79.7534 356.661 78.7867 355.763 77.82L382.507 92.3896C383.406 93.4254 384.304 94.3921 385.133 95.3588Z" fill="#F1F1F1"/>
<path d="M382.507 92.4587L355.763 77.889C355.348 77.4747 354.934 77.0604 354.588 76.6461C354.173 76.2318 353.759 75.8175 353.275 75.4032L380.019 89.9729C380.434 90.3872 380.849 90.8015 381.332 91.2158C381.747 91.561 382.093 91.9753 382.507 92.4587Z" fill="#F1F1F1"/>
<path d="M380.02 89.9038L353.275 75.3341C352.446 74.5746 351.547 73.815 350.649 73.0555L377.393 87.6251C378.292 88.3847 379.19 89.1443 380.02 89.9038Z" fill="#F0F0F0"/>
<path d="M377.393 87.6252L350.649 73.0555C349.543 72.1578 348.368 71.3292 347.194 70.5006L373.938 85.0703C375.182 85.8989 376.288 86.7275 377.393 87.6252Z" fill="#EFEFEF"/>
<path d="M374.007 85.1393L347.263 70.5697C345.742 69.5339 344.222 68.5672 342.563 67.7386L369.308 82.3082C370.897 83.1369 372.487 84.1036 374.007 85.1393Z" fill="#EFEFEF"/>
<path d="M326.945 216.75L300.201 202.18C301.168 202.732 302.274 203.009 303.518 203.009L330.262 217.578C329.018 217.578 327.913 217.302 326.945 216.75Z" fill="#EEEEEE"/>
<path d="M330.262 217.578L303.518 203.009C303.794 203.009 304.14 203.009 304.416 203.009L331.161 217.578C330.884 217.578 330.608 217.578 330.262 217.578Z" fill="#EFEFEF"/>
<path d="M331.161 217.578L304.416 203.009C304.624 203.009 304.831 202.94 305.038 202.94C305.108 202.94 305.177 202.94 305.246 202.94L331.99 217.509C331.921 217.509 331.852 217.509 331.783 217.509C331.576 217.509 331.368 217.578 331.161 217.578Z" fill="#EFEFEF"/>
<path d="M331.99 217.44L305.246 202.871C305.522 202.801 305.729 202.801 306.006 202.732L332.75 217.302C332.543 217.371 332.266 217.44 331.99 217.44Z" fill="#F0F0F0"/>
<path d="M332.75 217.302L306.006 202.732C306.282 202.663 306.49 202.594 306.766 202.525L333.51 217.095C333.303 217.233 333.027 217.233 332.75 217.302Z" fill="#F1F1F1"/>
<path d="M333.51 217.095L306.766 202.525C307.043 202.456 307.319 202.387 307.526 202.249L334.271 216.819C334.063 216.957 333.787 217.026 333.51 217.095Z" fill="#F1F1F1"/>
<path d="M334.34 216.888L307.526 202.318C307.803 202.249 308.079 202.111 308.356 202.042L335.1 216.612C334.893 216.681 334.616 216.819 334.34 216.888Z" fill="#F2F2F2"/>
<path d="M335.169 216.543L308.425 201.973C308.701 201.835 308.977 201.766 309.323 201.628L336.067 216.197C335.722 216.335 335.445 216.473 335.169 216.543Z" fill="#F3F3F3"/>
<path d="M335.998 216.197L309.254 201.628C309.53 201.49 309.876 201.351 310.152 201.213L336.897 215.783C336.62 215.921 336.344 216.059 335.998 216.197Z" fill="#F4F4F4"/>
<path d="M336.966 215.783L310.221 201.213C310.36 201.144 310.498 201.075 310.636 201.006C311.949 200.316 313.331 199.556 314.644 198.866L341.389 213.366C340.076 214.126 338.693 214.816 337.38 215.507C337.242 215.645 337.104 215.714 336.966 215.783Z" fill="#F4F4F4"/>
<path d="M341.389 213.366L314.575 198.866C321.209 195.137 327.705 190.994 334.409 187.127L361.153 201.697C354.519 205.494 348.023 209.707 341.389 213.366Z" fill="#F5F5F5"/>
<path d="M316.787 228.972L290.042 214.402C289.697 214.195 289.351 213.988 289.006 213.781L315.75 228.35C316.095 228.557 316.441 228.764 316.787 228.972Z" fill="#EFEFEF"/>
<path d="M315.75 228.35L289.006 213.781C288.729 213.573 288.453 213.435 288.245 213.228L314.99 227.798C315.197 227.936 315.474 228.143 315.75 228.35Z" fill="#EFEFEF"/>
<path d="M314.99 227.729L288.176 213.228C287.969 213.021 287.762 212.883 287.485 212.676L314.23 227.245C314.506 227.383 314.713 227.591 314.99 227.729Z" fill="#F0F0F0"/>
<path d="M314.299 227.176L287.554 212.607C287.347 212.4 287.14 212.192 286.932 212.054L313.677 226.624C313.884 226.762 314.091 226.969 314.299 227.176Z" fill="#F1F1F1"/>
<path d="M313.746 226.624L287.001 212.054C286.794 211.847 286.656 211.64 286.449 211.433L313.193 226.002C313.331 226.21 313.539 226.417 313.746 226.624Z" fill="#F1F1F1"/>
<path d="M313.193 226.002L286.449 211.433C286.31 211.226 286.103 211.018 285.965 210.811L312.709 225.381C312.847 225.588 313.055 225.795 313.193 226.002Z" fill="#F2F2F2"/>
<path d="M312.709 225.381L285.965 210.811C285.827 210.604 285.688 210.397 285.481 210.19L312.226 224.76C312.364 224.967 312.571 225.174 312.709 225.381Z" fill="#F3F3F3"/>
<path d="M312.226 224.76L285.481 210.19C285.343 209.983 285.205 209.776 285.067 209.499L311.811 224.069C311.949 224.276 312.087 224.552 312.226 224.76Z" fill="#F4F4F4"/>
<path d="M311.811 224.069L285.066 209.499C284.928 209.292 284.79 209.016 284.652 208.809L311.396 223.379C311.534 223.586 311.673 223.862 311.811 224.069Z" fill="#F4F4F4"/>
<path d="M311.396 223.379L284.652 208.809C284.514 208.533 284.375 208.326 284.237 208.049L310.982 222.619C311.12 222.826 311.258 223.102 311.396 223.379Z" fill="#F5F5F5"/>
<path d="M311.051 222.55L284.306 207.98C284.168 207.704 284.03 207.428 283.961 207.152L310.705 221.721C310.774 221.998 310.913 222.343 311.051 222.55Z" fill="#F6F6F6"/>
<path d="M310.636 221.721L283.892 207.152C283.753 206.875 283.615 206.53 283.546 206.254L310.291 220.824C310.429 221.169 310.498 221.445 310.636 221.721Z" fill="#F6F6F6"/>
<path d="M310.291 220.824L283.546 206.254C283.408 205.909 283.339 205.633 283.201 205.287L309.945 219.857C310.083 220.202 310.152 220.547 310.291 220.824Z" fill="#F7F7F7"/>
<path d="M309.945 219.857L283.201 205.287C283.062 204.942 282.993 204.528 282.855 204.182L309.599 218.752C309.738 219.166 309.807 219.512 309.945 219.857Z" fill="#F8F8F8"/>
<path d="M309.599 218.752L282.855 204.183C282.717 203.768 282.648 203.354 282.579 202.94L309.323 217.509C309.392 217.924 309.53 218.338 309.599 218.752Z" fill="#F9F9F9"/>
<path d="M309.323 217.509L282.579 202.94C282.51 202.456 282.371 202.042 282.302 201.559L309.047 216.128C309.116 216.612 309.254 217.095 309.323 217.509Z" fill="#F9F9F9"/>
<path d="M309.047 216.128L282.302 201.559C282.233 201.006 282.095 200.385 282.026 199.763L308.77 214.333C308.839 214.954 308.978 215.507 309.047 216.128Z" fill="#FAFAFA"/>
<path d="M308.77 214.333L282.026 199.763C281.957 199.418 281.957 199.073 281.888 198.727C281.611 195.551 281.266 192.444 280.851 188.784L307.595 203.354C308.01 207.014 308.356 210.052 308.632 213.297C308.701 213.642 308.77 213.988 308.77 214.333Z" fill="#FBFBFB"/>
<path d="M307.665 203.354L280.92 188.784C280.644 186.782 280.367 184.572 280.022 182.086L306.766 196.656C307.112 199.142 307.388 201.351 307.665 203.354Z" fill="#FAFAFA"/>
<path d="M312.156 178.496L285.412 163.926C286.449 164.133 287.347 164.478 288.176 164.962L314.921 179.531C314.091 179.117 313.193 178.772 312.156 178.496Z" fill="#EEEEEE"/>
<path d="M266.891 226.693L240.147 212.123C244.984 205.218 249.891 198.244 254.798 191.546L281.542 206.116C276.635 212.814 271.729 219.788 266.891 226.693Z" fill="#FCFCFC"/>
<path d="M281.542 206.116L254.798 191.546C255.005 191.201 255.281 190.856 255.489 190.58C255.903 190.096 256.249 189.544 256.594 189.06L283.339 203.63C282.993 204.113 282.579 204.666 282.233 205.149C281.957 205.494 281.749 205.84 281.542 206.116Z" fill="#FBFBFB"/>
<path d="M283.339 203.63L256.594 189.06C259.497 185.055 262.261 180.981 265.164 176.977L291.908 191.546C289.006 195.482 286.241 199.625 283.339 203.63Z" fill="#FCFCFC"/>
<path d="M291.908 191.546L265.164 176.977C266.477 175.181 267.79 173.455 269.103 171.798L295.847 186.367C294.465 188.025 293.152 189.751 291.908 191.546Z" fill="#FBFBFB"/>
<path d="M295.847 186.298L269.103 171.729C269.517 171.245 269.932 170.762 270.347 170.279L297.091 184.848C296.676 185.332 296.262 185.815 295.847 186.298Z" fill="#FBFBFB"/>
<path d="M297.091 184.848L270.347 170.279C270.692 169.933 271.038 169.519 271.383 169.174L298.128 183.744C297.782 184.089 297.437 184.503 297.091 184.848Z" fill="#FAFAFA"/>
<path d="M298.128 183.744L271.383 169.174C271.66 168.898 272.005 168.552 272.282 168.276L299.026 182.846C298.75 183.191 298.473 183.467 298.128 183.744Z" fill="#F9F9F9"/>
<path d="M299.026 182.846L272.282 168.345C272.558 168.069 272.835 167.862 273.042 167.655L299.786 182.224C299.579 182.363 299.303 182.639 299.026 182.846Z" fill="#F9F9F9"/>
<path d="M299.855 182.155L273.111 167.586C273.318 167.379 273.595 167.171 273.871 166.964L300.616 181.534C300.339 181.741 300.063 181.948 299.855 182.155Z" fill="#F8F8F8"/>
<path d="M300.546 181.534L273.802 166.964C274.009 166.757 274.217 166.619 274.493 166.481L301.238 181.051C301.03 181.189 300.823 181.396 300.546 181.534Z" fill="#F7F7F7"/>
<path d="M301.238 181.051L274.493 166.481C274.7 166.343 274.908 166.205 275.115 166.067L301.86 180.636C301.652 180.774 301.445 180.912 301.238 181.051Z" fill="#F6F6F6"/>
<path d="M301.859 180.567L275.115 165.998C275.322 165.859 275.53 165.721 275.737 165.583L302.481 180.153C302.274 180.36 302.067 180.429 301.859 180.567Z" fill="#F6F6F6"/>
<path d="M302.481 180.222L275.737 165.652C275.944 165.514 276.152 165.445 276.359 165.307L303.103 179.877C302.896 179.946 302.689 180.084 302.481 180.222Z" fill="#F5F5F5"/>
<path d="M303.103 179.877L276.359 165.307C276.566 165.169 276.774 165.1 276.912 165.031L303.656 179.601C303.449 179.67 303.311 179.739 303.103 179.877Z" fill="#F4F4F4"/>
<path d="M303.656 179.531L276.912 165.031C277.119 164.962 277.326 164.824 277.465 164.755L304.209 179.324C304.071 179.393 303.864 179.462 303.656 179.531Z" fill="#F4F4F4"/>
<path d="M304.278 179.255L277.534 164.686C277.741 164.617 277.949 164.547 278.087 164.409L304.831 178.979C304.624 179.117 304.416 179.186 304.278 179.255Z" fill="#F3F3F3"/>
<path d="M304.831 179.048L278.087 164.478C278.294 164.409 278.501 164.34 278.709 164.271L305.453 178.841C305.246 178.91 305.038 178.979 304.831 179.048Z" fill="#F2F2F2"/>
<path d="M305.453 178.841L278.709 164.271C278.916 164.202 279.123 164.133 279.331 164.064L306.075 178.634C305.868 178.703 305.66 178.772 305.453 178.841Z" fill="#F1F1F1"/>
<path d="M306.075 178.634L279.331 164.064C279.538 163.995 279.745 163.926 280.022 163.926L306.766 178.496C306.49 178.496 306.282 178.565 306.075 178.634Z" fill="#F1F1F1"/>
<path d="M306.697 178.427L279.953 163.857C280.229 163.788 280.436 163.788 280.713 163.719L307.457 178.289C307.181 178.358 306.973 178.358 306.697 178.427Z" fill="#F0F0F0"/>
<path d="M307.457 178.289L280.713 163.719C280.782 163.719 280.851 163.719 280.92 163.719C281.127 163.719 281.335 163.65 281.542 163.65L308.286 178.219C308.079 178.219 307.872 178.289 307.664 178.289C307.595 178.289 307.526 178.289 307.457 178.289Z" fill="#EFEFEF"/>
<path d="M308.286 178.22L281.542 163.65C281.888 163.65 282.302 163.581 282.648 163.581L309.392 178.15C309.047 178.15 308.701 178.15 308.286 178.22Z" fill="#EFEFEF"/>
<path d="M309.461 178.15L282.648 163.581C283.546 163.581 284.444 163.719 285.343 163.926L312.087 178.496C311.258 178.289 310.29 178.15 309.461 178.15Z" fill="#EEEEEE"/>
<path d="M265.647 226.141L238.903 211.571C239.249 211.709 239.594 211.847 239.871 211.985L266.615 226.555C266.338 226.417 265.993 226.279 265.647 226.141Z" fill="#EEEEEE"/>
<path d="M247.887 259.492L221.142 244.922C220.935 244.784 220.728 244.715 220.521 244.577L247.265 259.147C247.472 259.285 247.68 259.423 247.887 259.492Z" fill="#EFEFEF"/>
<path d="M247.265 259.147L220.451 244.577C220.313 244.439 220.106 244.37 219.968 244.232L246.712 258.801C246.919 258.94 247.058 259.009 247.265 259.147Z" fill="#EFEFEF"/>
<path d="M246.781 258.801L220.037 244.232C219.899 244.094 219.76 244.025 219.622 243.887L246.367 258.456C246.505 258.594 246.643 258.663 246.781 258.801Z" fill="#F0F0F0"/>
<path d="M246.367 258.456L219.622 243.887C219.484 243.818 219.415 243.679 219.277 243.541L246.021 258.111C246.159 258.249 246.297 258.318 246.367 258.456Z" fill="#F1F1F1"/>
<path d="M246.09 258.111L219.346 243.541C219.277 243.403 219.138 243.334 219.069 243.196L245.814 257.766C245.883 257.904 245.952 258.042 246.09 258.111Z" fill="#F1F1F1"/>
<path d="M245.745 257.766L219 243.196C218.931 243.058 218.793 242.989 218.724 242.851L245.468 257.42C245.606 257.559 245.675 257.697 245.745 257.766Z" fill="#F2F2F2"/>
<path d="M245.537 257.49L218.793 242.92C218.724 242.782 218.655 242.713 218.585 242.575L245.33 257.144C245.33 257.282 245.468 257.351 245.537 257.49Z" fill="#F3F3F3"/>
<path d="M245.261 257.144L218.516 242.575C218.447 242.436 218.378 242.367 218.309 242.229L245.053 256.799C245.123 256.937 245.192 257.075 245.261 257.144Z" fill="#F4F4F4"/>
<path d="M245.054 256.799L218.309 242.229C218.24 242.091 218.171 242.022 218.102 241.884L244.846 256.454C244.915 256.592 244.984 256.73 245.054 256.799Z" fill="#F4F4F4"/>
<path d="M244.846 256.454L218.102 241.884C218.033 241.746 217.964 241.677 217.894 241.539L244.639 256.108C244.777 256.247 244.846 256.385 244.846 256.454Z" fill="#F5F5F5"/>
<path d="M244.708 256.108L217.964 241.539C217.894 241.401 217.825 241.332 217.825 241.194L244.57 255.763C244.57 255.901 244.639 256.039 244.708 256.108Z" fill="#F6F6F6"/>
<path d="M244.57 255.763L217.825 241.194C217.756 241.055 217.756 240.917 217.687 240.848L244.432 255.418C244.432 255.487 244.501 255.625 244.57 255.763Z" fill="#F6F6F6"/>
<path d="M244.362 255.418L217.618 240.848C217.549 240.71 217.549 240.572 217.48 240.434L244.224 255.004C244.293 255.142 244.362 255.28 244.362 255.418Z" fill="#F7F7F7"/>
<path d="M244.224 255.004L217.48 240.434C217.411 240.296 217.411 240.158 217.342 240.02L244.086 254.589C244.155 254.727 244.224 254.866 244.224 255.004Z" fill="#F8F8F8"/>
<path d="M244.155 254.589L217.411 240.02C217.342 239.882 217.342 239.744 217.272 239.536L244.017 254.106C244.017 254.244 244.086 254.382 244.155 254.589Z" fill="#F9F9F9"/>
<path d="M244.017 254.106L217.272 239.536C217.203 239.398 217.203 239.191 217.203 239.053L243.948 253.623C243.948 253.761 243.948 253.899 244.017 254.106Z" fill="#F9F9F9"/>
<path d="M243.879 253.623L217.134 239.053C217.134 238.846 217.065 238.708 217.065 238.501L243.81 253.07C243.879 253.208 243.879 253.415 243.879 253.623Z" fill="#FAFAFA"/>
<path d="M243.81 253.07L217.065 238.501C217.065 238.293 216.996 238.086 216.996 237.879L243.741 252.449C243.81 252.587 243.81 252.794 243.81 253.07Z" fill="#FBFBFB"/>
<path d="M243.74 252.38L216.996 237.81C216.996 237.603 216.996 237.327 216.996 237.12L243.74 251.689C243.74 251.965 243.74 252.173 243.74 252.38Z" fill="#FBFBFB"/>
<path d="M243.741 251.689L216.996 237.12C216.996 236.912 216.996 236.774 216.996 236.567C216.996 236.291 216.996 235.946 217.065 235.67L243.81 250.239C243.81 250.515 243.81 250.861 243.741 251.137C243.741 251.344 243.741 251.482 243.741 251.689Z" fill="#FCFCFC"/>
<path d="M243.81 250.239L216.996 235.67C217.065 234.012 217.273 232.286 217.48 230.629L244.224 245.199C244.086 246.856 243.879 248.513 243.81 250.239Z" fill="#FDFDFD"/>
<path d="M244.293 245.13L217.549 230.629C218.102 226.486 219.138 222.412 220.451 218.476C224.39 206.599 229.021 194.584 233.374 182.639C235.448 176.631 237.037 170.624 237.935 164.202L264.68 178.772C263.781 185.125 262.261 191.201 260.119 197.208C255.696 209.154 251.066 221.169 247.196 233.046C245.883 236.912 244.915 241.056 244.293 245.13Z" fill="#FEFEFE"/>
<path d="M264.68 178.772L237.935 164.202C238.281 161.647 238.557 159.092 238.696 156.4L265.44 170.969C265.302 173.662 265.025 176.217 264.68 178.772Z" fill="#FDFDFD"/>
<path d="M265.44 170.969L238.696 156.4C238.834 154.19 238.903 151.98 238.834 149.702L265.578 164.271C265.647 166.55 265.578 168.76 265.44 170.969Z" fill="#FCFCFC"/>
<path d="M265.578 164.271L238.834 149.702C238.834 148.735 238.834 147.768 238.765 146.801L265.509 161.371C265.578 162.338 265.578 163.305 265.578 164.271Z" fill="#FBFBFB"/>
<path d="M307.388 58.4168L280.644 43.8471C281.542 44.3305 282.579 44.6067 283.753 44.6067L310.498 59.1763C309.323 59.1763 308.356 58.9001 307.388 58.4168Z" fill="#EEEEEE"/>
<path d="M310.498 59.1763L283.754 44.6067C284.03 44.6067 284.375 44.6067 284.721 44.5376L311.465 59.1073C311.12 59.1763 310.843 59.1763 310.498 59.1763Z" fill="#EFEFEF"/>
<path d="M311.465 59.1763L284.721 44.6067C284.928 44.6067 285.205 44.5376 285.412 44.5376C285.481 44.5376 285.55 44.5376 285.688 44.4686L312.433 59.0382C312.364 59.0382 312.226 59.0382 312.156 59.1073C311.949 59.1073 311.673 59.1763 311.465 59.1763Z" fill="#EFEFEF"/>
<path d="M312.433 59.0382L285.689 44.4686C286.034 44.3995 286.38 44.3304 286.725 44.2614L313.47 58.8311C313.124 58.9001 312.778 58.9692 312.433 59.0382Z" fill="#F0F0F0"/>
<path d="M313.47 58.8311L286.725 44.2614C287.14 44.1923 287.554 44.0542 287.969 43.9161L314.713 58.4858C314.299 58.6239 313.884 58.762 313.47 58.8311Z" fill="#F1F1F1"/>
<path d="M314.714 58.5549L287.969 43.9852C288.176 43.9161 288.315 43.8471 288.522 43.8471C289.42 43.5709 290.319 43.2947 291.217 43.0185L317.962 57.5882C317.063 57.8644 316.165 58.1406 315.266 58.4168C315.128 58.4168 314.921 58.4858 314.714 58.5549Z" fill="#F1F1F1"/>
<path d="M318.031 57.5191L291.286 42.9494C293.014 42.4661 294.811 41.9827 296.538 41.6375L323.283 56.2072C321.486 56.6215 319.758 57.0358 318.031 57.5191Z" fill="#F1F1F1"/>
<path d="M323.283 56.2071L296.469 41.6375C298.404 41.2232 300.339 40.8089 302.205 40.5327L328.949 55.1023C327.084 55.3785 325.149 55.7928 323.283 56.2071Z" fill="#F0F0F0"/>
<path d="M329.019 55.1023L302.274 40.5327C302.827 40.4636 303.38 40.3946 303.933 40.2565C305.591 40.0493 307.319 39.8422 308.978 39.7041L335.722 54.2737C334.063 54.4118 332.405 54.619 330.677 54.8261C330.124 54.8952 329.571 55.0333 329.019 55.1023Z" fill="#EFEFEF"/>
<path d="M335.722 54.2737L308.908 39.7041C311.673 39.4969 314.437 39.3588 317.201 39.4279L343.946 53.9975C341.251 53.9285 338.486 54.0666 335.722 54.2737Z" fill="#EFEFEF"/>
<path d="M344.015 53.9975L317.201 39.4279C330.262 39.635 342.564 42.8804 353.344 48.7497L380.089 63.3193C369.377 57.45 357.076 54.2047 344.015 53.9975Z" fill="#EEEEEE"/>
<path d="M217.894 194.308L191.15 179.739C196.195 173.455 201.171 167.171 206.215 160.957L232.96 175.527C227.915 181.672 222.939 188.025 217.894 194.308Z" fill="#FBFBFB"/>
<path d="M232.96 175.457L206.215 160.888C209.463 156.952 212.642 153.016 215.959 149.218C216.029 149.149 216.098 149.08 216.098 149.011L242.842 163.581C242.773 163.65 242.704 163.719 242.704 163.788C239.387 167.655 236.139 171.522 232.96 175.457Z" fill="#FBFBFB"/>
<path d="M242.842 163.65L216.098 149.08C217.48 147.561 218.862 146.042 220.313 144.592L247.058 159.162C245.606 160.612 244.224 162.131 242.842 163.65Z" fill="#FAFAFA"/>
<path d="M247.058 159.162L220.313 144.592C221.488 143.349 222.732 142.175 223.976 141.001L250.72 155.571C249.476 156.745 248.302 157.919 247.058 159.162Z" fill="#F9F9F9"/>
<path d="M250.72 155.571L223.976 141.001C225.082 139.965 226.118 138.999 227.293 138.032L254.037 152.602C252.932 153.568 251.826 154.535 250.72 155.571Z" fill="#F9F9F9"/>
<path d="M254.037 152.602L227.293 138.032C228.261 137.203 229.297 136.375 230.334 135.546L257.078 150.116C256.042 150.875 255.005 151.704 254.037 152.602Z" fill="#F8F8F8"/>
<path d="M257.078 150.116L230.334 135.546C230.679 135.27 230.956 135.063 231.301 134.787C231.509 134.649 231.716 134.441 231.923 134.303L258.668 148.873C258.46 149.011 258.253 149.218 258.046 149.356C257.7 149.564 257.355 149.84 257.078 150.116Z" fill="#F7F7F7"/>
<path d="M258.668 148.804L231.923 134.234C232.269 134.027 232.614 133.751 232.891 133.544L259.635 148.113C259.359 148.39 259.013 148.597 258.668 148.804Z" fill="#F6F6F6"/>
<path d="M259.704 148.113L232.891 133.613C233.236 133.406 233.513 133.199 233.858 132.991L260.603 147.561C260.326 147.699 259.981 147.906 259.704 148.113Z" fill="#F6F6F6"/>
<path d="M260.603 147.561L233.858 132.991C234.135 132.784 234.48 132.646 234.757 132.439L261.501 147.009C261.225 147.147 260.948 147.354 260.603 147.561Z" fill="#F5F5F5"/>
<path d="M261.57 147.009L234.826 132.439C235.102 132.301 235.448 132.094 235.724 131.956L262.468 146.525C262.123 146.663 261.847 146.802 261.57 147.009Z" fill="#F4F4F4"/>
<path d="M262.469 146.525L235.655 131.956C235.931 131.818 236.277 131.679 236.553 131.541L263.298 146.111C263.021 146.18 262.745 146.387 262.469 146.525Z" fill="#F4F4F4"/>
<path d="M263.367 146.111L236.622 131.541C236.899 131.403 237.244 131.265 237.521 131.196L264.265 145.766C263.92 145.835 263.643 145.973 263.367 146.111Z" fill="#F3F3F3"/>
<path d="M264.265 145.697L237.521 131.127C237.797 130.989 238.143 130.92 238.419 130.782L265.164 145.351C264.818 145.49 264.542 145.559 264.265 145.697Z" fill="#F2F2F2"/>
<path d="M265.164 145.351L238.419 130.782C238.696 130.644 239.041 130.575 239.318 130.506L266.062 145.075C265.716 145.144 265.44 145.282 265.164 145.351Z" fill="#F1F1F1"/>
<path d="M266.062 145.075L239.249 130.506C239.594 130.436 239.87 130.367 240.216 130.298L266.96 144.868C266.684 144.937 266.338 145.006 266.062 145.075Z" fill="#F1F1F1"/>
<path d="M266.961 144.868L240.216 130.298C240.562 130.229 240.907 130.16 241.253 130.091L267.997 144.661C267.652 144.73 267.306 144.799 266.961 144.868Z" fill="#F0F0F0"/>
<path d="M267.997 144.661L241.253 130.091C241.322 130.091 241.46 130.091 241.529 130.022C241.805 129.953 242.082 129.953 242.358 129.953L269.103 144.523C268.826 144.523 268.55 144.592 268.274 144.592C268.204 144.592 268.066 144.661 267.997 144.661Z" fill="#EFEFEF"/>
<path d="M269.103 144.523L242.358 129.953C242.842 129.884 243.257 129.884 243.671 129.884L270.416 144.454C270.001 144.454 269.586 144.454 269.103 144.523Z" fill="#EFEFEF"/>
<path d="M270.485 144.454L243.74 129.884C245.675 129.884 247.472 130.367 249.062 131.265L275.806 145.835C274.217 144.937 272.42 144.523 270.485 144.454Z" fill="#EEEEEE"/>
<path d="M175.255 261.978L148.511 247.408C148.373 247.339 148.304 247.27 148.165 247.201L174.91 261.771C175.048 261.84 175.117 261.909 175.255 261.978Z" fill="#EFEFEF"/>
<path d="M174.91 261.771L148.165 247.201C148.096 247.132 147.958 247.063 147.889 246.994L174.633 261.564C174.772 261.633 174.841 261.702 174.91 261.771Z" fill="#EFEFEF"/>
<path d="M174.633 261.564L147.889 247.063C147.82 246.994 147.751 246.925 147.682 246.856L174.426 261.425C174.495 261.494 174.564 261.564 174.633 261.564Z" fill="#F0F0F0"/>
<path d="M174.426 261.425L147.682 246.856C147.613 246.787 147.543 246.718 147.474 246.649L174.219 261.218C174.288 261.287 174.357 261.356 174.426 261.425Z" fill="#F1F1F1"/>
<path d="M174.288 261.218L147.543 246.649C147.474 246.58 147.405 246.51 147.405 246.441L174.15 261.011C174.15 261.149 174.219 261.149 174.288 261.218Z" fill="#F1F1F1"/>
<path d="M174.081 261.08L147.336 246.51C147.267 246.441 147.267 246.372 147.198 246.303L173.942 260.873C174.011 260.942 174.081 261.011 174.081 261.08Z" fill="#F2F2F2"/>
<path d="M173.942 260.873L147.198 246.303C147.129 246.234 147.129 246.165 147.06 246.096L173.804 260.666C173.873 260.804 173.942 260.804 173.942 260.873Z" fill="#F3F3F3"/>
<path d="M173.873 260.735L147.129 246.165C147.06 246.096 147.06 246.027 146.991 245.958L173.735 260.528C173.804 260.597 173.804 260.666 173.873 260.735Z" fill="#F4F4F4"/>
<path d="M173.735 260.528L146.991 245.958C146.922 245.889 146.922 245.82 146.852 245.751L173.597 260.321C173.666 260.39 173.666 260.459 173.735 260.528Z" fill="#F4F4F4"/>
<path d="M173.597 260.321L146.852 245.82C146.852 245.751 146.783 245.682 146.783 245.613L173.528 260.182C173.597 260.251 173.597 260.252 173.597 260.321Z" fill="#F5F5F5"/>
<path d="M173.528 260.182L146.783 245.613C146.783 245.544 146.714 245.475 146.714 245.406L173.459 259.975C173.459 260.044 173.528 260.113 173.528 260.182Z" fill="#F6F6F6"/>
<path d="M173.459 259.975L146.714 245.406C146.714 245.337 146.645 245.268 146.645 245.199L173.389 259.768C173.389 259.837 173.389 259.906 173.459 259.975Z" fill="#F6F6F6"/>
<path d="M173.39 259.768L146.645 245.199C146.645 245.129 146.576 245.06 146.576 244.991L173.32 259.561C173.32 259.561 173.32 259.63 173.39 259.768Z" fill="#F7F7F7"/>
<path d="M173.251 259.492L146.507 244.922C146.507 244.853 146.438 244.784 146.438 244.646L173.182 259.216C173.251 259.354 173.251 259.423 173.251 259.492Z" fill="#F8F8F8"/>
<path d="M173.182 259.285L146.438 244.715C146.438 244.646 146.369 244.508 146.369 244.439L173.113 259.009C173.182 259.078 173.182 259.147 173.182 259.285Z" fill="#F9F9F9"/>
<path d="M173.113 259.009L146.369 244.439C146.369 244.37 146.3 244.232 146.3 244.163L173.044 258.732C173.113 258.801 173.113 258.871 173.113 259.009Z" fill="#F9F9F9"/>
<path d="M173.113 258.663L146.369 244.094C146.369 243.956 146.3 243.887 146.3 243.748L173.044 258.318C173.044 258.456 173.044 258.594 173.113 258.663Z" fill="#FAFAFA"/>
<path d="M173.044 258.318L146.3 243.748C146.3 243.61 146.3 243.472 146.23 243.334L172.975 257.904C172.975 258.111 173.044 258.249 173.044 258.318Z" fill="#FBFBFB"/>
<path d="M172.975 257.973L146.23 243.403C146.23 243.265 146.23 243.127 146.23 242.92L172.975 257.49C172.975 257.628 172.975 257.835 172.975 257.973Z" fill="#FBFBFB"/>
<path d="M172.975 257.49L146.23 242.92C146.23 242.713 146.23 242.506 146.23 242.298L172.975 256.868C172.975 257.075 172.975 257.282 172.975 257.49Z" fill="#FCFCFC"/>
<path d="M172.975 256.937L146.23 242.367C146.23 242.091 146.3 241.815 146.3 241.539L173.044 256.108C173.044 256.316 173.044 256.592 172.975 256.937Z" fill="#FDFDFD"/>
<path d="M173.112 256.039L146.368 241.47C146.506 240.572 146.713 239.674 147.059 238.846L173.803 253.416C173.458 254.244 173.181 255.142 173.112 256.039Z" fill="#FEFEFE"/>
<path d="M173.804 253.416L147.06 238.846C149.755 231.181 152.934 223.931 156.113 216.404L182.857 230.974C179.678 238.432 176.499 245.682 173.804 253.416Z" fill="#FEFEFE"/>
<path d="M182.788 230.974L156.044 216.404C156.666 214.816 157.633 213.573 157.91 211.571L184.654 226.141C184.378 228.143 183.41 229.386 182.788 230.974Z" fill="#FEFEFE"/>
<path d="M184.723 226.072L157.979 211.502C157.979 211.295 158.048 211.018 158.048 210.811L184.792 225.381C184.723 225.657 184.723 225.864 184.723 226.072Z" fill="#FDFDFD"/>
<path d="M184.792 225.381L158.048 210.811C158.048 210.673 158.048 210.466 158.048 210.328L184.792 224.898C184.792 225.036 184.792 225.243 184.792 225.381Z" fill="#FCFCFC"/>
<path d="M239.663 113.864L212.85 99.2947C213.057 99.0185 213.195 98.7423 213.402 98.5352L240.147 113.105C240.009 113.312 239.801 113.588 239.663 113.864Z" fill="#FCFCFC"/>
<path d="M240.147 113.036L213.403 98.4661C213.61 98.1899 213.748 97.9827 213.955 97.7065L240.7 112.276C240.562 112.552 240.354 112.829 240.147 113.036Z" fill="#FBFBFB"/>
<path d="M240.769 112.345L214.024 97.7756C214.232 97.5684 214.37 97.3613 214.577 97.1541L241.322 111.724C241.114 111.862 240.907 112.069 240.769 112.345Z" fill="#FBFBFB"/>
<path d="M241.253 111.655L214.508 97.0851C214.646 96.8779 214.854 96.7398 215.061 96.5327L241.805 111.102C241.598 111.31 241.46 111.517 241.253 111.655Z" fill="#FAFAFA"/>
<path d="M241.806 111.102L215.061 96.5327C215.199 96.3946 215.407 96.1874 215.545 96.0493L242.289 110.619C242.151 110.757 241.944 110.964 241.806 111.102Z" fill="#F9F9F9"/>
<path d="M242.289 110.619L215.545 96.0493C215.683 95.9112 215.89 95.7731 216.029 95.566L242.773 110.136C242.635 110.343 242.497 110.481 242.289 110.619Z" fill="#F9F9F9"/>
<path d="M242.842 110.205L216.098 95.635C216.236 95.4969 216.443 95.3588 216.581 95.2207L243.326 109.79C243.118 109.928 242.98 109.998 242.842 110.205Z" fill="#F8F8F8"/>
<path d="M243.326 109.79L216.581 95.2207C216.72 95.0826 216.927 94.9445 217.065 94.8755L243.81 109.445C243.671 109.514 243.464 109.652 243.326 109.79Z" fill="#F7F7F7"/>
<path d="M243.81 109.376L216.996 94.8064C217.134 94.6683 217.342 94.5993 217.48 94.4612L244.224 109.031C244.086 109.169 243.948 109.307 243.81 109.376Z" fill="#F6F6F6"/>
<path d="M244.293 109.031L217.549 94.4612C217.687 94.3231 217.894 94.254 218.033 94.185L244.777 108.755C244.57 108.893 244.432 108.962 244.293 109.031Z" fill="#F6F6F6"/>
<path d="M244.777 108.755L218.033 94.185C218.171 94.1159 218.309 93.9778 218.516 93.9088L245.261 108.478C245.053 108.547 244.915 108.686 244.777 108.755Z" fill="#F5F5F5"/>
<path d="M245.192 108.478L218.447 93.9088C218.586 93.8397 218.724 93.7707 218.931 93.6326L245.675 108.202C245.537 108.34 245.33 108.409 245.192 108.478Z" fill="#F4F4F4"/>
<path d="M245.675 108.271L218.931 93.7016C219.069 93.6326 219.208 93.5635 219.415 93.4944L246.159 108.064C245.952 108.133 245.814 108.202 245.675 108.271Z" fill="#F4F4F4"/>
<path d="M246.09 108.064L219.346 93.4945C219.484 93.4254 219.622 93.3564 219.829 93.2873L246.574 107.857C246.436 107.926 246.297 107.995 246.09 108.064Z" fill="#F3F3F3"/>
<path d="M246.574 107.857L219.76 93.2873C219.899 93.2183 220.037 93.1492 220.244 93.1492L246.989 107.719C246.85 107.719 246.712 107.788 246.574 107.857Z" fill="#F2F2F2"/>
<path d="M246.989 107.65L220.244 93.0801C220.382 93.0111 220.521 93.0111 220.728 92.9421L247.472 107.512C247.334 107.581 247.196 107.65 246.989 107.65Z" fill="#F1F1F1"/>
<path d="M247.472 107.512L220.728 92.9421C220.866 92.873 221.073 92.873 221.212 92.8039L247.956 107.374C247.818 107.443 247.61 107.512 247.472 107.512Z" fill="#F1F1F1"/>
<path d="M247.956 107.443L221.142 92.873C221.281 92.8039 221.488 92.8039 221.626 92.8039L248.371 107.374C248.302 107.374 248.094 107.374 247.956 107.443Z" fill="#F0F0F0"/>
<path d="M248.44 107.305L221.695 92.7349C221.764 92.7349 221.764 92.7349 221.834 92.7349C221.972 92.7349 222.11 92.7349 222.248 92.6658L248.993 107.236C248.854 107.236 248.716 107.236 248.578 107.305C248.509 107.305 248.509 107.305 248.44 107.305Z" fill="#EFEFEF"/>
<path d="M248.993 107.236L222.248 92.6658C222.456 92.6658 222.663 92.6658 222.87 92.6658L249.615 107.236C249.407 107.236 249.2 107.236 248.993 107.236Z" fill="#EFEFEF"/>
<path d="M249.615 107.236L222.87 92.6658C223.699 92.6658 224.529 92.873 225.22 93.2183L251.964 107.788C251.204 107.443 250.444 107.236 249.615 107.236Z" fill="#EEEEEE"/>
<path d="M295.571 89.0752L268.757 74.5746C268.619 74.0913 268.481 73.5388 268.273 73.0555L295.018 87.6252C295.225 88.1085 295.432 88.5919 295.571 89.0752Z" fill="#F8F8F8"/>
<path d="M295.087 87.6252L268.343 73.0555C267.859 71.5364 267.375 70.0863 266.822 68.6363L293.567 83.2059C294.119 84.656 294.603 86.106 295.087 87.6252Z" fill="#F7F7F7"/>
<path d="M293.567 83.2059L266.822 68.6363C266.339 67.2553 265.786 65.9433 265.233 64.6313L291.977 79.201C292.53 80.513 293.083 81.8249 293.567 83.2059Z" fill="#F6F6F6"/>
<path d="M291.977 79.201L265.233 64.6313C264.68 63.3884 264.127 62.1455 263.574 60.9026L290.319 75.4723C290.871 76.7152 291.424 77.889 291.977 79.201Z" fill="#F6F6F6"/>
<path d="M290.319 75.4723L263.574 60.9026C263.021 59.7287 262.399 58.5549 261.846 57.4501L288.591 72.0197C289.144 73.1246 289.766 74.2984 290.319 75.4723Z" fill="#F5F5F5"/>
<path d="M288.522 72.0198L261.777 57.4501C261.155 56.3453 260.533 55.2405 259.911 54.2047L286.656 68.7744C287.347 69.8101 287.969 70.9149 288.522 72.0198Z" fill="#F4F4F4"/>
<path d="M286.656 68.7053L259.912 54.1357C259.29 53.0999 258.598 52.0641 257.907 51.0284L284.721 65.598C285.412 66.6338 286.034 67.6696 286.656 68.7053Z" fill="#F4F4F4"/>
<path d="M284.721 65.598L257.976 51.0284C257.285 49.9926 256.594 49.0259 255.834 47.9901L282.579 62.5598C283.27 63.5956 284.03 64.5623 284.721 65.598Z" fill="#F3F3F3"/>
<path d="M282.579 62.6289L255.834 48.0592C255.074 47.0234 254.314 46.0567 253.485 45.09L280.229 59.6597C281.058 60.6264 281.818 61.5931 282.579 62.6289Z" fill="#F2F2F2"/>
<path d="M280.229 59.6597L253.485 45.09C252.655 44.1233 251.757 43.1566 250.928 42.1899L277.672 56.7596C278.501 57.6572 279.4 58.693 280.229 59.6597Z" fill="#F1F1F1"/>
<path d="M277.672 56.7596L250.858 42.1899C249.891 41.1541 248.923 40.1874 247.956 39.2898L274.7 53.8594C275.737 54.7571 276.704 55.7238 277.672 56.7596Z" fill="#F1F1F1"/>
<path d="M274.7 53.8594L247.956 39.2898C246.85 38.254 245.745 37.2873 244.57 36.3206L271.314 50.8903C272.489 51.7879 273.595 52.8237 274.7 53.8594Z" fill="#F0F0F0"/>
<path d="M271.314 50.8212L244.57 36.2515C243.188 35.1467 241.736 34.0419 240.216 33.0062L266.96 47.6449C268.481 48.6116 269.932 49.7164 271.314 50.8212Z" fill="#EFEFEF"/>
<path d="M266.96 47.6449L240.216 33.0752C238.35 31.8323 236.415 30.5894 234.411 29.4846L261.155 44.0543C263.16 45.1591 265.095 46.3329 266.96 47.6449Z" fill="#EFEFEF"/>
<path d="M217.549 15.6054L190.735 1.03577C192.878 0.759564 194.951 0.483362 197.024 0.345261L223.769 14.9149C221.764 15.053 219.622 15.3292 217.549 15.6054Z" fill="#EFEFEF"/>
<path d="M223.769 14.9149L197.024 0.345256C200.341 0.0690536 203.589 -0.0690475 206.837 3.04697e-06L233.582 14.5697C230.403 14.5006 227.155 14.6387 223.769 14.9149Z" fill="#EFEFEF"/>
<path d="M233.582 14.5697L206.837 0C220.866 0.207152 233.582 3.45253 244.846 9.59803L271.591 24.1677C260.326 18.0222 247.61 14.7768 233.582 14.5697Z" fill="#EEEEEE"/>
<path d="M73.3226 252.242L46.5781 237.672C51.6921 240.434 57.497 242.298 63.7167 242.989C66.6883 243.265 69.5908 243.472 72.4933 243.472L99.2377 258.042C96.3352 257.973 93.4327 257.835 90.4611 257.559C84.1724 256.868 78.4365 255.004 73.3226 252.242Z" fill="#EEEEEE"/>
<path d="M99.2377 258.042L72.4933 243.472C75.2576 243.541 78.0218 243.403 80.717 243.196L107.461 257.766C104.766 257.973 102.002 258.111 99.2377 258.042Z" fill="#EFEFEF"/>
<path d="M107.461 257.766L80.717 243.196C82.0992 243.058 83.5504 242.92 84.9325 242.713C85.3472 242.644 85.8309 242.575 86.2456 242.506L112.99 257.075C112.575 257.144 112.092 257.213 111.677 257.282C110.295 257.49 108.844 257.697 107.461 257.766Z" fill="#EFEFEF"/>
<path d="M112.99 257.144L86.2456 242.575C87.6968 242.367 89.1481 242.091 90.5993 241.746L117.344 256.316C115.892 256.592 114.441 256.868 112.99 257.144Z" fill="#F0F0F0"/>
<path d="M117.344 256.247L90.5993 241.677C91.8432 241.401 93.0872 241.055 94.262 240.71L121.006 255.28C119.832 255.694 118.588 255.97 117.344 256.247Z" fill="#F1F1F1"/>
<path d="M121.006 255.349L94.262 240.779C95.3677 240.503 96.4043 240.158 97.51 239.744L124.254 254.313C123.218 254.727 122.112 255.004 121.006 255.349Z" fill="#F1F1F1"/>
<path d="M124.254 254.313L97.51 239.744C98.4775 239.398 99.445 239.053 100.413 238.639L127.157 253.208C126.189 253.623 125.222 253.968 124.254 254.313Z" fill="#F2F2F2"/>
<path d="M127.157 253.277L100.413 238.708C101.311 238.363 102.209 237.948 103.108 237.534L129.852 252.104C129.023 252.518 128.124 252.863 127.157 253.277Z" fill="#F3F3F3"/>
<path d="M129.921 252.104L103.108 237.534C103.937 237.12 104.835 236.705 105.665 236.291L132.409 250.861C131.649 251.275 130.75 251.689 129.921 252.104Z" fill="#F4F4F4"/>
<path d="M132.478 250.861L105.734 236.291C106.563 235.877 107.392 235.462 108.222 234.979L134.966 249.549C134.137 250.032 133.307 250.446 132.478 250.861Z" fill="#F4F4F4"/>
<path d="M134.966 249.549L108.222 234.979C109.051 234.496 109.811 234.081 110.64 233.598L137.385 248.168C136.555 248.651 135.726 249.134 134.966 249.549Z" fill="#F5F5F5"/>
<path d="M137.385 248.168L110.571 233.598C111.331 233.115 112.161 232.631 112.921 232.079L139.665 246.649C138.905 247.201 138.145 247.684 137.385 248.168Z" fill="#F6F6F6"/>
<path d="M139.734 246.649L112.99 232.079C113.75 231.526 114.579 230.974 115.34 230.422L142.084 244.991C141.324 245.544 140.495 246.096 139.734 246.649Z" fill="#F6F6F6"/>
<path d="M142.084 244.991L115.34 230.422C116.169 229.869 116.929 229.248 117.758 228.626L144.503 243.196C143.674 243.818 142.913 244.37 142.084 244.991Z" fill="#F7F7F7"/>
<path d="M144.503 243.196L117.758 228.626C118.588 228.005 119.417 227.314 120.177 226.624L146.922 241.194C146.092 241.815 145.332 242.506 144.503 243.196Z" fill="#F8F8F8"/>
<path d="M146.922 241.125L120.177 226.555C121.006 225.795 121.905 225.036 122.734 224.276L149.479 238.846C148.649 239.605 147.751 240.434 146.922 241.125Z" fill="#F9F9F9"/>
<path d="M149.478 238.846L122.734 224.276C123.632 223.448 124.531 222.55 125.429 221.652L152.174 236.222C151.275 237.12 150.377 238.017 149.478 238.846Z" fill="#F9F9F9"/>
<path d="M152.174 236.222L125.429 221.652C126.397 220.686 127.364 219.65 128.332 218.545L155.076 233.115C154.109 234.15 153.141 235.186 152.174 236.222Z" fill="#FAFAFA"/>
<path d="M155.076 233.115L128.332 218.545C129.23 217.509 130.129 216.474 131.027 215.369C133.1 212.883 135.173 210.328 137.247 207.773L163.991 222.343C161.918 224.898 159.845 227.383 157.771 229.938C156.873 231.043 155.975 232.079 155.076 233.115Z" fill="#FBFBFB"/>
<path d="M164.06 222.343L137.316 207.773C146.714 196.173 155.836 184.296 164.613 172.281L191.357 186.851C182.581 198.866 173.459 210.742 164.06 222.343Z" fill="#FBFBFB"/>
<path d="M191.357 186.782L164.613 172.212C176.292 156.192 187.418 139.758 198.13 123.048L224.874 137.618C214.163 154.397 203.036 170.762 191.357 186.782Z" fill="#FCFCFC"/>
<path d="M224.805 137.618L198.061 123.048C202.484 116.074 206.837 109.1 211.191 101.988C211.675 101.159 212.435 100.054 212.919 99.2257L239.663 113.795C239.179 114.624 238.419 115.729 237.936 116.557C233.651 123.67 229.297 130.713 224.805 137.618Z" fill="#FDFDFD"/>
<path d="M110.157 114.141L83.4122 99.5709C85.6236 99.2947 87.7659 98.9494 89.9773 98.6732L116.722 113.243C114.51 113.519 112.368 113.795 110.157 114.141Z" fill="#EFEFEF"/>
<path d="M116.722 113.243L89.9774 98.6733C93.64 89.0752 96.3352 79.132 100.689 69.9482C101.518 68.291 102.348 66.6338 103.177 65.0456L129.921 79.6153C129.092 81.2035 128.263 82.8607 127.433 84.5179C123.08 93.6326 120.384 103.645 116.722 113.243Z" fill="#FEFEFE"/>
<path d="M129.99 79.5462L103.246 64.9766C105.181 61.3859 107.185 57.9334 109.258 54.619L136.003 69.1886C133.86 72.5721 131.856 76.0246 129.99 79.5462Z" fill="#FDFDFD"/>
<path d="M136.003 69.2577L109.189 54.6881C110.779 52.2713 112.368 49.8545 114.027 47.5758L140.84 62.1455C139.182 64.4242 137.592 66.7719 136.003 69.2577Z" fill="#FCFCFC"/>
<path d="M140.84 62.1455L114.027 47.5758C115.409 45.7115 116.791 43.8471 118.242 42.0518L145.056 56.6215C143.604 58.4168 142.222 60.2812 140.84 62.1455Z" fill="#FBFBFB"/>
<path d="M145.056 56.6215L118.311 42.0518C119.555 40.4636 120.868 38.9445 122.25 37.4254L148.995 51.9951C147.613 53.5142 146.369 55.0333 145.056 56.6215Z" fill="#FBFBFB"/>
<path d="M148.995 52.0641L122.25 37.4944C123.494 36.1134 124.669 34.8015 125.982 33.4895L152.727 48.0592C151.414 49.3711 150.17 50.6831 148.995 52.0641Z" fill="#FAFAFA"/>
<path d="M152.727 48.0592L125.982 33.4895C127.157 32.3157 128.332 31.0728 129.576 29.968L156.32 44.5376C155.076 45.7115 153.901 46.8853 152.727 48.0592Z" fill="#F9F9F9"/>
<path d="M156.32 44.5376L129.576 29.968C130.75 28.8631 131.925 27.8274 133.1 26.7916L159.845 41.3613C158.67 42.397 157.426 43.4328 156.32 44.5376Z" fill="#F9F9F9"/>
<path d="M159.845 41.3613L133.1 26.7916C134.275 25.8249 135.381 24.8582 136.625 23.8915L163.369 38.4612C162.125 39.4279 161.019 40.3255 159.845 41.3613Z" fill="#F8F8F8"/>
<path d="M163.3 38.4612L136.555 23.8915C137.73 22.9938 138.905 22.0962 140.08 21.1985L166.824 35.7682C165.65 36.6659 164.475 37.5635 163.3 38.4612Z" fill="#F7F7F7"/>
<path d="M166.824 35.7682L140.08 21.1985C141.255 20.3699 142.43 19.4723 143.673 18.7127L170.418 33.2824C169.243 34.111 168.068 34.9396 166.824 35.7682Z" fill="#F6F6F6"/>
<path d="M170.418 33.2824L143.673 18.7127C144.917 17.8841 146.092 17.1245 147.336 16.365L174.15 30.9347C172.906 31.6942 171.662 32.4538 170.418 33.2824Z" fill="#F6F6F6"/>
<path d="M174.15 30.9347L147.405 16.365C148.649 15.6054 149.893 14.8459 151.206 14.1554L177.951 28.725C176.638 29.4155 175.394 30.1751 174.15 30.9347Z" fill="#F5F5F5"/>
<path d="M177.951 28.656L151.206 14.0863C152.519 13.3268 153.832 12.6363 155.214 11.9458L181.959 26.5154C180.577 27.275 179.264 27.9655 177.951 28.656Z" fill="#F4F4F4"/>
<path d="M181.959 26.5845L155.214 12.0148C156.597 11.3243 158.048 10.6338 159.499 10.0123L186.243 24.582C184.723 25.2035 183.341 25.8249 181.959 26.5845Z" fill="#F4F4F4"/>
<path d="M186.174 24.513L159.43 9.94329C160.95 9.25278 162.471 8.63133 163.991 8.00987L190.735 22.5795C189.215 23.201 187.695 23.8915 186.174 24.513Z" fill="#F3F3F3"/>
<path d="M190.735 22.5795L163.991 8.00987C165.65 7.38842 167.308 6.76696 168.967 6.14551L195.711 20.7152C194.053 21.3366 192.394 21.9581 190.735 22.5795Z" fill="#F2F2F2"/>
<path d="M195.78 20.7842L168.967 6.21456C170.833 5.59311 172.629 5.0407 174.564 4.4883L201.309 19.058C199.443 19.5413 197.577 20.1628 195.78 20.7842Z" fill="#F1F1F1"/>
<path d="M201.309 19.058L174.564 4.4883C176.638 3.86684 178.78 3.38349 180.991 2.83109L207.736 17.4008C205.593 17.8841 203.451 18.4365 201.309 19.058Z" fill="#F1F1F1"/>
<path d="M207.736 17.4007L180.922 2.83107C183.41 2.27867 185.967 1.79532 188.524 1.38101L215.268 15.9507C212.781 16.365 210.224 16.8483 207.736 17.4007Z" fill="#F0F0F0"/>
<path d="M215.338 15.9507L188.593 1.38102C188.8 1.31197 189.008 1.31197 189.284 1.24292C189.768 1.17387 190.321 1.10482 190.804 1.03577L217.549 15.6054C217.065 15.6745 216.512 15.7435 216.029 15.8126C215.821 15.8816 215.545 15.8816 215.338 15.9507Z" fill="#EFEFEF"/>
<path d="M62.4727 271.369L35.6592 256.868C33.6551 255.763 31.651 254.52 29.716 253.208L56.4604 267.778C58.4645 269.09 60.3995 270.264 62.4727 271.369Z" fill="#EFEFEF"/>
<path d="M56.5295 267.778L29.716 253.208C28.1957 252.173 26.7444 251.068 25.2932 249.894L52.1067 264.464C53.5579 265.637 55.0092 266.742 56.5295 267.778Z" fill="#EFEFEF"/>
<path d="M52.1067 264.464L25.3623 249.894C24.1875 248.927 23.0126 247.891 21.8378 246.856L48.5822 261.425C49.7571 262.461 50.9319 263.497 52.1067 264.464Z" fill="#F0F0F0"/>
<path d="M48.5822 261.425L21.8378 246.856C20.8012 245.889 19.8337 244.922 18.8662 243.956L45.6106 258.525C46.6472 259.492 47.6147 260.459 48.5822 261.425Z" fill="#F1F1F1"/>
<path d="M45.6797 258.525L18.9353 243.956C18.0369 243.058 17.2077 242.091 16.3784 241.055L43.1228 255.625C43.9521 256.592 44.7814 257.559 45.6797 258.525Z" fill="#F1F1F1"/>
<path d="M43.1228 255.625L16.3784 241.055C15.6182 240.158 14.858 239.191 14.0978 238.155L40.8423 252.725C41.6024 253.761 42.3626 254.658 43.1228 255.625Z" fill="#F2F2F2"/>
<path d="M40.8423 252.725L14.0287 238.224C13.3377 237.327 12.7157 236.36 12.0246 235.462L38.8382 249.963C39.5292 250.93 40.1512 251.827 40.8423 252.725Z" fill="#F3F3F3"/>
<path d="M38.8381 249.963L12.0937 235.393C11.4718 234.496 10.8498 233.529 10.2969 232.562L37.0414 247.132C37.6633 248.099 38.2162 249.065 38.8381 249.963Z" fill="#F4F4F4"/>
<path d="M37.0414 247.132L10.297 232.562C9.74409 231.665 9.19124 230.698 8.70749 229.731L35.4519 244.301C36.0048 245.268 36.4885 246.234 37.0414 247.132Z" fill="#F4F4F4"/>
<path d="M35.4519 244.301L8.70749 229.731C8.22374 228.764 7.73999 227.867 7.25624 226.9L34.0007 241.47C34.4844 242.436 34.9682 243.403 35.4519 244.301Z" fill="#F5F5F5"/>
<path d="M34.0007 241.47L7.25624 226.9C6.77249 225.933 6.35785 224.967 5.94321 224L32.6876 238.57C33.1023 239.536 33.5169 240.503 34.0007 241.47Z" fill="#F6F6F6"/>
<path d="M32.6876 238.501L5.87409 224C5.45945 223.033 5.04481 221.998 4.69927 221.031L31.4437 235.601C31.8583 236.567 32.273 237.534 32.6876 238.501Z" fill="#F6F6F6"/>
<path d="M31.5128 235.531L4.69928 220.962C4.35374 219.926 3.9391 218.89 3.59357 217.855L30.4071 232.424C30.7526 233.46 31.0982 234.496 31.5128 235.531Z" fill="#F7F7F7"/>
<path d="M30.4071 232.424L3.66267 217.855C3.31713 216.819 2.9716 215.714 2.69517 214.609L29.4396 229.179C29.7851 230.284 30.0616 231.319 30.4071 232.424Z" fill="#F8F8F8"/>
<path d="M29.4396 229.179L2.69517 214.609C2.41875 213.504 2.14232 212.33 1.86589 211.157L28.6103 225.726C28.8867 226.9 29.1632 228.005 29.4396 229.179Z" fill="#F9F9F9"/>
<path d="M28.6103 225.726L1.86589 211.157C1.58946 209.983 1.38214 208.74 1.17482 207.566L27.9192 222.136C28.1266 223.309 28.3339 224.552 28.6103 225.726Z" fill="#F9F9F9"/>
<path d="M27.9192 222.067L1.10571 207.566C1.10571 207.428 1.0366 207.29 1.0366 207.221C0.829281 205.978 0.691067 204.804 0.552853 203.561L27.2973 218.131C27.4355 219.374 27.5737 220.547 27.781 221.79C27.8501 221.859 27.9192 221.998 27.9192 222.067Z" fill="#FAFAFA"/>
<path d="M27.3664 218.062L0.552856 203.492C0.414642 202.111 0.276428 200.73 0.207321 199.349L26.9517 213.919C27.0208 215.3 27.1591 216.681 27.3664 218.062Z" fill="#FBFBFB"/>
<path d="M26.9517 213.919L0.207321 199.349C0.069107 197.692 0.069107 195.965 0 194.308L26.7444 208.878C26.8135 210.535 26.8826 212.192 26.9517 213.919Z" fill="#FBFBFB"/>
<path d="M26.8135 208.878L0 194.308C0 192.375 0.069107 190.441 0.138214 188.508L26.9517 203.009C26.8135 204.942 26.7444 206.875 26.8135 208.878Z" fill="#FCFCFC"/>
<path d="M26.9517 203.009L0.138214 188.508C0.276428 186.022 0.552856 183.536 0.898391 181.051L27.6428 195.62C27.3664 198.037 27.09 200.523 26.9517 203.009Z" fill="#FDFDFD"/>
<path d="M27.7119 195.551L0.898388 181.051C2.48785 170.141 6.08141 159.645 11.1953 149.978L38.0089 164.478C32.8258 174.145 29.3014 184.71 27.7119 195.551Z" fill="#FEFEFE"/>
<path d="M38.0089 164.478L11.2644 149.909C12.5084 147.63 13.8214 145.351 15.2035 143.211L41.948 157.781C40.5658 159.921 39.2528 162.2 38.0089 164.478Z" fill="#FDFDFD"/>
<path d="M41.948 157.781L15.2035 143.211C16.3093 141.485 17.4841 139.758 18.6589 138.101L45.4033 152.671C44.2285 154.328 43.0537 156.054 41.948 157.781Z" fill="#FCFCFC"/>
<path d="M45.4033 152.671L18.6589 138.101C19.6955 136.651 20.7321 135.27 21.9069 133.889L48.6514 148.459C47.5456 149.84 46.4399 151.221 45.4033 152.671Z" fill="#FBFBFB"/>
<path d="M48.6513 148.459L21.8378 133.958C22.8744 132.715 23.911 131.472 25.0167 130.229L51.8303 144.799C50.7245 145.973 49.6879 147.216 48.6513 148.459Z" fill="#FBFBFB"/>
<path d="M51.8303 144.799L25.0858 130.229C26.1225 129.125 27.1591 128.02 28.1957 126.915L54.9401 141.485C53.8344 142.52 52.7978 143.625 51.8303 144.799Z" fill="#FAFAFA"/>
<path d="M54.9401 141.416L28.1957 126.846C29.1632 125.81 30.1998 124.843 31.2364 123.877L57.9808 138.446C56.9442 139.413 55.9076 140.449 54.9401 141.416Z" fill="#F9F9F9"/>
<path d="M57.9117 138.515L31.1673 123.946C32.2039 122.979 33.1714 122.081 34.2771 121.184L61.0215 135.753C59.9849 136.582 58.9483 137.549 57.9117 138.515Z" fill="#F9F9F9"/>
<path d="M61.0215 135.684L34.2771 121.115C35.2446 120.286 36.2812 119.388 37.3178 118.629L64.0622 133.199C63.0256 134.027 61.989 134.856 61.0215 135.684Z" fill="#F8F8F8"/>
<path d="M64.0622 133.199L37.3178 118.629C38.3544 117.8 39.391 117.041 40.4276 116.281L67.172 130.851C66.1354 131.61 65.0988 132.37 64.0622 133.199Z" fill="#F7F7F7"/>
<path d="M67.172 130.851L40.4276 116.281C41.4642 115.522 42.5008 114.831 43.5374 114.072L70.2818 128.641C69.2452 129.332 68.2086 130.091 67.172 130.851Z" fill="#F6F6F6"/>
<path d="M70.2818 128.641L43.5374 114.072C44.574 113.381 45.6797 112.691 46.7164 112L73.4608 126.57C72.4242 127.26 71.3185 127.951 70.2818 128.641Z" fill="#F6F6F6"/>
<path d="M73.4608 126.57L46.7163 112C47.8221 111.309 48.8587 110.688 49.9644 110.067L76.7088 124.636C75.6722 125.327 74.5665 125.948 73.4608 126.57Z" fill="#F5F5F5"/>
<path d="M76.7779 124.705L50.0335 110.136C51.1392 109.514 52.2449 108.893 53.4197 108.34L80.1642 122.91C78.9893 123.462 77.8836 124.084 76.7779 124.705Z" fill="#F4F4F4"/>
<path d="M80.1641 122.91L53.4197 108.34C54.5946 107.788 55.7694 107.166 56.9442 106.683L83.6886 121.253C82.4447 121.736 81.339 122.289 80.1641 122.91Z" fill="#F4F4F4"/>
<path d="M83.6886 121.184L56.9442 106.614C58.1881 106.062 59.3629 105.578 60.6069 105.026L87.3513 119.596C86.1074 120.148 84.8634 120.7 83.6886 121.184Z" fill="#F3F3F3"/>
<path d="M87.3513 119.665L60.6069 105.095C61.9199 104.612 63.1638 104.128 64.4769 103.645L91.2213 118.215C89.9082 118.698 88.6643 119.181 87.3513 119.665Z" fill="#F2F2F2"/>
<path d="M91.2213 118.215L64.4769 103.645C65.859 103.162 67.3102 102.747 68.6924 102.333L95.4368 116.903C94.0547 117.317 92.6034 117.731 91.2213 118.215Z" fill="#F1F1F1"/>
<path d="M95.4368 116.903L68.6924 102.333C70.2127 101.919 71.664 101.504 73.1843 101.159L99.9288 115.729C98.4775 116.074 96.9572 116.488 95.4368 116.903Z" fill="#F1F1F1"/>
<path d="M99.9979 115.729L73.2534 101.159C74.9811 100.745 76.7088 100.469 78.4365 100.192L105.181 114.762C103.453 115.038 101.726 115.383 99.9979 115.729Z" fill="#F0F0F0"/>
<path d="M105.181 114.762L78.4365 100.192C78.9202 100.123 79.404 100.054 79.8186 99.9852C80.9935 99.8471 82.1683 99.709 83.4122 99.5709L110.157 114.141C108.982 114.279 107.738 114.417 106.563 114.555C106.148 114.624 105.665 114.693 105.181 114.762Z" fill="#EFEFEF"/>
<path d="M217.549 15.6054C254.521 10.4266 283.546 24.4439 303.38 54.2047C305.937 58.1406 308.148 59.6597 312.156 59.0382C313.124 58.9001 314.161 58.693 315.266 58.2787C320.449 56.6215 325.563 55.4476 330.608 54.7571C373.178 48.7497 410.496 74.6437 419.341 118.284C426.805 155.295 407.04 202.456 374.215 226.21C356.938 238.708 338.21 246.925 318.307 252.449C328.535 245.475 338.763 238.984 348.23 231.596C364.747 218.959 378.43 203.423 388.381 184.641C406.902 149.771 404.276 114.348 381.263 91.1467C368.34 78.1652 348.714 72.8483 329.157 75.6104C319.413 76.9914 309.669 80.3749 300.823 85.8298C299.095 86.7966 297.437 87.8323 295.502 89.0752C288.038 64.4242 273.249 47.0925 249.684 39.0826C239.11 35.6301 228.26 34.5943 217.065 36.1825C211.813 36.9421 206.492 38.254 201.101 40.1184C160.743 54.3428 138.836 87.1418 134.62 137.687C127.088 136.72 119.832 134.994 112.022 135.063C109.88 135.063 107.738 135.27 105.596 135.546C78.5056 139.344 53.2815 164.478 48.3058 193.687C42.9155 225.726 61.0906 254.382 90.4611 257.559C97.7173 258.318 104.835 258.318 111.677 257.351C128.401 255.004 143.812 246.925 157.84 229.938C187.556 194.239 213.817 156.261 238.005 116.626C238.488 115.798 239.249 114.693 239.732 113.864C242.082 110.205 245.606 107.719 248.647 107.305C250.029 107.097 251.342 107.305 252.379 108.064C256.733 111.24 256.249 115.867 253.83 120.977C242.842 142.935 231.647 164.686 220.659 186.644C219.415 189.06 218.24 191.546 217.964 194.308C226.256 184.089 234.273 173.593 242.773 163.857C247.403 158.678 252.517 153.637 258.115 149.356C261.639 146.594 265.164 145.075 268.343 144.661C276.359 143.556 282.44 149.218 282.648 159.783C282.855 173.869 280.644 188.025 275.253 201.904C272.074 209.914 268.895 218.2 265.716 226.21C266.2 226.417 266.684 226.555 266.96 226.762C272.074 219.512 277.188 212.192 282.302 205.218C286.932 199.004 291.079 192.375 295.916 186.436C299.233 182.293 303.172 178.979 307.734 178.358C309.185 178.15 310.636 178.219 312.226 178.565C318.514 179.946 319.966 185.263 320.449 191.546C320.933 197.001 321.624 202.732 322.384 208.187C323.283 214.954 326.6 218.338 331.852 217.578C333.51 217.371 335.376 216.681 337.38 215.645C345.397 211.502 353.206 206.392 361.222 201.697C361.499 202.18 361.983 202.318 362.19 202.801C353.413 210.328 345.12 218.545 335.929 225.381C331.99 228.212 328.189 229.8 324.803 230.284C316.096 231.526 309.738 225.312 308.77 213.297C308.286 208.326 307.803 203.63 306.835 196.656C302.689 202.525 299.786 206.944 296.331 211.226C285.619 225.588 274.631 239.744 263.712 253.83C262.261 255.832 260.326 257.075 258.115 258.387C256.387 259.423 254.728 260.044 253.139 260.321C247.887 261.08 243.602 257.49 243.81 251.068C244.086 244.991 245.261 238.777 247.265 232.977C251.204 221.1 255.834 209.085 260.188 197.139C264.127 186.022 266.062 174.629 265.578 161.371C260.257 166.895 255.627 170.831 251.964 175.665C235.171 197.416 218.862 219.374 202.276 241.332C198.614 246.096 195.227 250.861 191.565 255.694C190.113 257.42 188.662 259.63 186.934 260.39C184.723 261.218 182.166 262.254 179.816 262.599C178.78 262.737 177.812 262.737 176.983 262.599C172.629 261.978 172.353 257.213 173.873 253.485C176.568 245.82 179.747 238.57 182.926 231.043C183.686 229.179 184.861 227.729 184.861 224.967C183.134 226.693 181.682 228.419 180.024 230.215C169.589 243.058 158.324 255.211 144.71 264.671C132.824 272.75 120.246 277.514 107.807 279.24C70.2818 284.488 34.5535 262.047 27.8501 221.721C19.9028 172.143 57.5661 121.46 106.563 114.555C107.738 114.417 108.913 114.279 110.157 114.141C112.368 113.864 114.51 113.519 116.722 113.243C120.384 103.645 123.08 93.7016 127.433 84.5179C146.438 45.7805 176.361 21.9581 215.959 15.8816C216.512 15.7435 216.996 15.6745 217.549 15.6054Z" fill="#F0F0F0"/>
</g>
<defs>
<clipPath id="clip0_30_1359">
<rect width="421" height="280" fill="white"/>
</clipPath>
</defs>
</svg>
