<svg width="320" height="434" viewBox="0 0 320 434" fill="none" xmlns="http://www.w3.org/2000/svg">
<g filter="url(#filter0_d_49_164)">
<path d="M106.749 99.9521L106.66 121.578C100.209 117.87 93.7584 114.163 87.3075 110.456L87.3959 88.8304C93.8468 92.5376 100.298 96.2448 106.749 99.9521Z" fill="#CF2145"/>
<path d="M135.999 131.905L135.91 153.53C135.91 152.736 135.733 151.853 135.468 150.882C133.082 143.998 127.073 138.084 120.446 132.435C116.116 128.727 111.255 125.197 106.66 121.666L106.749 100.04C111.344 103.659 116.116 107.19 120.534 110.809C127.25 116.458 133.171 122.46 135.557 129.257C135.822 130.228 135.999 131.022 135.999 131.905Z" fill="#CF2145"/>
<path d="M135.999 131.905L135.91 153.53C135.91 152.736 135.733 151.853 135.468 150.882C133.082 143.998 127.073 138.084 120.446 132.435C116.116 128.727 111.255 125.197 106.66 121.666L106.749 100.04C111.344 103.659 116.116 107.19 120.534 110.809C127.25 116.458 133.171 122.46 135.557 129.257C135.822 130.228 135.999 131.022 135.999 131.905Z" fill="#CF2145"/>
<path d="M135.999 131.905L135.91 153.53C135.91 152.736 135.733 151.853 135.468 150.882C133.082 143.998 127.073 138.084 120.446 132.435C116.116 128.727 111.255 125.197 106.66 121.666L106.749 100.04C111.344 103.659 116.116 107.19 120.534 110.809C127.25 116.458 133.171 122.46 135.557 129.257C135.822 130.228 135.999 131.022 135.999 131.905Z" fill="#CF2145"/>
<path d="M87.3959 88.8304L87.3075 110.456C82.4472 108.426 77.7637 106.131 72.7267 104.189L72.8151 82.5634C77.8521 84.5052 82.5356 86.8002 87.3959 88.8304Z" fill="#CF2145"/>
<path d="M72.9034 82.5633L72.815 104.189C71.4011 103.659 69.9872 103.13 68.485 102.6C63.2712 100.835 57.9691 99.1576 52.5786 97.5688L52.667 75.9433C58.0575 77.4438 63.3596 79.2092 68.5733 80.9745C70.0756 81.5041 71.4895 82.0337 72.9034 82.5633Z" fill="#D12246"/>
<path d="M52.667 75.9433L52.5786 97.5688C48.7788 96.5096 44.9789 95.5387 41.0907 94.656C40.8256 94.5677 40.4721 94.5677 40.207 94.4795L40.2954 72.8539C40.5605 72.9422 40.8256 72.9422 41.1791 73.0304C45.0673 73.9131 48.8672 74.8841 52.667 75.9433Z" fill="#D22246"/>
<path d="M40.2953 72.8539L40.207 94.4795C38.8814 94.2147 37.5559 93.9499 36.4071 93.7733L36.4955 72.1478C37.6443 72.4126 38.9698 72.5891 40.2953 72.8539Z" fill="#D42247"/>
<path d="M36.4955 72.236L36.4071 93.8616C35.6118 93.7733 34.8165 93.6851 34.1096 93.5968L34.1979 71.9712C34.9049 71.9712 35.7002 72.0595 36.4955 72.236Z" fill="#D52247"/>
<path d="M34.198 71.9712L34.1096 93.5968C33.491 93.5085 32.9608 93.5085 32.3422 93.5085L32.4306 71.883C33.0492 71.883 33.5794 71.883 34.198 71.9712Z" fill="#D62348"/>
<path d="M32.4306 71.883L32.3422 93.5085C31.812 93.5085 31.3702 93.5085 30.84 93.5085L30.9283 71.883C31.4585 71.883 31.9888 71.883 32.4306 71.883Z" fill="#D82348"/>
<path d="M31.0167 71.883L30.9283 93.5085C30.4864 93.5085 29.9562 93.5968 29.5144 93.5968L29.6028 71.9712C30.0446 71.883 30.5748 71.883 31.0167 71.883Z" fill="#D92349"/>
<path d="M29.6028 71.9712L29.5144 93.5968C28.9842 93.6851 28.5424 93.6851 28.0121 93.7733L28.1005 72.1478C28.6307 72.0595 29.0726 71.9712 29.6028 71.9712Z" fill="#DB2349"/>
<path d="M28.1005 72.1478L28.0122 93.7733C27.2169 93.9499 26.5099 94.1264 25.7146 94.3029L25.803 72.6774C26.5983 72.5008 27.3052 72.3243 28.1005 72.1478Z" fill="#DC234A"/>
<path d="M25.8913 72.7656L25.8029 94.3912C24.3007 94.9208 22.7984 95.6269 21.2078 96.5096L21.2961 74.884C22.7984 73.9131 24.3007 73.207 25.8913 72.7656Z" fill="#DE244A"/>
<path d="M21.2962 74.8841L21.2078 96.5096C20.059 97.2158 18.9102 98.0102 17.6731 98.9811C-6.18647 117.076 -29.8693 135.259 -53.7288 153.354C-53.9939 153.619 -54.259 153.795 -54.5241 154.06L-54.4357 132.435C-54.1706 132.17 -53.9055 131.993 -53.6404 131.728C-29.7809 113.634 -6.0981 95.4504 17.7614 77.3556C18.9986 76.3846 20.1474 75.5019 21.2962 74.8841Z" fill="#DC234A"/>
<path d="M127.957 131.64L127.869 153.266C127.869 152.295 127.604 151.324 127.25 150.529C126.101 147.881 124.334 145.145 122.036 142.762C113.641 133.847 103.567 125.991 91.6375 119.106C84.1262 114.781 75.9079 110.897 66.9827 107.367L67.071 85.741C75.9963 89.2717 84.2146 93.1555 91.7259 97.4806C103.656 104.365 113.73 112.221 122.125 121.136C124.422 123.608 126.19 126.256 127.338 128.904C127.692 129.698 127.957 130.757 127.957 131.64Z" fill="#DADADA"/>
<path d="M67.071 85.6527L66.9826 107.278C61.5922 105.16 55.9366 103.218 50.0159 101.364C49.6624 101.276 49.2205 101.1 48.8671 101.011L48.9554 79.3857C49.3089 79.474 49.7508 79.6505 50.1042 79.7388C56.0249 81.5924 61.6805 83.5343 67.071 85.6527Z" fill="#DCDCDC"/>
<path d="M48.9554 79.474L48.8671 101.1C47.0997 100.57 45.3324 100.129 43.4766 99.7756L43.565 78.15C45.4207 78.5031 47.1881 78.9444 48.9554 79.474Z" fill="#DDDDDD"/>
<path d="M43.565 78.15L43.4766 99.7755C40.8256 99.2459 38.1745 98.8046 35.5234 98.4515L35.6118 76.826C38.2629 77.179 40.9139 77.6204 43.565 78.15Z" fill="#DFDFDF"/>
<path d="M35.5234 76.7377L35.4351 98.3633C34.8165 98.275 34.1095 98.1867 33.491 98.0985C33.1375 98.0102 32.784 98.0102 32.4305 98.0102L32.5189 76.3846C32.8724 76.3846 33.2258 76.4729 33.5793 76.4729C34.2863 76.5612 34.9049 76.6494 35.5234 76.7377Z" fill="#E0E0E0"/>
<path d="M32.5189 76.3846V98.0102C32.1654 98.0102 31.812 97.9219 31.5469 97.9219L31.6352 76.2964C31.9003 76.2964 32.1654 76.3846 32.5189 76.3846Z" fill="#E2E2E2"/>
<path d="M31.5469 76.2964L31.4585 97.9219C31.1934 97.9219 30.9283 97.9219 30.6632 97.9219L30.7516 76.2964C31.0167 76.2964 31.2818 76.2964 31.5469 76.2964Z" fill="#E3E3E3"/>
<path d="M30.7516 76.2964L30.6632 97.9219C30.3981 97.9219 30.2214 97.9219 30.0446 97.9219L30.133 76.2964C30.3097 76.3846 30.5748 76.2964 30.7516 76.2964Z" fill="#E5E5E5"/>
<path d="M30.133 76.3846L30.0446 98.0102C29.8679 98.0102 29.6028 98.0985 29.426 98.0985L29.5144 76.4729C29.6911 76.3846 29.9562 76.3846 30.133 76.3846Z" fill="#E7E7E7"/>
<path d="M29.5144 76.4729L29.426 98.0102C29.1609 98.0985 28.8958 98.0985 28.7191 98.1867L28.8074 76.5612C28.9842 76.5612 29.2493 76.4729 29.5144 76.4729Z" fill="#E8E8E8"/>
<path d="M28.8075 76.6494L28.7191 98.275C28.454 98.3633 28.1889 98.4515 28.0121 98.6281L28.1005 77.0025C28.2772 76.826 28.5423 76.7377 28.8075 76.6494Z" fill="#EAEAEA"/>
<path d="M28.1005 76.9142L28.0121 98.5398C27.8354 98.628 27.747 98.7163 27.5703 98.8928L27.6586 77.2673C27.8353 77.179 27.9237 77.0025 28.1005 76.9142Z" fill="#E8E8E8"/>
<path d="M27.6586 77.2673L27.5703 98.8929C27.4819 98.9811 27.3935 99.0694 27.3052 99.1577L27.3935 77.5321C27.4819 77.4438 27.5703 77.3556 27.6586 77.2673Z" fill="#E7E7E7"/>
<path d="M27.4819 77.5321L27.3935 99.1577C27.3052 99.2459 27.3052 99.3342 27.2168 99.4225L27.3052 77.7969C27.3052 77.6204 27.3935 77.6204 27.4819 77.5321Z" fill="#E5E5E5"/>
<path d="M27.3052 77.7086L27.2168 99.3342C27.1285 99.4225 27.1285 99.5108 27.1285 99.599L27.2168 77.9735C27.2168 77.8852 27.2168 77.7969 27.3052 77.7086Z" fill="#E3E3E3"/>
<path d="M27.1285 78.0617L27.0401 99.6873C27.0401 99.7755 26.9517 99.8638 26.9517 100.04L27.0401 78.4148C27.0401 78.2382 27.1285 78.15 27.1285 78.0617Z" fill="#E2E2E2"/>
<path d="M27.0401 78.3265L26.9517 99.9521C26.9517 100.04 26.9517 100.217 26.8633 100.393L26.9517 78.7678C27.0401 78.5913 27.0401 78.503 27.0401 78.3265Z" fill="#E0E0E0"/>
<path d="M27.0401 78.7679L26.9517 100.393V100.482L27.0401 78.7679Z" fill="#DFDFDF"/>
<path d="M64.6851 113.016L64.5968 134.641C51.7833 126.432 39.5001 118.223 31.1051 108.249C29.4261 106.307 28.1005 104.189 27.3052 102.071C27.1285 101.541 26.9517 101.011 26.9517 100.57L27.0401 78.9444C27.0401 79.3857 27.1285 79.9153 27.3936 80.4449C28.1889 82.5634 29.5144 84.6818 31.1934 86.6237C39.5001 96.5096 51.8717 104.807 64.6851 113.016Z" fill="#CF2145"/>
<path d="M19.7055 83.5343L19.6171 105.16C18.9985 105.513 18.2916 105.866 17.673 106.219L17.7613 84.5935C18.3799 84.2404 19.0869 83.9756 19.7055 83.5343Z" fill="#EAEAEA"/>
<path d="M17.7614 84.6818L17.673 106.307C17.4079 106.484 17.1428 106.572 16.9661 106.749C-3.44708 122.196 -23.5068 137.819 -44.3618 153.089C-44.9803 153.531 -45.5105 153.972 -45.9524 154.413L-45.864 132.788C-45.4222 132.346 -44.892 131.905 -44.2734 131.464C-23.5068 116.193 -3.35872 100.57 17.0544 85.1231C17.2312 84.9466 17.4963 84.7701 17.7614 84.6818Z" fill="#E8E8E8"/>
<path d="M93.6701 126.521L93.5817 148.146C93.2282 147.97 92.8748 147.881 92.5213 147.705C82.7124 143.733 73.7871 138.966 64.5084 134.641L64.5968 113.016C73.8755 117.429 82.8008 122.107 92.6097 126.079C92.9632 126.256 93.3166 126.344 93.6701 126.521Z" fill="#CF2145"/>
<path d="M127.957 131.64L127.869 153.266V153.354L127.957 131.728C127.957 131.728 127.957 131.728 127.957 131.64Z" fill="#D42247"/>
<path d="M127.957 131.817L127.869 153.442C127.869 153.707 127.869 153.884 127.78 154.148L127.869 132.523C127.957 132.258 127.957 131.993 127.957 131.817Z" fill="#D52247"/>
<path d="M127.869 132.435L127.78 154.06C127.78 154.237 127.692 154.413 127.692 154.501L127.78 132.876C127.78 132.788 127.869 132.611 127.869 132.435Z" fill="#D62348"/>
<path d="M127.78 132.964L127.692 154.59C127.604 154.678 127.604 154.855 127.515 154.943L127.604 133.317C127.692 133.141 127.692 133.052 127.78 132.964Z" fill="#D82348"/>
<path d="M127.604 133.229L127.515 154.855C127.427 154.943 127.427 155.031 127.338 155.119L127.427 133.494C127.515 133.494 127.515 133.406 127.604 133.229Z" fill="#D92349"/>
<path d="M127.427 133.582L127.339 155.208C127.25 155.296 127.162 155.384 127.162 155.472L127.25 133.847C127.25 133.67 127.339 133.67 127.427 133.582Z" fill="#DB2349"/>
<path d="M127.162 133.759L127.073 155.384C126.985 155.472 126.897 155.561 126.72 155.649L126.808 134.023C126.985 133.935 127.073 133.847 127.162 133.759Z" fill="#DC234A"/>
<path d="M126.897 134.023L126.808 155.649C126.632 155.737 126.455 155.826 126.278 155.914L126.366 134.288C126.455 134.2 126.632 134.112 126.897 134.023C126.808 134.023 126.808 134.023 126.897 134.023Z" fill="#DE244A"/>
<path d="M126.278 134.288L126.19 155.914C125.925 156.002 125.66 156.09 125.394 156.09L125.483 134.465C125.748 134.465 126.013 134.376 126.278 134.288Z" fill="#DC234A"/>
<path d="M125.483 134.465L125.394 156.09C125.129 156.179 124.864 156.179 124.511 156.179L124.599 134.553C124.953 134.553 125.218 134.553 125.483 134.465Z" fill="#DB2349"/>
<path d="M124.687 134.641L124.599 156.267C124.246 156.267 123.892 156.355 123.539 156.355L123.627 134.73C123.98 134.641 124.334 134.641 124.687 134.641Z" fill="#D92349"/>
<path d="M123.627 134.641L123.539 156.267C123.097 156.267 122.743 156.267 122.302 156.267L122.39 134.641C122.743 134.641 123.185 134.641 123.627 134.641Z" fill="#D82348"/>
<path d="M122.39 134.641L122.301 156.267C121.86 156.267 121.418 156.267 120.976 156.179L121.064 134.553C121.418 134.641 121.948 134.641 122.39 134.641Z" fill="#D62348"/>
<path d="M120.976 134.553L120.888 156.179C120.446 156.179 120.004 156.09 119.65 156.002L119.739 134.376C120.181 134.553 120.534 134.553 120.976 134.553Z" fill="#D52247"/>
<path d="M119.739 134.465L119.65 156.09C119.297 156.002 118.943 156.002 118.59 155.914L118.678 134.288C119.032 134.376 119.385 134.376 119.739 134.465Z" fill="#D42247"/>
<path d="M118.678 134.288L118.59 155.914C118.325 155.825 118.06 155.825 117.883 155.737C115.586 155.119 113.288 154.501 110.99 153.795L111.079 132.17C113.376 132.788 115.674 133.494 117.971 134.112C118.237 134.2 118.413 134.2 118.678 134.288Z" fill="#D22246"/>
<path d="M111.079 132.17L110.99 153.795C104.981 152.118 99.0605 150.265 93.5817 148.146L93.67 126.521C99.1489 128.639 105.07 130.493 111.079 132.17Z" fill="#D12246"/>
<path d="M93.6701 126.521L93.5817 148.146C93.2282 147.97 92.8748 147.881 92.5213 147.705C82.7124 143.733 73.7871 138.966 64.5084 134.641L64.5968 113.016C73.8755 117.429 82.8008 122.107 92.6097 126.079C92.9632 126.256 93.3166 126.344 93.6701 126.521Z" fill="#CF2145"/>
<path d="M116.204 139.231L116.116 160.857C106.572 158.12 97.6467 155.119 89.1633 151.765L89.2516 130.14C97.6466 133.494 106.66 136.495 116.204 139.231Z" fill="#DCDCDC"/>
<path d="M89.2516 130.14L89.1632 151.765C78.4706 147.528 68.5733 142.85 59.6481 137.642C43.565 128.374 30.3097 117.606 19.6171 105.16L19.7055 83.5343C30.3981 95.98 43.6534 106.749 59.7365 116.017C68.6617 121.225 78.559 125.903 89.2516 130.14Z" fill="#DADADA"/>
<path d="M29.2493 111.427L29.161 133.052C29.161 132.346 28.8075 131.817 28.1889 131.375C28.1005 131.287 27.9238 131.199 27.7471 131.199L27.8354 109.573C28.0122 109.662 28.1005 109.662 28.2773 109.75C28.8959 110.191 29.2493 110.721 29.2493 111.427Z" fill="#CF2145"/>
<path d="M27.8354 109.573L27.747 131.199C27.6587 131.111 27.4819 131.111 27.3936 131.111L27.4819 109.485C27.5703 109.485 27.747 109.573 27.8354 109.573Z" fill="#D12246"/>
<path d="M27.4819 109.485L27.3935 131.111C27.3051 131.111 27.1284 131.022 27.04 131.022L27.1284 109.397C27.2168 109.397 27.3935 109.397 27.4819 109.485Z" fill="#D22246"/>
<path d="M27.1284 109.397L27.0401 131.022C26.9517 131.022 26.775 130.934 26.6866 130.934L26.7749 109.308C26.8633 109.308 26.9517 109.397 27.1284 109.397Z" fill="#D42247"/>
<path d="M26.6866 109.308L26.5982 130.934C26.4215 130.934 26.3331 130.934 26.1564 130.846L26.2447 109.22C26.4215 109.308 26.5982 109.308 26.6866 109.308Z" fill="#D52247"/>
<path d="M26.3331 109.308L26.2448 130.934C26.068 130.934 25.8913 130.934 25.7145 130.934L25.8029 109.308C25.9796 109.22 26.1564 109.22 26.3331 109.308Z" fill="#D62348"/>
<path d="M25.8029 109.22L25.7146 130.846C25.5378 130.846 25.2727 130.846 25.096 130.846L25.1844 109.22C25.3611 109.22 25.5378 109.22 25.8029 109.22Z" fill="#D82348"/>
<path d="M25.096 109.22L25.0076 130.846C24.7425 130.846 24.389 130.846 24.1239 130.934L24.2123 109.308C24.4774 109.308 24.8309 109.22 25.096 109.22Z" fill="#D92349"/>
<path d="M24.2123 109.308L24.1239 130.934C23.9472 130.934 23.6821 131.022 23.5053 131.022C13.5197 132.435 3.62239 133.847 -6.27489 135.347C-6.45163 135.347 -6.54 135.436 -6.71674 135.436L-6.62838 113.81C-6.45164 113.81 -6.36327 113.722 -6.18653 113.722C3.71075 112.221 13.6964 110.809 23.5937 109.397C23.7704 109.308 23.9472 109.308 24.2123 109.308Z" fill="#DB2349"/>
<path d="M20.3241 114.428L20.2357 136.054C13.5197 137.024 7.77573 137.819 1.32483 138.79L1.4132 117.164C7.86411 116.282 13.6081 115.399 20.3241 114.428Z" fill="#E7E7E7"/>
<path d="M20.3241 114.428L20.2357 136.054C18.5567 139.849 17.1428 143.203 15.5522 146.91L15.6406 125.285C17.2312 121.578 18.6451 118.312 20.3241 114.428Z" fill="#D82348"/>
<path d="M41.1791 120.165L41.0907 141.791C40.7372 141.967 40.3838 142.232 40.1187 142.497L40.207 120.872C40.5605 120.607 40.8256 120.342 41.1791 120.165Z" fill="#DC234A"/>
<path d="M40.207 120.872L40.1187 142.497C39.9419 142.674 39.8535 142.762 39.6768 142.938L39.5884 143.027L39.6768 121.401L39.7652 121.313C39.9419 121.136 40.1186 121.048 40.207 120.872Z" fill="#DB2349"/>
<path d="M40.207 120.871L40.1187 142.497C39.9419 142.674 39.8535 142.762 39.6768 142.938L39.5884 143.027L39.6768 121.401L39.7652 121.313C39.9419 121.136 40.1186 121.048 40.207 120.871Z" fill="#DB2349"/>
<path d="M39.7652 121.401L39.6768 143.027C39.5001 143.203 39.4117 143.38 39.3233 143.556L39.4117 121.931C39.5 121.754 39.5884 121.578 39.7652 121.401Z" fill="#D92349"/>
<path d="M39.4117 121.931L39.3233 143.556C39.235 143.733 39.1466 143.909 39.1466 143.998L39.235 122.372C39.235 122.284 39.3234 122.107 39.4117 121.931Z" fill="#D82348"/>
<path d="M39.1466 122.46L39.0582 144.086C38.9699 144.262 38.9698 144.351 38.9698 144.527L39.0582 122.902C39.0582 122.725 39.0582 122.549 39.1466 122.46Z" fill="#D62348"/>
<path d="M39.0582 122.902L38.9698 144.527C38.9698 144.704 38.9698 144.792 38.8815 144.969L38.9698 123.343C38.9698 123.166 38.9699 122.99 39.0582 122.902Z" fill="#D52247"/>
<path d="M38.9698 123.255L38.8815 144.88C38.8815 144.88 38.8815 144.88 38.8815 144.969L38.9698 123.255C38.9698 123.255 38.9698 123.343 38.9698 123.255Z" fill="#D42247"/>
<path d="M54.9646 123.431L54.8762 145.057C54.8762 143.733 54.1692 142.585 52.667 141.791C52.3135 141.614 51.96 141.438 51.5182 141.261L51.6066 119.636C52.0484 119.812 52.4019 119.989 52.7554 120.165C54.2576 120.96 54.9646 122.107 54.9646 123.431Z" fill="#CF2145"/>
<path d="M51.6066 119.547L51.5182 141.173C51.1647 141.085 50.8112 140.908 50.4578 140.82L50.5461 119.194C50.8996 119.283 51.2531 119.459 51.6066 119.547Z" fill="#D12246"/>
<path d="M50.5461 119.194L50.4577 140.82C50.3694 140.82 50.281 140.732 50.1926 140.732C50.0159 140.643 49.8392 140.643 49.6624 140.555L49.7508 118.93C49.9275 118.93 50.1043 119.018 50.281 119.106C50.3694 119.106 50.4577 119.194 50.5461 119.194Z" fill="#D22246"/>
<path d="M49.6624 119.018L49.574 140.643C49.3089 140.555 49.0438 140.555 48.7787 140.467L48.8671 118.841C49.1322 118.93 49.3973 118.93 49.6624 119.018Z" fill="#D42247"/>
<path d="M48.9555 118.841L48.8671 140.467C48.602 140.467 48.3369 140.379 48.0718 140.379L48.1602 118.753C48.4253 118.753 48.6904 118.841 48.9555 118.841Z" fill="#D52247"/>
<path d="M48.1602 118.753L48.0718 140.379C47.8067 140.379 47.5416 140.379 47.2765 140.379L47.3649 118.753C47.63 118.753 47.8951 118.753 48.1602 118.753Z" fill="#D62348"/>
<path d="M47.3649 118.753L47.2765 140.379C47.0114 140.379 46.7463 140.379 46.4812 140.379L46.5696 118.753C46.8347 118.753 47.0998 118.753 47.3649 118.753Z" fill="#D82348"/>
<path d="M46.5695 118.753L46.4812 140.379C46.2161 140.379 45.8626 140.379 45.5975 140.467L45.6858 118.841C45.951 118.753 46.3044 118.753 46.5695 118.753Z" fill="#D92349"/>
<path d="M45.6859 118.753L45.5975 140.379C45.244 140.379 44.8905 140.467 44.537 140.555L44.6254 118.93C44.9789 118.841 45.3324 118.841 45.6859 118.753Z" fill="#DB2349"/>
<path d="M44.6254 118.93L44.5371 140.555C44.0068 140.643 43.4766 140.82 43.0348 140.908L43.1232 119.283C43.565 119.194 44.0952 119.018 44.6254 118.93Z" fill="#DC234A"/>
<path d="M43.1231 119.283L43.0348 140.908C42.3278 141.173 41.7092 141.438 41.179 141.791L41.2674 120.165C41.7976 119.812 42.4162 119.547 43.1231 119.283Z" fill="#DE244A"/>
<path d="M41.1791 120.165L41.0907 141.791C40.7372 141.967 40.3838 142.232 40.1187 142.497L40.207 120.871C40.5605 120.607 40.8256 120.342 41.1791 120.165Z" fill="#DC234A"/>
<path d="M15.6406 125.373L15.5522 146.999C10.6035 144.174 6.36184 141.703 1.32483 138.79L1.4132 117.164C6.45021 120.077 10.6919 122.549 15.6406 125.373Z" fill="#CF2145"/>
<path d="M20.3241 114.428L20.2357 136.054C18.5567 139.849 17.1428 143.203 15.5522 146.91L15.6406 125.285C17.2312 121.578 18.6451 118.312 20.3241 114.428Z" fill="#D82348"/>
<path d="M54.9646 123.431L54.8762 145.057V145.145L54.9646 123.52C54.9646 123.431 54.9646 123.431 54.9646 123.431Z" fill="#DFDFDF"/>
<path d="M54.9645 123.52L54.8761 145.145C54.8761 145.322 54.8761 145.586 54.7878 145.763L54.8761 124.137C54.9645 123.873 54.9645 123.696 54.9645 123.52Z" fill="#E0E0E0"/>
<path d="M54.8762 124.137V145.675C54.7878 145.939 54.7878 146.116 54.6995 146.381L54.7878 124.755C54.7878 124.579 54.8762 124.314 54.8762 124.137Z" fill="#E2E2E2"/>
<path d="M54.6995 124.844L54.6111 146.469C54.5227 146.646 54.4344 146.822 54.346 146.999C54.2576 147.175 54.1693 147.264 54.1693 147.44L54.2576 125.814C54.346 125.638 54.346 125.55 54.4344 125.373C54.5227 125.197 54.6111 125.02 54.6995 124.844Z" fill="#E3E3E3"/>
<path d="M54.2577 125.726L54.1693 147.352C54.0809 147.528 53.9926 147.793 53.9926 147.97L54.0809 126.344C54.1693 126.168 54.1693 125.991 54.2577 125.726Z" fill="#E2E2E2"/>
<path d="M54.0809 126.432L53.9925 148.058C53.9925 148.234 53.9041 148.411 53.9041 148.676L53.9925 127.05C53.9925 126.785 54.0809 126.609 54.0809 126.432Z" fill="#E0E0E0"/>
<path d="M53.9925 127.05L53.9041 148.676V148.764L53.9925 127.05Z" fill="#DFDFDF"/>
<path d="M21.738 129.61L21.6496 151.236C21.5613 151.412 21.4729 151.5 21.4729 151.677L21.5613 130.051C21.5613 129.963 21.6496 129.787 21.738 129.61Z" fill="#E3E3E3"/>
<path d="M21.4729 130.051L21.3845 151.677C21.2961 151.853 21.1194 152.118 21.031 152.295L21.1194 130.669C21.2961 130.493 21.3845 130.316 21.4729 130.051Z" fill="#E5E5E5"/>
<path d="M21.1195 130.669L21.0311 152.295C20.8543 152.471 20.766 152.648 20.5892 152.736L20.6776 131.111C20.8543 131.022 20.9427 130.846 21.1195 130.669Z" fill="#E7E7E7"/>
<path d="M20.6775 131.111L20.5892 152.736C20.4124 152.913 20.1473 153.089 19.9706 153.177L20.059 131.552C20.2357 131.464 20.5008 131.287 20.6775 131.111Z" fill="#E8E8E8"/>
<path d="M20.059 131.64L19.9707 153.266C19.7056 153.442 19.4405 153.531 19.1754 153.619L19.2637 131.993C19.5288 131.905 19.7939 131.728 20.059 131.64Z" fill="#EAEAEA"/>
<path d="M19.2637 131.993L19.1754 153.619C18.9986 153.707 18.8219 153.707 18.5568 153.795L18.6451 132.17C18.9103 132.081 19.087 131.993 19.2637 131.993Z" fill="#E8E8E8"/>
<path d="M18.7335 132.081L18.6452 153.707C18.5568 153.707 18.3801 153.707 18.2917 153.795L18.38 132.17C18.4684 132.17 18.5568 132.17 18.7335 132.081Z" fill="#E7E7E7"/>
<path d="M18.38 132.17L18.2916 153.795C18.2032 153.795 18.1149 153.795 17.9381 153.795L18.0265 132.17C18.1149 132.17 18.2032 132.17 18.38 132.17Z" fill="#E5E5E5"/>
<path d="M18.0265 132.17L17.9381 153.795C17.8498 153.795 17.7614 153.795 17.5847 153.795L17.673 132.17C17.8497 132.17 17.9381 132.17 18.0265 132.17Z" fill="#E3E3E3"/>
<path d="M17.6731 132.17L17.5847 153.795C17.4963 153.795 17.4079 153.795 17.2312 153.795L17.3196 132.17C17.4963 132.17 17.5847 132.17 17.6731 132.17Z" fill="#E2E2E2"/>
<path d="M17.408 132.17L17.3196 153.795C17.2312 153.795 17.0545 153.795 16.9661 153.795L17.0545 132.17C17.1429 132.17 17.2312 132.17 17.408 132.17Z" fill="#E0E0E0"/>
<path d="M16.9661 132.081L16.8777 153.707C16.701 153.707 16.6126 153.619 16.4359 153.619L16.5242 131.993C16.701 132.081 16.8777 132.081 16.9661 132.081Z" fill="#DFDFDF"/>
<path d="M16.5242 132.081L16.4359 153.707C16.2591 153.707 16.0824 153.619 15.9056 153.531L15.994 131.905C16.1707 131.993 16.3475 131.993 16.5242 132.081Z" fill="#DDDDDD"/>
<path d="M15.994 131.905L15.9057 153.531C15.6406 153.442 15.2871 153.354 15.022 153.266L15.1103 131.64C15.3755 131.728 15.7289 131.817 15.994 131.905Z" fill="#DCDCDC"/>
<path d="M15.1103 131.64L15.022 153.266C14.5801 153.089 14.1383 152.913 13.6964 152.648C12.1942 151.853 10.7803 151.059 9.36639 150.176C7.15718 148.941 4.94796 147.617 2.73875 146.293C1.50159 145.586 0.35279 144.88 -0.88437 144.262C-1.94479 143.645 -3.00522 143.115 -3.97727 142.497C-5.47954 141.614 -6.98179 140.732 -8.48406 139.849C-9.80959 139.055 -10.5165 138.26 -10.5165 137.554L-10.4282 115.929C-10.4282 116.635 -9.8096 117.429 -8.3957 118.223C-6.89343 119.106 -5.47953 119.989 -3.8889 120.872C-2.82847 121.489 -1.85642 122.019 -0.795996 122.637C0.441164 123.343 1.58996 124.049 2.82712 124.667C5.03634 125.903 7.24555 127.227 9.45476 128.551C10.8687 129.345 12.2826 130.228 13.7848 131.022C14.2267 131.199 14.6685 131.464 15.1103 131.64Z" fill="#DADADA"/>
<path d="M9.18962 139.937L9.10124 161.563C9.10124 160.857 8.48267 160.151 7.24551 159.444C4.15261 157.679 1.14807 155.914 -1.94483 154.148C-4.68426 152.56 -7.51205 150.971 -10.2515 149.382C-10.6049 149.117 -11.0468 148.941 -11.4003 148.852L-11.3119 127.227C-10.9584 127.403 -10.5166 127.58 -10.1631 127.756C-7.42369 129.345 -4.68425 130.934 -1.85646 132.523C1.14807 134.288 4.24097 136.054 7.33387 137.819C8.57103 138.613 9.18962 139.231 9.18962 139.937Z" fill="#CF2145"/>
<path d="M29.2493 111.427L29.1609 133.052C29.1609 133.052 29.1609 133.052 29.1609 133.141L29.2493 111.427C29.2493 111.427 29.2493 111.515 29.2493 111.427Z" fill="#DFDFDF"/>
<path d="M29.2493 111.515L29.1609 133.141C29.1609 133.317 29.1609 133.406 29.0726 133.582L29.1609 111.956C29.2493 111.78 29.2493 111.603 29.2493 111.515Z" fill="#E0E0E0"/>
<path d="M29.1609 111.957L29.0725 133.582C29.0725 133.759 28.9842 133.935 28.8958 134.112L28.9842 112.486C29.0725 112.31 29.1609 112.133 29.1609 111.957Z" fill="#E2E2E2"/>
<path d="M28.9841 112.486L28.8958 134.112V134.2C26.5982 139.849 24.2122 145.586 21.6495 151.236L21.7379 129.61C24.3006 123.961 26.6866 118.312 28.9841 112.574C28.9841 112.574 28.9841 112.574 28.9841 112.486Z" fill="#E3E3E3"/>
<path d="M9.18962 139.937L9.10124 161.563C9.10124 160.857 8.48267 160.151 7.24551 159.444C4.15261 157.679 1.14807 155.914 -1.94483 154.148C-4.68426 152.56 -7.51205 150.971 -10.2515 149.382C-10.6049 149.117 -11.0468 148.941 -11.4003 148.852L-11.3119 127.227C-10.9584 127.403 -10.5166 127.58 -10.1631 127.756C-7.42369 129.345 -4.68425 130.934 -1.85646 132.523C1.14807 134.288 4.24097 136.054 7.33387 137.819C8.57103 138.613 9.18962 139.231 9.18962 139.937Z" fill="#CF2145"/>
<path d="M9.18962 139.937L9.10124 161.563C9.10124 160.857 8.48267 160.151 7.24551 159.444C4.15261 157.679 1.14807 155.914 -1.94483 154.148C-4.68426 152.56 -7.51205 150.971 -10.2515 149.382C-10.6049 149.117 -11.0468 148.941 -11.4003 148.852L-11.3119 127.227C-10.9584 127.403 -10.5166 127.58 -10.1631 127.756C-7.42369 129.345 -4.68425 130.934 -1.85646 132.523C1.14807 134.288 4.24097 136.054 7.33387 137.819C8.57103 138.613 9.18962 139.231 9.18962 139.937Z" fill="#CF2145"/>
<path d="M75.8196 157.061L75.7312 178.687C74.6708 177.628 73.6104 176.921 73.0802 176.127C66.806 167.477 60.4435 158.738 54.346 150.088C54.0809 149.647 53.9926 149.205 53.9926 148.764L54.0809 127.139C54.0809 127.58 54.1693 128.109 54.4344 128.463C60.5318 137.201 66.806 145.851 73.1685 154.501C73.6988 155.296 74.6708 156.002 75.8196 157.061Z" fill="#CF2145"/>
<path d="M75.8196 157.061L75.7312 178.687C74.6708 177.628 73.6104 176.921 73.0802 176.127C66.806 167.477 60.4435 158.738 54.346 150.088C54.0809 149.647 53.9926 149.205 53.9926 148.764L54.0809 127.139C54.0809 127.58 54.1693 128.109 54.4344 128.463C60.5318 137.201 66.806 145.851 73.1685 154.501C73.6988 155.296 74.6708 156.002 75.8196 157.061Z" fill="#CF2145"/>
<path d="M68.2198 159.533L68.1315 181.158C68.1315 180.717 67.8664 180.276 67.5129 179.746C60.5318 170.39 53.8157 161.033 46.923 151.677C46.4812 151.059 45.6858 150.441 44.8022 149.912C44.3603 149.647 43.9185 149.47 43.4766 149.294L43.565 127.668C44.0068 127.845 44.4487 128.109 44.8905 128.286C45.7742 128.816 46.4812 129.433 47.0114 130.051C53.9041 139.408 60.7085 148.764 67.6012 158.12C68.0431 158.65 68.2198 159.091 68.2198 159.533Z" fill="#DADADA"/>
<path d="M43.565 127.668L43.4766 149.205L43.565 127.668Z" fill="#DCDCDC"/>
<path d="M43.565 127.668L43.4766 149.294C42.7697 149.029 42.1511 148.676 41.5325 148.411C39.8535 147.44 38.8815 146.293 38.8815 145.057L38.9698 123.431C38.9698 124.667 39.8535 125.814 41.6209 126.785C42.1511 127.05 42.8581 127.315 43.565 127.668Z" fill="#DADADA"/>
<path d="M45.951 146.028L45.8626 167.653C44.979 167.124 44.0069 166.682 42.9465 166.241L43.0348 144.616C44.0953 145.057 45.0673 145.498 45.951 146.028Z" fill="#CF2145"/>
<path d="M43.0348 144.704L42.9464 166.329C42.1511 166.065 41.3558 165.8 40.5605 165.535L40.7372 143.909C41.5325 144.086 42.3279 144.351 43.0348 144.704Z" fill="#D12246"/>
<path d="M40.7372 143.909L40.6489 165.535C40.0303 165.358 39.3233 165.182 38.6164 165.005L38.7048 143.38C39.4117 143.556 40.0303 143.733 40.7372 143.909Z" fill="#D22246"/>
<path d="M38.7048 143.38L38.6164 165.005C37.9978 164.917 37.3793 164.741 36.7607 164.652L36.8491 143.027C37.4676 143.115 38.0862 143.292 38.7048 143.38Z" fill="#D42247"/>
<path d="M36.849 143.027L36.7607 164.652C36.1421 164.564 35.5235 164.476 34.9049 164.476L34.9933 142.85C35.6119 142.938 36.2305 142.938 36.849 143.027Z" fill="#D52247"/>
<path d="M34.9933 142.85L34.9049 164.476C34.2863 164.387 33.6678 164.387 33.0492 164.387L33.1376 142.762C33.7561 142.762 34.3747 142.762 34.9933 142.85Z" fill="#D62348"/>
<path d="M33.1376 142.762L33.0492 164.387C32.4306 164.387 31.7237 164.387 31.1051 164.387L31.1935 142.762C31.9004 142.762 32.519 142.762 33.1376 142.762Z" fill="#D82348"/>
<path d="M31.1934 142.762L31.105 164.387C30.3981 164.387 29.6911 164.476 28.9842 164.564L29.0726 142.938C29.8679 142.85 30.4865 142.762 31.1934 142.762Z" fill="#D92349"/>
<path d="M29.161 142.938L29.0726 164.564C28.2773 164.652 27.3936 164.741 26.5983 164.917L26.6866 143.291C27.482 143.115 28.2773 143.027 29.161 142.938Z" fill="#DB2349"/>
<path d="M26.6866 143.203L26.5983 164.829C25.3611 165.094 24.1239 165.358 22.8868 165.711L22.9751 144.086C24.2123 143.821 25.4495 143.468 26.6866 143.203Z" fill="#DC234A"/>
<path d="M22.9752 144.174L22.8868 165.8C21.2962 166.329 19.7055 167.035 18.2916 167.83C18.2032 167.83 18.2032 167.918 18.1149 167.918L18.2032 146.293C18.2916 146.293 18.2916 146.204 18.38 146.204C19.7939 145.41 21.3845 144.704 22.9752 144.174Z" fill="#DE244A"/>
<path d="M9.18962 139.937L9.10126 161.563L9.18962 139.937Z" fill="#DFDFDF"/>
<path d="M9.18962 139.937L9.10126 161.563C9.10126 161.651 9.10126 161.651 9.10126 161.739L9.18962 140.114C9.18962 140.114 9.18962 140.026 9.18962 139.937Z" fill="#E0E0E0"/>
<path d="M9.1013 140.202L9.01293 161.828C9.01293 161.916 9.01293 161.916 8.92456 162.004L9.01293 140.379C9.1013 140.29 9.1013 140.202 9.1013 140.202Z" fill="#E2E2E2"/>
<path d="M9.1013 140.379L9.01293 162.004C9.01293 162.092 8.92456 162.181 8.92456 162.181L9.01293 140.555C9.01293 140.467 9.1013 140.467 9.1013 140.379Z" fill="#E3E3E3"/>
<path d="M9.0129 140.555L8.92453 162.181C8.83617 162.269 8.83617 162.357 8.7478 162.446L8.83616 140.82C8.92453 140.732 8.92454 140.643 9.0129 140.555Z" fill="#E5E5E5"/>
<path d="M8.83612 140.82L8.74776 162.446C8.6594 162.534 8.57103 162.622 8.48267 162.799L8.57104 141.173C8.6594 141.085 8.74775 140.908 8.83612 140.82Z" fill="#E7E7E7"/>
<path d="M8.48265 141.173L8.39428 162.799C8.12917 163.063 7.86408 163.24 7.42224 163.505L7.5106 141.879C7.95244 141.614 8.30591 141.35 8.48265 141.173Z" fill="#E8E8E8"/>
<path d="M7.59902 141.791L7.51064 163.416C7.42228 163.505 7.33392 163.505 7.24555 163.593C4.24101 165.27 1.23647 167.035 -1.76807 168.801L-1.67969 147.175C1.32484 145.41 4.24101 143.645 7.33391 141.967C7.42228 141.967 7.51065 141.879 7.59902 141.791Z" fill="#EAEAEA"/>
<path d="M51.6066 153.972L51.5182 175.597C51.5182 172.685 49.6625 169.86 45.8626 167.653L45.951 146.028C49.7508 148.234 51.6066 151.147 51.6066 153.972Z" fill="#CF2145"/>
<path d="M43.8301 153.972L43.7417 175.597V175.686L43.8301 154.06V153.972Z" fill="#D42247"/>
<path d="M116.204 139.231L116.116 160.857C102.772 166.771 89.5167 172.596 75.7312 178.687L75.8196 157.061C89.5167 150.971 102.86 145.145 116.204 139.231Z" fill="#DE244A"/>
<path d="M75.8196 157.061L75.7312 178.687C74.6708 177.628 73.6104 176.921 73.0802 176.127C66.806 167.477 60.4435 158.738 54.346 150.088C54.0809 149.647 53.9926 149.205 53.9926 148.764L54.0809 127.139C54.0809 127.58 54.1693 128.109 54.4344 128.463C60.5318 137.201 66.806 145.851 73.1685 154.501C73.6988 155.296 74.6708 156.002 75.8196 157.061Z" fill="#CF2145"/>
<path d="M135.999 131.905L135.91 153.531C135.91 153.619 135.91 153.619 135.91 153.707L135.999 132.081C135.999 131.993 135.999 131.993 135.999 131.905Z" fill="#DFDFDF"/>
<path d="M135.999 132.081L135.91 153.707C135.91 154.06 135.822 154.325 135.822 154.678L135.91 133.052C135.999 132.699 135.999 132.346 135.999 132.081Z" fill="#E0E0E0"/>
<path d="M135.91 133.052L135.822 154.678C135.733 154.943 135.645 155.296 135.557 155.561L135.645 133.935C135.733 133.582 135.822 133.317 135.91 133.052Z" fill="#E2E2E2"/>
<path d="M135.645 133.935L135.557 155.561C135.468 155.825 135.292 156.09 135.203 156.355L135.292 134.729C135.38 134.465 135.557 134.2 135.645 133.935Z" fill="#E3E3E3"/>
<path d="M135.292 134.73L135.203 156.355C135.027 156.62 134.85 156.973 134.585 157.238L134.673 135.612C134.938 135.347 135.115 134.994 135.292 134.73Z" fill="#E5E5E5"/>
<path d="M134.673 135.612L134.585 157.238C134.32 157.591 134.055 157.944 133.701 158.209L133.789 136.583C134.143 136.23 134.408 135.965 134.673 135.612Z" fill="#E7E7E7"/>
<path d="M133.789 136.583L133.701 158.209C133.082 158.738 132.375 159.268 131.58 159.798L131.669 138.172C132.464 137.642 133.171 137.113 133.789 136.583Z" fill="#E8E8E8"/>
<path d="M131.669 138.172L131.58 159.798C130.696 160.327 129.724 160.768 128.576 161.298C116.999 166.153 105.865 171.361 94.377 176.215C93.9352 176.392 93.6701 176.568 93.3166 176.745L93.405 155.119C93.6701 154.943 94.0235 154.766 94.4654 154.59C105.953 149.647 117.088 144.527 128.664 139.672C129.813 139.143 130.785 138.702 131.669 138.172Z" fill="#EAEAEA"/>
<path d="M93.4049 155.119L93.3166 176.745C93.0515 176.921 92.7864 177.098 92.6096 177.275L92.698 155.649C92.9631 155.472 93.1398 155.296 93.4049 155.119Z" fill="#E8E8E8"/>
<path d="M92.6979 155.649L92.6096 177.275C92.5212 177.363 92.4328 177.451 92.3445 177.539L92.4329 155.914C92.5212 155.825 92.6096 155.737 92.6979 155.649Z" fill="#E7E7E7"/>
<path d="M92.4329 155.914L92.3445 177.539C92.2561 177.628 92.2562 177.716 92.1678 177.804L92.2561 156.179C92.3445 156.09 92.3445 156.002 92.4329 155.914Z" fill="#E5E5E5"/>
<path d="M92.2561 156.179L92.1678 177.804C92.0794 177.892 92.0794 177.981 92.0794 178.069L92.1678 156.443C92.1678 156.355 92.2561 156.267 92.2561 156.179Z" fill="#E3E3E3"/>
<path d="M92.1678 156.443L92.0794 178.069C92.0794 178.157 91.991 178.245 91.991 178.422L92.0794 156.796C92.0794 156.708 92.0794 156.62 92.1678 156.443Z" fill="#E2E2E2"/>
<path d="M92.0794 156.796L91.991 178.422C91.991 178.599 91.991 178.687 91.9026 178.863L91.991 157.238C91.991 157.061 91.991 156.973 92.0794 156.796Z" fill="#E0E0E0"/>
<path d="M91.991 157.238L91.9026 178.863V178.952L91.991 157.238Z" fill="#DFDFDF"/>
<path d="M83.5077 159.356L83.4193 180.982C83.4193 180.982 83.3309 181.07 83.2426 181.07L83.3309 159.444C83.4193 159.444 83.5077 159.356 83.5077 159.356Z" fill="#E8E8E8"/>
<path d="M83.4193 159.444L83.3309 181.07C82.6239 181.511 81.6519 181.953 80.9449 182.394L81.0333 160.768C81.6519 160.327 82.7123 159.886 83.4193 159.444Z" fill="#EAEAEA"/>
<path d="M81.0334 160.768L80.945 182.394C80.6799 182.571 80.5032 182.659 80.3264 182.835L80.4148 161.21C80.5031 161.033 80.7683 160.945 81.0334 160.768Z" fill="#E8E8E8"/>
<path d="M80.4147 161.21L80.3264 182.835L80.238 182.924L80.3264 161.298C80.3264 161.298 80.3263 161.21 80.4147 161.21Z" fill="#E7E7E7"/>
<path d="M80.3263 161.298L80.238 182.924C80.238 182.924 80.238 182.924 80.238 183.012L80.3263 161.298C80.238 161.298 80.238 161.298 80.3263 161.298Z" fill="#E5E5E5"/>
<path d="M80.238 161.386L80.1497 183.012C80.1497 183.012 80.1497 183.012 80.1497 183.1L80.238 161.386Z" fill="#E3E3E3"/>
<path d="M80.238 161.386L80.1497 183.012L80.238 161.386Z" fill="#E2E2E2"/>
<path d="M80.238 161.475L80.1497 183.1L80.238 161.475Z" fill="#E0E0E0"/>
<path d="M80.238 161.475L80.1497 183.012L80.238 161.475Z" fill="#DFDFDF"/>
<path d="M43.8301 153.972L43.7417 175.597V175.686L43.8301 154.06V153.972Z" fill="#D42247"/>
<path d="M43.8301 154.06L43.7417 175.686C43.7417 175.95 43.7417 176.127 43.6534 176.392L43.7417 154.766C43.8301 154.501 43.8301 154.325 43.8301 154.06Z" fill="#D52247"/>
<path d="M43.8301 154.766L43.7417 176.392C43.7417 176.568 43.6534 176.833 43.565 177.01L43.6534 155.384C43.6534 155.208 43.7417 154.943 43.8301 154.766Z" fill="#D62348"/>
<path d="M43.565 155.384L43.4766 177.01C43.3883 177.274 43.2999 177.451 43.2115 177.628L43.2999 156.002C43.3883 155.825 43.565 155.649 43.565 155.384Z" fill="#D82348"/>
<path d="M43.2999 156.09L43.2115 177.716C43.0348 177.981 42.9464 178.157 42.7697 178.422L42.8581 156.796C43.0348 156.532 43.1232 156.267 43.2999 156.09Z" fill="#D92349"/>
<path d="M42.858 156.708L42.7697 178.334C42.5929 178.598 42.3278 178.863 42.0627 179.128L42.1511 157.503C42.4162 157.238 42.5929 156.973 42.858 156.708Z" fill="#DB2349"/>
<path d="M42.1511 157.503L42.0627 179.128C41.6209 179.481 41.1791 179.834 40.5605 180.187L40.6488 158.562C41.1791 158.297 41.7093 157.856 42.1511 157.503Z" fill="#DC234A"/>
<path d="M40.6488 158.562L40.5604 180.187C40.4721 180.187 40.4721 180.276 40.3837 180.276C39.5884 180.717 38.7047 181.07 37.821 181.423L37.9094 159.798C38.793 159.533 39.6767 159.091 40.4721 158.65C40.5604 158.65 40.5604 158.65 40.6488 158.562Z" fill="#DE244A"/>
<path d="M37.9094 159.798L37.821 181.423C37.1141 181.688 36.4071 181.864 35.6118 181.953L35.7002 160.327C36.4955 160.239 37.2025 160.062 37.9094 159.798Z" fill="#DC234A"/>
<path d="M35.7002 160.327L35.6118 181.953C35.17 182.041 34.6398 182.129 34.1979 182.129L34.2863 160.504C34.7281 160.504 35.2584 160.415 35.7002 160.327Z" fill="#DB2349"/>
<path d="M34.2863 160.592L34.1979 182.217C33.7561 182.217 33.4026 182.306 32.9608 182.306L33.0491 160.68C33.4026 160.68 33.8444 160.592 34.2863 160.592Z" fill="#D92349"/>
<path d="M33.0491 160.68L32.9607 182.306C32.6073 182.306 32.1654 182.306 31.812 182.306L31.9003 160.68C32.2538 160.68 32.6073 160.68 33.0491 160.68Z" fill="#D82348"/>
<path d="M31.812 160.68L31.7236 182.306C31.3702 182.306 31.0167 182.306 30.5748 182.217L30.6632 160.592C31.105 160.592 31.4585 160.68 31.812 160.68Z" fill="#D62348"/>
<path d="M30.7516 160.592L30.6632 182.218C30.3097 182.218 29.9562 182.129 29.5144 182.129L29.6028 160.504C29.9562 160.504 30.3981 160.592 30.7516 160.592Z" fill="#D52247"/>
<path d="M29.6028 160.504L29.5144 182.129C29.1609 182.041 28.7191 182.041 28.3656 181.953L28.454 160.327C28.8958 160.327 29.2493 160.415 29.6028 160.504Z" fill="#D42247"/>
<path d="M28.4539 160.239L28.3656 181.864C27.9237 181.776 27.5703 181.688 27.1284 181.6L27.2168 159.974C27.6586 160.062 28.1005 160.151 28.4539 160.239Z" fill="#D22246"/>
<path d="M27.2168 159.974L27.1284 181.6C26.5982 181.423 26.1564 181.335 25.7145 181.158L25.8029 159.533C26.2448 159.709 26.775 159.798 27.2168 159.974Z" fill="#D12246"/>
<path d="M25.8029 159.533L25.7145 181.158C25.0959 180.893 24.5657 180.629 23.9471 180.364L23.8588 180.276L23.9471 158.65L24.0355 158.738C24.6541 159.003 25.1843 159.268 25.8029 159.533Z" fill="#CF2145"/>
<path d="M92.7863 168.713L92.698 190.338C92.5212 186.896 92.698 183.542 91.991 180.099C91.9026 179.658 91.8143 179.305 91.8143 178.952L91.9026 157.326C91.9026 157.679 91.991 158.032 92.0794 158.474C92.7863 161.828 92.6096 165.27 92.7863 168.713Z" fill="#CF2145"/>
<path d="M86.4238 165.358L86.3354 186.984C85.8052 185.042 85.275 183.1 84.7448 181.247L84.8332 159.621C85.3634 161.475 85.8936 163.416 86.4238 165.358Z" fill="#DADADA"/>
<path d="M86.4238 165.358L86.3354 186.984C85.8052 187.16 85.275 187.249 84.7448 187.425L84.8332 165.8C85.3634 165.623 85.8936 165.447 86.4238 165.358Z" fill="#DC234A"/>
<path d="M84.8332 165.711L84.7448 187.337C83.1542 185.925 81.2101 184.601 80.1497 183.1V183.012L80.238 161.386V161.475C81.2984 163.063 83.2426 164.387 84.8332 165.711Z" fill="#CF2145"/>
<path d="M51.6066 153.972L51.5182 175.597C51.5182 175.686 51.5182 175.686 51.5182 175.774L51.6066 154.148C51.6066 154.148 51.6066 154.06 51.6066 153.972Z" fill="#DFDFDF"/>
<path d="M51.6066 154.148L51.5182 175.774C51.5182 176.127 51.4299 176.48 51.4299 176.921L51.5182 155.296C51.5182 154.943 51.5182 154.59 51.6066 154.148Z" fill="#E0E0E0"/>
<path d="M51.4299 155.296L51.3415 176.921C51.2531 177.274 51.1648 177.628 50.988 177.981L51.0764 156.355C51.2531 156.002 51.3415 155.649 51.4299 155.296Z" fill="#E2E2E2"/>
<path d="M51.1647 156.443L51.0764 178.069C50.8996 178.422 50.7229 178.775 50.5461 179.128L50.6345 157.503C50.8112 157.149 50.988 156.796 51.1647 156.443Z" fill="#E3E3E3"/>
<path d="M50.6345 157.503L50.5462 179.128C50.3694 179.481 50.1043 179.923 49.7509 180.276L49.8392 158.65C50.1043 158.297 50.3694 157.856 50.6345 157.503Z" fill="#E5E5E5"/>
<path d="M49.8392 158.65L49.7508 180.276C49.3974 180.717 49.0439 181.158 48.6021 181.6L48.6904 159.974C49.1323 159.533 49.4857 159.091 49.8392 158.65Z" fill="#E7E7E7"/>
<path d="M48.602 159.974L48.5137 181.6C47.8067 182.217 47.0114 182.835 46.1277 183.365L46.2161 161.739C47.1882 161.122 47.9835 160.592 48.602 159.974Z" fill="#E8E8E8"/>
<path d="M46.2161 161.739L46.1278 183.365C46.0394 183.453 45.951 183.453 45.8627 183.542C44.5371 184.336 43.0349 184.954 41.5326 185.483L41.621 163.858C43.2116 163.328 44.6255 162.71 45.951 161.916C46.0394 161.828 46.1278 161.739 46.2161 161.739Z" fill="#EAEAEA"/>
<path d="M41.7093 163.77L41.6209 185.395C40.4721 185.748 39.235 186.101 37.9978 186.278L38.0862 164.652C39.3233 164.476 40.4721 164.123 41.7093 163.77Z" fill="#E8E8E8"/>
<path d="M37.9978 164.652L37.9094 186.278C37.1141 186.454 36.3188 186.543 35.5235 186.631L35.6119 165.005C36.4072 164.917 37.2025 164.829 37.9978 164.652Z" fill="#E7E7E7"/>
<path d="M35.6119 165.005L35.5235 186.631C34.8166 186.719 34.1096 186.719 33.4026 186.807L33.491 165.182C34.198 165.094 34.9049 165.094 35.6119 165.005Z" fill="#E5E5E5"/>
<path d="M33.491 165.182L33.4027 186.807C32.7841 186.807 32.0771 186.807 31.4586 186.807L31.5469 165.182C32.2539 165.182 32.8725 165.182 33.491 165.182Z" fill="#E3E3E3"/>
<path d="M31.6353 165.182L31.5469 186.807C30.9283 186.807 30.3097 186.719 29.6912 186.719L29.7795 165.094C30.3981 165.094 31.0167 165.094 31.6353 165.182Z" fill="#E2E2E2"/>
<path d="M29.7795 165.094L29.6911 186.719C29.0726 186.631 28.454 186.631 27.8354 186.543L27.9238 164.917C28.5423 164.917 29.1609 165.005 29.7795 165.094Z" fill="#E0E0E0"/>
<path d="M27.9238 164.829L27.8355 186.454C27.2169 186.366 26.5983 186.278 25.9797 186.101L26.0681 164.476C26.5983 164.652 27.3053 164.74 27.9238 164.829Z" fill="#DFDFDF"/>
<path d="M25.9797 164.476L25.8913 186.101C25.1844 185.925 24.5658 185.836 23.8588 185.572L23.9472 163.946C24.6542 164.211 25.3611 164.387 25.9797 164.476Z" fill="#DDDDDD"/>
<path d="M24.0356 164.034L23.9472 185.66C23.1519 185.395 22.3565 185.13 21.5612 184.866L21.6496 163.24C22.3565 163.505 23.1519 163.77 24.0356 164.034Z" fill="#DCDCDC"/>
<path d="M21.6496 163.24L21.5612 184.865C20.5892 184.512 19.6171 184.071 18.7334 183.541C14.7569 181.247 12.8127 178.334 12.8127 175.509L12.9011 153.884C12.9011 156.708 14.8452 159.621 18.8218 161.916C19.7055 162.357 20.6775 162.799 21.6496 163.24Z" fill="#DADADA"/>
<path d="M92.7863 168.713L92.698 190.338C92.5212 186.896 92.698 183.542 91.991 180.099C91.9026 179.658 91.8143 179.305 91.8143 178.952L91.9026 157.326C91.9026 157.679 91.991 158.032 92.0794 158.474C92.7863 161.828 92.6096 165.27 92.7863 168.713Z" fill="#CF2145"/>
<path d="M68.2199 159.533L68.1315 181.158L68.2199 159.533Z" fill="#D42247"/>
<path d="M68.2199 159.533L68.1315 181.158C68.1315 181.247 68.1315 181.247 68.1315 181.335L68.2199 159.709C68.2199 159.709 68.2199 159.621 68.2199 159.533Z" fill="#D52247"/>
<path d="M68.2198 159.709L68.1315 181.335C68.1315 181.423 68.1315 181.423 68.0431 181.511L68.1315 159.886C68.2198 159.798 68.2198 159.798 68.2198 159.709Z" fill="#D62348"/>
<path d="M68.2198 159.886L68.1315 181.511C68.1315 181.6 68.1315 181.6 68.0431 181.688L68.1315 160.062C68.1315 159.974 68.1315 159.974 68.2198 159.886Z" fill="#D82348"/>
<path d="M68.1315 160.062L68.0431 181.688C68.0431 181.776 67.9548 181.776 67.9548 181.864L68.0431 160.239C68.0431 160.151 68.0431 160.062 68.1315 160.062Z" fill="#D92349"/>
<path d="M68.0431 160.239L67.9547 181.864C67.8664 181.953 67.8664 182.041 67.778 182.041L67.8664 160.415C67.8664 160.327 67.9547 160.239 68.0431 160.239Z" fill="#DB2349"/>
<path d="M67.778 160.415L67.6896 182.041C67.5129 182.129 67.3362 182.306 67.1594 182.394L67.2478 160.768C67.5129 160.68 67.6896 160.592 67.778 160.415Z" fill="#DC234A"/>
<path d="M67.2478 160.857L67.1595 182.482C66.8944 182.659 66.5409 182.835 66.1874 182.924C54.346 188.043 42.593 193.163 31.0167 198.547C30.2214 198.9 29.5144 199.165 28.8075 199.43L28.8959 177.804C29.6028 177.539 30.3981 177.275 31.1051 176.921C42.6814 171.625 54.4344 166.418 66.2758 161.298C66.7176 161.122 66.9827 160.945 67.2478 160.857Z" fill="#DE244A"/>
<path d="M67.2478 160.857L67.1595 182.482C66.8944 182.659 66.5409 182.835 66.1874 182.924C54.346 188.043 42.593 193.163 31.0167 198.547C30.2214 198.9 29.5144 199.165 28.8075 199.43L28.8959 177.804C29.6028 177.539 30.3981 177.275 31.1051 176.921C42.6814 171.625 54.4344 166.418 66.2758 161.298C66.7176 161.122 66.9827 160.945 67.2478 160.857Z" fill="#DE244A"/>
<path d="M28.8959 177.804L28.8075 199.43C28.1005 199.694 27.3936 199.871 26.6866 199.959L26.775 178.334C27.482 178.245 28.1889 177.981 28.8959 177.804Z" fill="#DC234A"/>
<path d="M26.775 178.334L26.6866 199.959C26.2448 200.048 25.8913 200.048 25.4495 200.136L25.5378 178.51C25.9797 178.422 26.4215 178.422 26.775 178.334Z" fill="#DB2349"/>
<path d="M25.5378 178.51L25.4495 200.136C25.096 200.136 24.8309 200.224 24.4774 200.224L24.5658 178.599C24.9193 178.51 25.2727 178.51 25.5378 178.51Z" fill="#D92349"/>
<path d="M24.5658 178.599L24.4774 200.224C24.2123 200.224 23.8589 200.224 23.5938 200.224L23.6821 178.599C24.0356 178.599 24.3007 178.599 24.5658 178.599Z" fill="#D82348"/>
<path d="M23.7705 178.599L23.6821 200.224C23.417 200.224 23.1519 200.224 22.7985 200.136L22.8868 178.51C23.1519 178.51 23.417 178.599 23.7705 178.599Z" fill="#D62348"/>
<path d="M22.8868 178.51L22.7984 200.136C22.5333 200.136 22.1798 200.048 21.9147 200.048L22.0031 178.422C22.3566 178.51 22.6217 178.51 22.8868 178.51Z" fill="#D52247"/>
<path d="M22.0031 178.422L21.9147 200.048C21.5613 199.959 21.2962 199.959 20.9427 199.871L21.031 178.245C21.3845 178.334 21.738 178.422 22.0031 178.422Z" fill="#D42247"/>
<path d="M21.031 178.245L20.9427 199.871C20.5892 199.783 20.1474 199.694 19.7939 199.606L19.8822 177.981C20.3241 178.069 20.6776 178.157 21.031 178.245Z" fill="#D22246"/>
<path d="M19.8823 177.981L19.7939 199.606C19.5288 199.518 19.2637 199.43 18.9986 199.341C12.4593 197.135 5.65491 195.016 -0.619263 192.545L-0.530889 170.919C5.74328 173.391 12.4593 175.509 19.0869 177.716C19.352 177.804 19.6171 177.892 19.8823 177.981Z" fill="#D12246"/>
<path d="M67.2478 160.857L67.1595 182.482C66.8944 182.659 66.5409 182.835 66.1874 182.924C54.346 188.043 42.593 193.163 31.0167 198.547C30.2214 198.9 29.5144 199.165 28.8075 199.43L28.8959 177.804C29.6028 177.539 30.3981 177.275 31.1051 176.921C42.6814 171.625 54.4344 166.418 66.2758 161.298C66.7176 161.122 66.9827 160.945 67.2478 160.857Z" fill="#DE244A"/>
<path d="M67.2478 160.857L67.1595 182.482C66.8944 182.659 66.5409 182.835 66.1874 182.924C54.346 188.043 42.593 193.163 31.0167 198.547C30.2214 198.9 29.5144 199.165 28.8075 199.43L28.8959 177.804C29.6028 177.539 30.3981 177.275 31.1051 176.921C42.6814 171.625 54.4344 166.418 66.2758 161.298C66.7176 161.122 66.9827 160.945 67.2478 160.857Z" fill="#DE244A"/>
<path d="M89.6934 170.478L89.6051 192.103C89.34 192.103 89.0748 192.192 88.7214 192.192L88.8097 170.566C89.1632 170.566 89.4283 170.566 89.6934 170.478Z" fill="#E7E7E7"/>
<path d="M88.8981 170.566L88.8097 192.192C88.3679 192.192 88.0144 192.28 87.5726 192.28L87.6609 170.654C88.1028 170.654 88.4563 170.654 88.8981 170.566Z" fill="#E5E5E5"/>
<path d="M87.661 170.654L87.5727 192.28C87.2192 192.28 86.8657 192.28 86.6006 192.28L86.689 170.654C87.0424 170.654 87.3075 170.654 87.661 170.654Z" fill="#E3E3E3"/>
<path d="M86.6888 170.654L86.6005 192.28C86.3354 192.28 85.9819 192.28 85.7168 192.192L85.8052 170.566C86.0703 170.654 86.4237 170.654 86.6888 170.654Z" fill="#E2E2E2"/>
<path d="M85.8052 170.654L85.7168 192.28C85.4517 192.28 85.1866 192.192 84.8331 192.192L84.9215 170.566C85.275 170.566 85.5401 170.566 85.8052 170.654Z" fill="#E0E0E0"/>
<path d="M84.9215 170.566L84.8331 192.192C84.568 192.192 84.2146 192.103 83.9495 192.015L84.0378 170.39C84.3913 170.478 84.6564 170.478 84.9215 170.566Z" fill="#DFDFDF"/>
<path d="M84.1262 170.39L84.0378 192.015C83.6844 191.927 83.4193 191.839 83.0658 191.75L83.1542 170.125C83.4193 170.213 83.7727 170.301 84.1262 170.39Z" fill="#DDDDDD"/>
<path d="M83.1542 170.125L83.0658 191.75C82.624 191.662 82.1822 191.486 81.8287 191.309L81.917 169.683C82.2705 169.86 82.7124 170.037 83.1542 170.125Z" fill="#DCDCDC"/>
<path d="M81.917 169.683L81.8286 191.309C81.1217 191.044 80.4148 190.691 79.7962 190.338C78.6474 189.632 77.587 188.838 76.6149 188.043C76.1731 187.69 75.7312 187.337 75.2894 187.072C75.0243 186.896 74.7592 186.807 74.4057 186.631L74.4941 165.005C74.7592 165.094 75.0243 165.27 75.3777 165.447C75.8196 165.711 76.2614 165.976 76.7033 166.418C77.6753 167.212 78.7358 168.006 79.8845 168.713C80.5031 169.154 81.2101 169.419 81.917 169.683Z" fill="#DADADA"/>
<path d="M74.494 165.094L74.4056 186.719C74.2289 186.631 74.0522 186.631 73.9638 186.543L74.0522 164.917C74.1405 165.005 74.3173 165.094 74.494 165.094Z" fill="#DCDCDC"/>
<path d="M73.9638 165.005L73.8755 186.631C73.7871 186.631 73.6103 186.543 73.522 186.543L73.6103 164.917C73.7871 164.917 73.8755 164.917 73.9638 165.005Z" fill="#DDDDDD"/>
<path d="M73.6103 164.917L73.5219 186.543C73.4336 186.543 73.3452 186.543 73.2568 186.454L73.3452 164.829C73.4336 164.829 73.5219 164.829 73.6103 164.917Z" fill="#DFDFDF"/>
<path d="M73.3453 164.829L73.2569 186.454C73.1685 186.454 73.0802 186.454 72.9918 186.454L73.0802 164.829C73.1685 164.829 73.2569 164.829 73.3453 164.829Z" fill="#E0E0E0"/>
<path d="M73.0802 164.829L72.9918 186.454C72.9034 186.454 72.815 186.454 72.7267 186.454L72.8151 164.829C72.9034 164.829 72.9918 164.829 73.0802 164.829Z" fill="#E2E2E2"/>
<path d="M72.815 164.829L72.7266 186.454C72.6383 186.454 72.5499 186.454 72.4615 186.454L72.5499 164.829C72.6383 164.741 72.7267 164.741 72.815 164.829Z" fill="#E3E3E3"/>
<path d="M72.4615 164.829L72.3732 186.454C72.2848 186.454 72.108 186.454 72.0197 186.454L72.108 164.829C72.2848 164.829 72.3731 164.829 72.4615 164.829Z" fill="#E5E5E5"/>
<path d="M72.1081 164.829L72.0197 186.454C71.843 186.454 71.6662 186.454 71.4895 186.543L71.5779 164.917C71.843 164.829 71.9313 164.829 72.1081 164.829Z" fill="#E7E7E7"/>
<path d="M71.6662 164.917L71.5778 186.543C71.2243 186.631 70.8709 186.719 70.5174 186.807L70.6058 165.182C70.9592 165.005 71.3127 164.917 71.6662 164.917Z" fill="#E8E8E8"/>
<path d="M70.5174 165.182L70.429 186.807C69.8988 186.984 69.2802 187.249 68.6617 187.514C57.8807 192.457 46.4811 196.958 35.9653 202.078C34.8165 202.696 33.5793 203.137 32.4305 203.49L32.5189 181.864C33.6677 181.511 34.9049 180.982 36.0536 180.452C46.5695 175.333 57.9691 170.831 68.75 165.888C69.3686 165.623 69.9872 165.358 70.5174 165.182Z" fill="#EAEAEA"/>
<path d="M32.519 181.864L32.4306 203.49C31.3702 203.843 30.3097 204.108 29.2493 204.284L29.3377 182.659C30.3981 182.482 31.4585 182.217 32.519 181.864Z" fill="#E8E8E8"/>
<path d="M29.3377 182.659L29.2493 204.284C28.6307 204.373 27.9238 204.461 27.3052 204.549L27.3935 182.924C28.1005 182.924 28.7191 182.835 29.3377 182.659Z" fill="#E7E7E7"/>
<path d="M27.3936 182.924L27.3052 204.549C26.775 204.637 26.1564 204.637 25.6262 204.637L25.7146 183.012C26.2448 183.012 26.8634 183.012 27.3936 182.924Z" fill="#E5E5E5"/>
<path d="M25.7146 183.1L25.6262 204.726C25.096 204.726 24.5658 204.726 24.0356 204.726L24.1239 183.1C24.6542 183.1 25.1844 183.1 25.7146 183.1Z" fill="#E3E3E3"/>
<path d="M24.1239 183.1L24.0356 204.726C23.5054 204.726 22.8868 204.637 22.3566 204.637L22.4449 183.012C22.9752 183.012 23.5054 183.012 24.1239 183.1Z" fill="#E2E2E2"/>
<path d="M22.3566 183.012L22.2682 204.637C21.6496 204.549 20.9427 204.549 20.3241 204.373L20.4125 182.747C21.0311 182.835 21.738 182.924 22.3566 183.012Z" fill="#E0E0E0"/>
<path d="M20.4125 182.747L20.3241 204.373C19.5288 204.284 18.6451 204.108 17.8498 203.931L17.9382 182.306C18.7335 182.482 19.6172 182.659 20.4125 182.747Z" fill="#DFDFDF"/>
<path d="M17.9382 182.306L17.8498 203.931C17.0545 203.755 16.1708 203.578 15.3755 203.313C14.0499 202.96 12.8128 202.607 11.5756 202.254L11.664 180.629C12.9012 180.982 14.2267 181.335 15.4638 181.688C16.2592 181.953 17.0545 182.129 17.9382 182.306Z" fill="#DDDDDD"/>
<path d="M11.5756 180.717L11.4873 202.342C10.6919 202.078 9.80826 201.813 9.01294 201.548C5.56656 200.401 2.29692 199.165 -0.972717 197.929L-0.884357 176.304C2.29691 177.539 5.65492 178.775 9.1013 179.923C9.89662 180.187 10.6919 180.452 11.5756 180.717Z" fill="#DCDCDC"/>
<path d="M92.1678 158.474C92.7863 161.828 92.698 165.27 92.8747 168.713C91.8143 169.33 90.8422 169.948 89.7818 170.478C85.4517 171.096 82.4472 170.213 79.9729 168.713C78.8241 168.006 77.7637 167.212 76.7916 166.418C76.3498 166.065 75.9079 165.711 75.4661 165.447C73.522 164.299 71.843 164.476 68.9268 165.8C58.1458 170.743 46.7463 175.244 36.2304 180.364C29.426 183.718 22.8867 183.542 15.5521 181.688C13.4313 181.158 11.2221 180.54 9.27797 179.923C-3.00527 175.862 -13.963 170.919 -23.7719 165.27C-30.5763 161.298 -36.8504 157.061 -42.506 152.383C-47.543 148.234 -51.3429 143.645 -55.0544 139.055C-56.9985 136.671 -56.645 134.023 -53.4637 131.64C-29.6042 113.545 -5.92143 95.3622 17.9381 77.2673C25.1843 71.7065 30.0446 70.559 41.3558 73.0305C50.8996 75.0606 59.9132 77.9735 68.7501 80.9746C75.3777 83.1812 81.3868 86.1823 87.5726 88.8304C94.0235 92.5376 100.474 96.2448 106.925 99.9521C111.52 103.571 116.292 107.102 120.711 110.721C127.427 116.37 133.348 122.372 135.733 129.169C137.236 133.494 135.292 136.848 128.841 139.496C117.264 144.351 106.13 149.558 94.6421 154.413C91.9026 155.737 91.8143 156.796 92.1678 158.474ZM75.8195 157.061C89.605 150.971 102.86 145.145 116.204 139.231C94.5537 133.052 75.7312 125.373 59.7365 116.105C43.6534 106.837 30.3981 96.0683 19.7055 83.6226C18.8218 84.1522 17.8497 84.5935 17.0544 85.2114C-3.35874 100.658 -23.4184 116.282 -44.2734 131.552C-49.222 135.259 -49.3104 138.26 -45.6873 141.879C-45.0687 142.497 -44.6269 143.115 -44.0083 143.645C-37.6458 150.088 -29.781 155.825 -20.8557 161.033C-16.3489 163.681 -11.577 166.065 -6.54001 168.448C1.23643 172.067 10.3384 174.803 18.9985 177.804C23.0635 179.216 27.0401 178.863 31.105 177.01C42.6813 171.714 54.4343 166.506 66.2757 161.386C68.4849 160.415 68.6617 159.621 67.6013 158.209C60.6201 148.852 53.9041 139.496 47.0114 130.14C46.5695 129.522 45.7742 128.904 44.8905 128.374C44.4487 128.109 44.0068 127.933 43.565 127.756C42.858 127.492 42.2395 127.139 41.6209 126.874C38.9698 125.373 38.1745 123.431 39.8535 121.489C41.7093 119.283 46.3928 118.312 50.281 119.283C51.2531 119.547 52.1368 119.901 52.7553 120.254C54.9646 121.489 55.4948 123.343 54.4343 125.461C53.9925 126.432 53.7274 127.668 54.346 128.551C60.4434 137.289 66.7176 145.94 73.0801 154.59C73.6987 155.296 74.6708 156.002 75.8195 157.061ZM117.971 134.112C120.534 134.818 125.306 134.906 126.808 134.023C128.399 133.052 128.045 130.493 127.338 128.816C126.19 126.168 124.422 123.431 122.125 121.048C113.73 112.133 103.656 104.277 91.7259 97.3923C79.7078 90.4192 65.8339 84.5935 50.1926 79.7388C45.0673 78.15 39.3233 77.179 33.6677 76.4729C28.2772 75.7668 26.1564 77.179 27.3935 80.3567C28.1889 82.4751 29.5144 84.5935 31.1934 86.5354C39.5884 96.5097 51.8717 104.807 64.6851 112.927C73.9638 117.341 82.889 122.019 92.6979 125.991C100.474 129.257 109.311 131.728 117.971 134.112ZM84.8331 165.711C85.3634 165.535 85.8936 165.447 86.4238 165.27C85.8936 163.328 85.3634 161.386 84.8331 159.533C84.3913 159.444 83.9495 159.356 83.5076 159.356C82.3588 160.062 79.9729 161.122 80.238 161.563C81.2984 163.063 83.2425 164.387 84.8331 165.711Z" fill="#F4F4F4"/>
<path d="M-3.35868 137.731C1.05975 140.29 -0.177416 140.202 -6.80506 144.174C-13.0792 147.705 -13.256 148.411 -16.5256 146.557C-17.4977 146.028 -18.8232 145.145 -20.5906 144.086C-22.3579 143.027 -23.7718 142.32 -24.7439 141.791C-27.8368 140.026 -26.7764 139.761 -20.7673 136.318C-13.9629 132.346 -13.9629 131.64 -9.89797 134.023C-9.45612 134.288 -9.01427 134.553 -8.48406 134.906C-7.95385 135.171 -7.42364 135.524 -6.80506 135.877C-6.53996 136.054 -6.27485 136.23 -5.92138 136.407C-4.94932 136.848 -4.06563 137.289 -3.35868 137.731Z" fill="#E8254E"/>
<path d="M23.9472 158.562C19.4404 155.914 19.5288 151.853 24.0356 149.205C28.6307 146.557 35.877 146.557 40.4721 149.205C40.5605 149.205 40.5605 149.294 40.6489 149.294C45.0673 151.942 44.9789 156.09 40.5605 158.65C35.9653 161.298 28.7191 161.298 24.1239 158.65C24.0356 158.65 24.0356 158.65 23.9472 158.562Z" fill="#E8254E"/>
<path d="M83.5076 159.356C83.9495 159.444 84.3913 159.533 84.8331 159.533C85.3634 161.475 85.8936 163.416 86.4238 165.27C85.8936 165.447 85.3634 165.535 84.8331 165.711C83.2425 164.299 81.2984 162.975 80.238 161.475C79.9729 161.121 82.3588 160.062 83.5076 159.356Z" fill="#E8254E"/>
<path d="M92.7864 168.713L92.698 190.338C91.6376 190.956 90.6655 191.574 89.6051 192.103L89.6935 170.478C90.7539 169.86 91.8143 169.242 92.7864 168.713Z" fill="#EAEAEA"/>
<path d="M209.433 123.166C217.651 127.933 217.74 135.7 209.521 140.379L55.318 229.882C47.1881 234.648 33.7561 234.648 25.5378 229.882L-129.726 140.379C-137.944 135.612 -138.032 127.845 -129.814 123.166L24.389 33.5748C32.5189 28.8084 45.951 28.8084 54.1693 33.5748L209.433 123.166ZM89.6934 170.478C90.7539 169.86 91.7259 169.242 92.7863 168.713C92.6096 165.27 92.7863 161.916 92.0794 158.474C91.7259 156.796 91.8143 155.737 94.377 154.59C105.865 149.647 116.999 144.527 128.576 139.673C135.027 137.024 136.971 133.582 135.468 129.345C133.082 122.46 127.073 116.546 120.446 110.897C116.116 107.19 111.255 103.659 106.66 100.129C100.209 96.4214 93.7584 92.7141 87.3075 89.0069C81.0333 86.3589 75.1126 83.3578 68.485 81.1511C59.6481 78.15 50.6345 75.3254 41.0907 73.207C29.7795 70.7355 24.9192 71.883 17.673 77.4438C-6.18651 95.5387 -29.8693 113.722 -53.7288 131.817C-56.8217 134.2 -57.2636 136.848 -55.3195 139.231C-51.608 143.821 -47.8081 148.499 -42.7711 152.56C-37.1155 157.149 -30.8414 161.475 -24.037 165.447C-14.2281 171.096 -3.27034 176.039 9.0129 180.099C11.0454 180.805 13.1662 181.335 15.2871 181.864C22.6217 183.806 29.1609 183.895 35.9653 180.54C46.4812 175.421 57.8807 170.919 68.6617 165.976C71.5779 164.652 73.3452 164.564 75.201 165.623C75.6428 165.888 76.0847 166.153 76.5265 166.594C77.4986 167.389 78.559 168.183 79.7078 168.889C82.3588 170.213 85.3634 171.096 89.6934 170.478Z" fill="#E8254E"/>
<path d="M20.3241 114.428C18.6451 118.223 17.2312 121.578 15.6406 125.285C10.6919 122.46 6.45022 119.989 1.41321 117.076C7.86412 116.282 13.6081 115.399 20.3241 114.428Z" fill="#E8254E"/>
<path d="M45.8626 146.028C53.374 150.441 53.3739 157.503 45.951 161.828C38.3513 166.241 26.4215 166.241 18.7335 161.828C10.957 157.326 10.7803 150.529 18.38 146.116C26.1564 141.614 38.1745 141.614 45.8626 146.028ZM24.1239 158.65C28.7191 161.298 35.9653 161.298 40.5605 158.65C44.9789 156.09 45.0673 151.853 40.6489 149.294C40.5605 149.294 40.5605 149.205 40.4721 149.205C35.877 146.557 28.6307 146.557 24.0356 149.205C19.5288 151.853 19.4404 155.914 23.9472 158.562C24.0356 158.65 24.0356 158.65 24.1239 158.65Z" fill="#F4F4F4"/>
<path d="M19.7055 83.5343C30.3981 95.98 43.6534 106.749 59.7364 116.017C75.8195 125.285 94.6421 132.964 116.204 139.143C102.86 145.057 89.605 150.882 75.8195 156.973C74.7591 155.914 73.6987 155.208 73.1685 154.413C66.8943 145.763 60.5318 137.024 54.4343 128.374C53.8158 127.492 53.9925 126.256 54.5227 125.285C55.5831 123.166 54.9645 121.313 52.8437 120.077C52.1367 119.724 51.3414 119.371 50.3694 119.106C46.4812 118.135 41.7976 119.106 39.9419 121.313C38.3512 123.255 39.0582 125.197 41.7093 126.697C42.2395 127.05 42.9464 127.315 43.6534 127.58C44.0952 127.756 44.6254 128.021 44.9789 128.198C45.8626 128.727 46.5695 129.345 47.0997 129.963C53.9925 139.319 60.7969 148.676 67.6896 158.032C68.75 159.444 68.6617 160.239 66.3641 161.21C54.5227 166.329 42.7697 171.449 31.1934 176.833C27.2168 178.687 23.2402 179.04 19.0869 177.628C10.4268 174.626 1.41316 171.89 -6.45164 168.271C-11.4887 165.976 -16.2606 163.505 -20.7674 160.857C-29.6926 155.737 -37.5574 150 -43.9199 143.468C-44.5385 142.85 -44.9804 142.232 -45.5989 141.703C-49.3104 138.084 -49.2221 135.083 -44.1851 131.375C-23.4184 116.105 -3.27038 100.482 17.1428 85.0349C17.7614 84.5935 18.8218 84.0639 19.7055 83.5343ZM45.9509 146.028C38.1745 141.526 26.1564 141.614 18.3799 146.204C10.8686 150.618 11.0453 157.414 18.7334 161.828C26.4215 166.241 38.4396 166.241 45.9509 161.828C53.4623 157.503 53.4623 150.441 45.9509 146.028ZM-8.39576 118.223C-6.8935 119.106 -5.47959 119.989 -3.88896 120.871C-2.82854 121.489 -1.85648 122.019 -0.796058 122.637C0.441103 123.343 1.5899 124.049 2.82706 124.667C5.03628 125.903 7.24549 127.227 9.45471 128.551C10.8686 129.345 12.2825 130.228 13.7848 131.022C17.4079 133.052 20.5008 132.523 21.7379 129.698C24.3006 124.049 26.6866 118.4 28.9842 112.663C29.5144 111.339 29.2493 110.368 28.2772 109.838C27.3052 109.308 25.7145 109.132 23.5937 109.397C13.608 110.809 3.71074 112.221 -6.18655 113.722C-10.8701 114.428 -11.6654 116.193 -8.39576 118.223ZM7.33385 141.967C9.80817 140.555 9.71981 139.231 7.33385 137.819C4.24095 136.054 1.23642 134.288 -1.85648 132.523C-4.59591 130.934 -7.42371 129.345 -10.1631 127.756C-12.6375 126.344 -14.935 126.432 -17.321 127.845C-23.0649 131.199 -28.8089 134.553 -34.6412 137.907C-37.0272 139.319 -37.2923 140.643 -34.818 142.056C-31.9018 143.733 -28.8973 145.498 -25.9811 147.175C-23.065 148.852 -20.0604 150.618 -17.1443 152.295C-14.8467 153.619 -12.5491 153.531 -10.3399 152.206C-7.51208 150.529 -4.59591 148.852 -1.67974 147.175C1.32479 145.41 4.32932 143.645 7.33385 141.967Z" fill="#E8254E"/>
<path d="M21.738 129.61C20.5008 132.435 17.4079 132.964 13.7848 130.934C12.2825 130.14 10.8686 129.345 9.45475 128.463C7.24553 127.227 5.03632 125.903 2.8271 124.579C1.58994 123.873 0.441143 123.166 -0.796018 122.549C-1.85644 121.931 -2.91686 121.401 -3.88892 120.783C-5.39118 119.901 -6.89346 119.018 -8.39572 118.135C-11.6654 116.105 -10.87 114.34 -6.36324 113.634C3.53404 112.133 13.5197 110.721 23.417 109.308C25.6262 109.044 27.2168 109.132 28.1005 109.75C29.0726 110.279 29.3377 111.25 28.8075 112.574C26.6866 118.312 24.3007 123.961 21.738 129.61ZM1.4132 117.164C6.45021 120.077 10.6919 122.549 15.6405 125.373C17.2312 121.578 18.6451 118.312 20.3241 114.516C13.6081 115.399 7.86411 116.282 1.4132 117.164Z" fill="#F4F4F4"/>
<path d="M127.339 128.904C128.045 130.581 128.399 133.141 126.808 134.112C125.306 134.994 120.534 134.818 117.971 134.2C109.311 131.817 100.474 129.345 92.6097 126.168C82.8007 122.196 73.8755 117.429 64.5968 113.104C51.7833 104.895 39.5001 96.6862 31.1051 86.7119C29.4261 84.77 28.1006 82.6516 27.3052 80.5332C26.0681 77.3556 28.2773 75.9433 33.5794 76.6494C39.235 77.3556 44.979 78.3265 50.1044 79.9153C65.7456 84.6818 79.6195 90.5957 91.6376 97.5688C103.567 104.454 113.641 112.31 122.036 121.225C124.422 123.52 126.19 126.168 127.339 128.904Z" fill="#E8254E"/>
<path d="M215.619 131.817L215.53 153.442C215.53 153.531 215.53 153.531 215.53 153.619L215.619 131.993C215.619 131.905 215.619 131.905 215.619 131.817Z" fill="#D42247"/>
<path d="M215.619 131.993L215.53 153.619C215.53 154.06 215.442 154.413 215.354 154.855L215.442 133.229C215.619 132.788 215.619 132.435 215.619 131.993Z" fill="#D52247"/>
<path d="M215.53 133.229L215.442 154.855C215.354 155.296 215.265 155.649 215.089 156.09L215.177 134.465C215.265 134.023 215.442 133.582 215.53 133.229Z" fill="#D62348"/>
<path d="M215.177 134.376L215.089 156.002C214.912 156.443 214.735 156.796 214.558 157.238L214.647 135.612C214.823 135.171 215 134.818 215.177 134.376Z" fill="#D82348"/>
<path d="M214.558 135.612L214.47 157.238C214.205 157.679 213.94 158.12 213.586 158.473L213.675 136.848C214.028 136.495 214.382 136.053 214.558 135.612Z" fill="#D92349"/>
<path d="M213.763 136.848L213.675 158.473C213.321 158.915 212.879 159.444 212.349 159.886L212.437 138.26C212.968 137.819 213.409 137.378 213.763 136.848Z" fill="#DB2349"/>
<path d="M212.437 138.26L212.349 159.886C211.642 160.592 210.758 161.21 209.698 161.828L209.786 140.202C210.847 139.584 211.731 138.966 212.437 138.26Z" fill="#DC234A"/>
<path d="M209.786 140.202L209.698 161.828C209.61 161.916 209.521 161.916 209.433 162.004L209.521 140.379C209.61 140.29 209.698 140.29 209.786 140.202Z" fill="#DE244A"/>
<path d="M-1.67975 147.175C-4.59591 148.852 -7.51208 150.529 -10.3399 152.207C-12.6375 153.531 -14.8467 153.619 -17.1443 152.295C-20.0604 150.618 -23.065 148.852 -25.9811 147.175C-28.8973 145.498 -31.9018 143.733 -34.818 142.056C-37.2923 140.643 -37.0272 139.319 -34.6412 137.907C-28.8089 134.553 -23.0649 131.199 -17.321 127.845C-14.935 126.432 -12.6375 126.344 -10.1631 127.756C-7.33534 129.345 -4.59591 131.022 -1.85648 132.611C1.14805 134.376 4.24095 136.142 7.24549 137.819C9.71981 139.231 9.80817 140.555 7.33385 141.967C4.32931 143.645 1.32478 145.41 -1.67975 147.175ZM-6.80513 144.086C-0.177484 140.202 1.05968 140.202 -3.35875 137.642C-4.06569 137.201 -4.94939 136.76 -5.92144 136.142C-6.18655 135.965 -6.54002 135.789 -6.80513 135.612C-7.42371 135.259 -7.95392 134.906 -8.48413 134.641C-9.01434 134.288 -9.54456 134.023 -9.89803 133.759C-13.8746 131.464 -13.963 132.17 -20.7674 136.054C-26.7764 139.496 -27.8369 139.761 -24.744 141.526C-23.7719 142.056 -22.358 142.85 -20.5906 143.821C-18.7349 144.88 -17.4977 145.675 -16.5257 146.293C-13.256 148.411 -13.0793 147.705 -6.80513 144.086Z" fill="#F4F4F4"/>
<path d="M209.521 140.379V162.004L55.2297 251.508L55.318 229.882L209.521 140.379Z" fill="#E1244B"/>
<path d="M25.5378 229.882L25.4495 251.508L-129.814 162.004L-129.726 140.379L25.5378 229.882Z" fill="#D02246"/>
<path d="M55.3181 229.882L55.2297 251.508C53.8158 252.302 52.3135 253.008 50.6345 253.538L50.7229 231.912C52.4019 231.383 53.9042 230.676 55.3181 229.882Z" fill="#DE244A"/>
<path d="M50.7229 231.912L50.6345 253.538C49.3974 253.979 47.9835 254.244 46.658 254.509L46.7463 232.883C48.0719 232.618 49.4857 232.353 50.7229 231.912Z" fill="#DC234A"/>
<path d="M46.7463 232.883L46.6579 254.509C45.7742 254.685 44.8906 254.773 43.9185 254.862L44.0069 233.236C44.9789 233.236 45.8626 233.06 46.7463 232.883Z" fill="#DB2349"/>
<path d="M44.0069 233.324L43.9185 254.95C43.1232 255.038 42.3278 255.038 41.5325 255.127L41.6209 233.501C42.5046 233.413 43.2115 233.324 44.0069 233.324Z" fill="#D92349"/>
<path d="M41.7093 233.413L41.6209 255.038C40.9139 255.038 40.207 255.038 39.4117 255.038L39.5001 233.413C40.207 233.501 40.914 233.501 41.7093 233.413Z" fill="#D82348"/>
<path d="M39.5001 233.413L39.4117 255.038C38.7048 255.038 37.9978 254.95 37.2909 254.95L37.3793 233.324C38.0862 233.413 38.7932 233.413 39.5001 233.413Z" fill="#D62348"/>
<path d="M37.3792 233.324L37.2908 254.95C36.5839 254.862 35.8769 254.773 35.2584 254.685L35.3467 233.06C36.0537 233.236 36.7606 233.324 37.3792 233.324Z" fill="#D52247"/>
<path d="M35.3467 233.148L35.2584 254.773C34.5514 254.685 33.8445 254.509 33.1375 254.42L33.2259 232.795C33.9328 232.883 34.6398 232.971 35.3467 233.148Z" fill="#D42247"/>
<path d="M33.2259 232.707L33.1375 254.332C32.4305 254.156 31.6352 253.979 30.9283 253.803L31.0167 232.177C31.812 232.442 32.5189 232.618 33.2259 232.707Z" fill="#D22246"/>
<path d="M31.0167 232.177L30.9283 253.802C30.0446 253.538 29.1609 253.273 28.3656 252.92L28.454 231.294C29.3377 231.647 30.2213 231.912 31.0167 232.177Z" fill="#D12246"/>
<path d="M28.5424 231.382L28.454 253.008C27.3936 252.566 26.4215 252.125 25.4495 251.595L25.5378 229.97C26.4215 230.411 27.4819 230.941 28.5424 231.382Z" fill="#CF2145"/>
</g>
<defs>
<filter id="filter0_d_49_164" x="-240" y="0" width="559.641" height="433.127" filterUnits="userSpaceOnUse" color-interpolation-filters="sRGB">
<feFlood flood-opacity="0" result="BackgroundImageFix"/>
<feColorMatrix in="SourceAlpha" type="matrix" values="0 0 0 0 0 0 0 0 0 0 0 0 0 0 0 0 0 0 127 0" result="hardAlpha"/>
<feOffset dy="74"/>
<feGaussianBlur stdDeviation="52"/>
<feColorMatrix type="matrix" values="0 0 0 0 0.94902 0 0 0 0 0.152941 0 0 0 0 0.317647 0 0 0 0.15 0"/>
<feBlend mode="normal" in2="BackgroundImageFix" result="effect1_dropShadow_49_164"/>
<feBlend mode="normal" in="SourceGraphic" in2="effect1_dropShadow_49_164" result="shape"/>
</filter>
</defs>
</svg>
