<svg width="418" height="342" viewBox="0 0 418 342" fill="none" xmlns="http://www.w3.org/2000/svg">
<g filter="url(#filter0_d_33_1327)">
<g clip-path="url(#clip0_33_1327)">
<path d="M243.454 70.8065L243.401 83.6764C243.401 83.5188 243.295 83.4137 243.032 83.2561C240.554 81.8378 238.129 80.472 235.704 79.0537C233.278 77.6354 230.853 76.2696 228.428 74.8513C228.323 74.7988 228.217 74.7463 228.164 74.6937L228.217 61.8239C228.323 61.8764 228.375 61.9289 228.481 61.9814C230.906 63.3998 233.331 64.7655 235.756 66.1839C238.181 67.6022 240.607 68.9679 243.085 70.3863C243.348 70.5439 243.454 70.6489 243.454 70.8065Z" fill="#CF2145"/>
<path d="M228.217 61.8239L228.164 74.6937C228.112 74.6937 228.112 74.6412 228.059 74.6412L228.112 61.7713C228.112 61.8239 228.164 61.8239 228.217 61.8239Z" fill="#D12246"/>
<path d="M228.112 61.7713L228.059 74.6412H228.006L228.059 61.7713C228.059 61.7713 228.059 61.7713 228.112 61.7713Z" fill="#D22246"/>
<path d="M228.006 61.7713V74.6412H227.953L228.006 61.7713C228.006 61.7713 228.006 61.7713 228.006 61.7713Z" fill="#D42247"/>
<path d="M227.953 61.7713L227.901 74.6412H227.848L227.953 61.7713Z" fill="#D52247"/>
<path d="M227.901 61.7713L227.848 74.6412H227.795L227.901 61.7713Z" fill="#D62348"/>
<path d="M227.848 61.7713L227.795 74.6412H227.743L227.848 61.7713Z" fill="#D82348"/>
<path d="M227.795 61.7713L227.743 74.6412H227.69L227.743 61.7713C227.795 61.7713 227.795 61.7713 227.795 61.7713Z" fill="#D92349"/>
<path d="M227.743 61.7713L227.69 74.6412H227.637L227.69 61.7713C227.69 61.7713 227.743 61.7713 227.743 61.7713Z" fill="#DB2349"/>
<path d="M227.69 61.7713L227.637 74.6412C227.584 74.6412 227.532 74.6412 227.479 74.6937L227.532 61.8239C227.584 61.7713 227.637 61.7713 227.69 61.7713Z" fill="#DC234A"/>
<path d="M227.584 61.8239L227.532 74.6937C227.426 74.7463 227.321 74.7988 227.163 74.8513C224.316 76.5323 221.469 78.1607 218.569 79.8417C218.569 79.8417 218.516 79.8417 218.516 79.8942L218.569 67.0243C218.569 67.0243 218.622 67.0243 218.622 66.9718C221.521 65.3434 224.368 63.6624 227.215 61.9814C227.321 61.8764 227.426 61.8239 227.584 61.8239Z" fill="#DE244A"/>
<path d="M227.584 61.8239L227.532 74.6938C227.426 74.7463 227.321 74.7988 227.163 74.8514C224.316 76.5323 221.469 78.1608 218.569 79.8417C218.569 79.8417 218.516 79.8417 218.516 79.8942L218.569 67.0244C218.569 67.0244 218.622 67.0244 218.622 66.9718C221.521 65.3434 224.368 63.6624 227.215 61.9815C227.321 61.8764 227.426 61.8239 227.584 61.8239Z" fill="#DE244A"/>
<path d="M243.454 70.8065L243.401 83.6764C243.401 83.5188 243.295 83.4138 243.032 83.2562C240.554 81.8379 238.129 80.4721 235.704 79.0538C233.278 77.6354 230.853 76.2697 228.428 74.8514C228.323 74.7988 228.217 74.7463 228.164 74.6938L228.217 61.8239C228.323 61.8764 228.375 61.9289 228.481 61.9815C230.906 63.3998 233.331 64.7656 235.756 66.1839C238.181 67.6022 240.607 68.968 243.085 70.3863C243.348 70.5439 243.454 70.6489 243.454 70.8065Z" fill="#CF2145"/>
<path d="M243.454 70.8065L243.401 83.6764C243.401 83.5188 243.295 83.4138 243.032 83.2562C240.554 81.8379 238.129 80.4721 235.704 79.0538C233.278 77.6354 230.853 76.2697 228.428 74.8514C228.323 74.7988 228.217 74.7463 228.164 74.6938L228.217 61.8239C228.323 61.8764 228.375 61.9289 228.481 61.9815C230.906 63.3998 233.331 64.7656 235.756 66.1839C238.181 67.6022 240.607 68.968 243.085 70.3863C243.348 70.5439 243.454 70.6489 243.454 70.8065Z" fill="#CF2145"/>
<path d="M226.108 72.2774L226.055 85.1472C226.055 84.9896 225.95 84.8321 225.634 84.727C224.421 84.0441 223.261 83.3612 222.049 82.6783C221.68 82.4682 221.258 82.2056 220.889 81.9954C220.098 81.5227 219.307 81.1024 218.516 80.6297C218.253 80.4721 218.147 80.367 218.147 80.2619L218.2 67.3921C218.2 67.4971 218.305 67.6547 218.569 67.7598C219.36 68.2325 220.151 68.6528 220.941 69.1256C221.311 69.3357 221.732 69.5983 222.101 69.8084C223.261 70.4913 224.474 71.1742 225.686 71.8571C225.95 71.9622 226.108 72.1198 226.108 72.2774Z" fill="#DADADA"/>
<path d="M226.108 72.2774L226.055 85.1472L226.108 72.2774Z" fill="#D42247"/>
<path d="M226.108 72.2774L226.055 85.1472V85.1998L226.108 72.2774Z" fill="#D52247"/>
<path d="M226.108 72.3299L226.055 85.1998V85.2523L226.108 72.3824C226.055 72.3299 226.055 72.3299 226.108 72.3299Z" fill="#D62348"/>
<path d="M226.055 72.3824L226.003 85.2523C226.003 85.2523 226.003 85.3048 225.95 85.3048L226.003 72.4349C226.055 72.4349 226.055 72.3824 226.055 72.3824Z" fill="#D82348"/>
<path d="M226.055 72.435L226.003 85.3048C226.003 85.3574 225.95 85.3574 225.95 85.4099L226.003 72.54C226.003 72.4875 226.003 72.4875 226.055 72.435Z" fill="#D92349"/>
<path d="M225.95 72.54L225.897 85.4099L225.845 85.4624C223.894 87.6162 222.049 89.8224 220.098 91.9762C219.887 92.1863 219.729 92.4489 219.465 92.659L219.518 79.7892C219.729 79.579 219.94 79.3164 220.151 79.1063C222.101 76.9525 223.999 74.7988 225.897 72.5925C225.95 72.5925 225.95 72.54 225.95 72.54Z" fill="#DB2349"/>
<path d="M225.95 72.54L225.897 85.4099L225.845 85.4624C223.894 87.6162 222.049 89.8224 220.098 91.9762C219.887 92.1863 219.729 92.4489 219.465 92.659L219.518 79.7892C219.729 79.579 219.94 79.3164 220.151 79.1063C222.101 76.9525 223.999 74.7988 225.897 72.5925C225.95 72.5925 225.95 72.54 225.95 72.54Z" fill="#DB2349"/>
<path d="M225.95 72.54L225.897 85.4099L225.845 85.4624C223.894 87.6162 222.049 89.8224 220.098 91.9762C219.887 92.1863 219.729 92.4489 219.465 92.659L219.518 79.7892C219.729 79.579 219.94 79.3164 220.151 79.1063C222.101 76.9525 223.999 74.7988 225.897 72.5925C225.95 72.5925 225.95 72.54 225.95 72.54Z" fill="#DB2349"/>
<path d="M219.518 79.7892L219.465 92.659C219.36 92.7641 219.202 92.8692 219.096 92.9742L219.149 80.1044C219.307 79.9468 219.413 79.8942 219.518 79.7892Z" fill="#DC234A"/>
<path d="M219.149 80.0518L219.096 92.9217C218.938 93.0268 218.78 93.0793 218.569 93.1844L218.622 80.3145C218.833 80.2619 218.991 80.1569 219.149 80.0518Z" fill="#DE244A"/>
<path d="M218.569 80.3145L218.516 93.1844C218.358 93.2369 218.2 93.2894 217.989 93.2894L218.042 80.4195C218.253 80.4195 218.464 80.367 218.569 80.3145Z" fill="#DC234A"/>
<path d="M218.095 80.4195L218.042 93.2894C217.936 93.2894 217.778 93.3419 217.62 93.3419C211.61 93.9723 205.705 94.8128 199.747 95.5482C194.317 96.2311 188.887 96.8614 183.404 97.5443C176.233 98.4373 169.116 99.3304 161.946 100.223C159.573 100.539 157.201 100.801 154.828 101.116L154.881 88.2465C157.254 87.9313 159.626 87.6687 161.999 87.3535C169.169 86.4605 176.286 85.5675 183.456 84.6745C188.887 83.9916 194.317 83.3612 199.8 82.6783C205.758 81.9429 211.715 81.1549 217.673 80.4721C217.831 80.4721 217.936 80.4721 218.095 80.4195Z" fill="#DB2349"/>
<path d="M218.095 80.4195L218.042 93.2894C217.936 93.2894 217.778 93.3419 217.62 93.3419C211.61 93.9723 205.705 94.8128 199.747 95.5482C194.317 96.2311 188.887 96.8614 183.404 97.5443C176.233 98.4373 169.116 99.3304 161.946 100.223C159.573 100.539 157.201 100.801 154.828 101.116L154.881 88.2465C157.254 87.9313 159.626 87.6687 161.999 87.3535C169.169 86.4605 176.286 85.5675 183.456 84.6745C188.887 83.9916 194.317 83.3612 199.8 82.6783C205.758 81.9429 211.715 81.1549 217.673 80.4721C217.831 80.4721 217.936 80.4721 218.095 80.4195Z" fill="#DB2349"/>
<path d="M218.095 80.4195L218.042 93.2894C217.936 93.2894 217.778 93.3419 217.62 93.3419C211.61 93.9723 205.705 94.8128 199.747 95.5482C194.317 96.2311 188.887 96.8614 183.404 97.5443C176.233 98.4373 169.116 99.3304 161.946 100.223C159.573 100.539 157.201 100.801 154.828 101.116L154.881 88.2465C157.254 87.9313 159.626 87.6687 161.999 87.3535C169.169 86.4605 176.286 85.5675 183.456 84.6745C188.887 83.9916 194.317 83.3612 199.8 82.6783C205.758 81.9429 211.715 81.1549 217.673 80.4721C217.831 80.4721 217.936 80.4721 218.095 80.4195Z" fill="#DB2349"/>
<path d="M218.095 80.4195L218.042 93.2894C217.936 93.2894 217.778 93.3419 217.62 93.3419C211.61 93.9723 205.705 94.8128 199.747 95.5482C194.317 96.2311 188.887 96.8614 183.404 97.5443C176.233 98.4373 169.116 99.3304 161.946 100.223C159.573 100.539 157.201 100.801 154.828 101.116L154.881 88.2465C157.254 87.9313 159.626 87.6687 161.999 87.3535C169.169 86.4605 176.286 85.5675 183.456 84.6745C188.887 83.9916 194.317 83.3612 199.8 82.6783C205.758 81.9429 211.715 81.1549 217.673 80.4721C217.831 80.4721 217.936 80.4721 218.095 80.4195Z" fill="#DB2349"/>
<path d="M218.095 80.4195L218.042 93.2894C217.936 93.2894 217.778 93.3419 217.62 93.3419C211.61 93.9723 205.705 94.8128 199.747 95.5482C194.317 96.2311 188.887 96.8614 183.404 97.5443C176.233 98.4373 169.116 99.3304 161.946 100.223C159.573 100.539 157.201 100.801 154.828 101.116L154.881 88.2465C157.254 87.9313 159.626 87.6687 161.999 87.3535C169.169 86.4605 176.286 85.5675 183.456 84.6745C188.887 83.9916 194.317 83.3612 199.8 82.6783C205.758 81.9429 211.715 81.1549 217.673 80.4721C217.831 80.4721 217.936 80.4721 218.095 80.4195Z" fill="#DB2349"/>
<path d="M218.095 80.4195L218.042 93.2894C217.936 93.2894 217.778 93.3419 217.62 93.3419C211.61 93.9723 205.705 94.8128 199.747 95.5482C194.317 96.2311 188.887 96.8614 183.404 97.5443C176.233 98.4373 169.116 99.3304 161.946 100.223C159.573 100.539 157.201 100.801 154.828 101.116L154.881 88.2465C157.254 87.9313 159.626 87.6687 161.999 87.3535C169.169 86.4605 176.286 85.5675 183.456 84.6745C188.887 83.9916 194.317 83.3612 199.8 82.6783C205.758 81.9429 211.715 81.1549 217.673 80.4721C217.831 80.4721 217.936 80.4721 218.095 80.4195Z" fill="#DB2349"/>
<path d="M218.095 80.4195L218.042 93.2894C217.936 93.2894 217.778 93.3419 217.62 93.3419C211.61 93.9723 205.705 94.8128 199.747 95.5482C194.317 96.2311 188.887 96.8614 183.404 97.5443C176.233 98.4373 169.116 99.3304 161.946 100.223C159.573 100.539 157.201 100.801 154.828 101.116L154.881 88.2465C157.254 87.9313 159.626 87.6687 161.999 87.3535C169.169 86.4605 176.286 85.5675 183.456 84.6745C188.887 83.9916 194.317 83.3612 199.8 82.6783C205.758 81.9429 211.715 81.1549 217.673 80.4721C217.831 80.4721 217.936 80.4721 218.095 80.4195Z" fill="#DB2349"/>
<path d="M218.095 80.4195L218.042 93.2894C217.936 93.2894 217.778 93.3419 217.62 93.3419C211.61 93.9723 205.705 94.8128 199.747 95.5482C194.317 96.2311 188.887 96.8614 183.404 97.5443C176.233 98.4373 169.116 99.3304 161.946 100.223C159.573 100.539 157.201 100.801 154.828 101.116L154.881 88.2465C157.254 87.9313 159.626 87.6687 161.999 87.3535C169.169 86.4605 176.286 85.5675 183.456 84.6745C188.887 83.9916 194.317 83.3612 199.8 82.6783C205.758 81.9429 211.715 81.1549 217.673 80.4721C217.831 80.4721 217.936 80.4721 218.095 80.4195Z" fill="#DB2349"/>
<path d="M218.095 80.4195L218.042 93.2894C217.936 93.2894 217.778 93.3419 217.62 93.3419C211.61 93.9723 205.705 94.8128 199.747 95.5482C194.317 96.2311 188.887 96.8614 183.404 97.5443C176.233 98.4373 169.116 99.3304 161.946 100.223C159.573 100.539 157.201 100.801 154.828 101.116L154.881 88.2465C157.254 87.9313 159.626 87.6687 161.999 87.3535C169.169 86.4605 176.286 85.5675 183.456 84.6745C188.887 83.9916 194.317 83.3612 199.8 82.6783C205.758 81.9429 211.715 81.1549 217.673 80.4721C217.831 80.4721 217.936 80.4721 218.095 80.4195Z" fill="#DB2349"/>
<path d="M211.662 90.5578L211.61 103.428C210.292 103.585 209.132 103.69 207.972 103.795C199.589 104.741 191.259 105.634 182.876 106.58C177.815 107.157 172.701 107.683 167.587 108.26L167.64 95.3906C172.754 94.8653 177.815 94.2875 182.929 93.7097C191.312 92.7641 199.642 91.8711 208.025 90.9256C209.185 90.8205 210.397 90.7154 211.662 90.5578Z" fill="#E7E7E7"/>
<path d="M167.64 95.3906L167.587 108.26C167.534 108.26 167.534 108.26 167.482 108.26L167.534 95.3906C167.587 95.3906 167.64 95.3906 167.64 95.3906Z" fill="#E5E5E5"/>
<path d="M167.534 95.3906L167.482 108.26C167.429 108.26 167.376 108.26 167.323 108.26L167.376 95.3906C167.429 95.3906 167.482 95.3906 167.534 95.3906Z" fill="#E3E3E3"/>
<path d="M167.376 95.3906L167.323 108.26C167.271 108.26 167.218 108.26 167.165 108.26L167.218 95.3906C167.271 95.3906 167.323 95.3906 167.376 95.3906Z" fill="#E2E2E2"/>
<path d="M167.218 95.3906L167.165 108.26C167.113 108.26 167.06 108.26 167.007 108.26L167.06 95.3906C167.113 95.3381 167.165 95.3381 167.218 95.3906Z" fill="#E0E0E0"/>
<path d="M167.06 95.3381L167.007 108.208C166.954 108.208 166.902 108.208 166.849 108.155L166.902 95.2856C166.954 95.3381 167.007 95.3381 167.06 95.3381Z" fill="#DFDFDF"/>
<path d="M166.902 95.3381L166.849 108.208C166.796 108.208 166.744 108.208 166.691 108.155L166.744 95.2856C166.796 95.2856 166.849 95.2856 166.902 95.3381Z" fill="#DDDDDD"/>
<path d="M166.744 95.2855L166.691 108.155C166.638 108.155 166.585 108.103 166.533 108.103L166.585 95.233C166.638 95.233 166.691 95.2855 166.744 95.2855Z" fill="#DCDCDC"/>
<path d="M166.585 95.233L166.533 108.103C166.48 108.103 166.427 108.05 166.427 108.05C163.791 106.58 161.208 105.056 158.572 103.585C157.254 102.85 155.988 102.062 154.67 101.327L154.723 88.4566C156.041 89.1921 157.306 89.98 158.624 90.7154C161.208 92.2388 163.844 93.7096 166.48 95.1805C166.533 95.1805 166.585 95.233 166.585 95.233Z" fill="#DADADA"/>
<path d="M211.662 90.5578L211.61 103.428C211.557 103.585 211.504 103.69 211.452 103.743L211.504 90.873C211.557 90.8205 211.61 90.7154 211.662 90.5578Z" fill="#D82348"/>
<path d="M211.662 90.5578L211.61 103.428C211.557 103.585 211.504 103.69 211.452 103.743L211.504 90.873C211.557 90.8205 211.61 90.7154 211.662 90.5578Z" fill="#D82348"/>
<path d="M211.504 90.873L211.452 103.743C211.452 103.743 211.452 103.795 211.399 103.795C209.923 105.792 208.394 107.84 206.917 109.836C202.647 115.615 198.324 121.446 194.053 127.224C194.001 127.276 194.001 127.329 194.001 127.329L194.053 114.459C194.053 114.407 194.106 114.407 194.106 114.354C198.429 108.576 202.7 102.745 206.97 96.9665C208.446 94.9704 209.975 92.9217 211.452 90.9255C211.504 90.9255 211.504 90.9255 211.504 90.873Z" fill="#D92349"/>
<path d="M313.89 90.6104L313.837 103.48C313.837 103.533 313.837 103.533 313.837 103.585L313.89 90.7154C313.89 90.6629 313.89 90.6629 313.89 90.6104Z" fill="#D42247"/>
<path d="M313.89 90.7154L313.837 103.585C313.837 103.848 313.784 104.058 313.732 104.321L313.784 91.4509C313.89 91.1882 313.89 90.9781 313.89 90.7154Z" fill="#D52247"/>
<path d="M313.837 91.4509L313.784 104.321C313.732 104.583 313.679 104.794 313.574 105.056L313.626 92.1863C313.732 91.9236 313.784 91.661 313.837 91.4509Z" fill="#D62348"/>
<path d="M313.626 92.1338L313.574 105.004C313.468 105.266 313.363 105.476 313.257 105.739L313.31 92.8692C313.415 92.6591 313.521 92.3964 313.626 92.1338Z" fill="#D82348"/>
<path d="M313.257 92.8692L313.205 105.739C313.046 106.002 312.888 106.264 312.677 106.474L312.73 93.6046C312.994 93.3945 313.152 93.1318 313.257 92.8692Z" fill="#D92349"/>
<path d="M312.783 93.6046L312.73 106.474C312.519 106.737 312.256 107.052 311.939 107.315L311.992 94.4451C312.308 94.1824 312.572 93.9198 312.783 93.6046Z" fill="#DB2349"/>
<path d="M311.992 94.4451L311.939 107.315C311.517 107.735 310.99 108.103 310.358 108.471L310.41 95.6007C311.043 95.233 311.57 94.8653 311.992 94.4451Z" fill="#DC234A"/>
<path d="M310.41 95.6007L310.358 108.471C310.305 108.523 310.252 108.523 310.199 108.576L310.252 95.7058C310.305 95.6533 310.358 95.6533 310.41 95.6007Z" fill="#DE244A"/>
<path d="M107.853 95.7058L107.801 108.576C105.323 107.157 104.11 105.266 104.11 103.428L104.163 90.5578C104.163 92.3964 105.375 94.2875 107.853 95.7058Z" fill="#CF2145"/>
<path d="M211.504 90.873L211.452 103.743C211.452 103.743 211.452 103.795 211.399 103.795C209.923 105.792 208.394 107.84 206.917 109.836C202.647 115.615 198.324 121.446 194.053 127.224C194.001 127.276 194.001 127.329 194.001 127.329L194.053 114.459C194.053 114.407 194.106 114.407 194.106 114.354C198.429 108.576 202.7 102.745 206.97 96.9665C208.446 94.9704 209.975 92.9217 211.452 90.9255C211.504 90.9255 211.504 90.9255 211.504 90.873Z" fill="#D92349"/>
<path d="M243.454 70.8065L243.401 83.6764L243.454 70.8065Z" fill="#DFDFDF"/>
<path d="M243.454 70.8065L243.401 83.6764V83.7289L243.454 70.859V70.8065Z" fill="#E0E0E0"/>
<path d="M243.454 70.8591L243.401 83.7289V83.7815L243.454 70.9116V70.8591Z" fill="#E2E2E2"/>
<path d="M243.454 70.9116L243.401 83.7815C243.401 83.834 243.348 83.834 243.348 83.8865L243.401 71.0166C243.401 70.9641 243.401 70.9641 243.454 70.9116Z" fill="#E3E3E3"/>
<path d="M243.401 71.0166L243.348 83.8865C243.295 83.9391 243.295 83.9916 243.243 84.0441C241.239 86.7757 239.236 89.4547 237.232 92.1863C233.911 96.6513 230.59 101.116 227.321 105.581C223.894 110.204 220.52 114.827 217.093 119.449C215.933 121.025 214.826 122.549 213.613 124.125C213.56 124.177 213.56 124.23 213.56 124.23L213.613 111.36C213.613 111.307 213.666 111.307 213.666 111.255C214.826 109.679 215.986 108.155 217.146 106.58C220.572 101.957 223.947 97.3342 227.374 92.7116C230.695 88.2465 234.016 83.7815 237.285 79.3164C239.289 76.5848 241.292 73.9058 243.295 71.1742C243.295 71.1217 243.348 71.0692 243.401 71.0166Z" fill="#E5E5E5"/>
<path d="M213.56 111.36L213.508 124.23C213.508 124.282 213.455 124.282 213.455 124.282L213.508 111.412C213.508 111.412 213.508 111.412 213.56 111.36Z" fill="#E3E3E3"/>
<path d="M213.508 111.465L213.455 124.335V124.387L213.508 111.465Z" fill="#E2E2E2"/>
<path d="M213.508 111.517L213.455 124.387V124.44L213.508 111.517Z" fill="#E0E0E0"/>
<path d="M213.508 111.57L213.455 124.387L213.508 111.57Z" fill="#DFDFDF"/>
<path d="M211.504 90.873L211.452 103.743C211.452 103.743 211.452 103.795 211.399 103.795C209.923 105.792 208.394 107.84 206.917 109.836C202.647 115.615 198.324 121.446 194.053 127.224C194.001 127.276 194.001 127.329 194.001 127.329L194.053 114.459C194.053 114.407 194.106 114.407 194.106 114.354C198.429 108.576 202.7 102.745 206.97 96.9665C208.446 94.9704 209.975 92.9217 211.452 90.9255C211.504 90.9255 211.504 90.9255 211.504 90.873Z" fill="#D92349"/>
<path d="M194.053 114.512L194.001 127.381C194.001 127.381 194.001 127.434 193.948 127.434L194.001 114.564C194.001 114.564 194.001 114.512 194.053 114.512Z" fill="#D82348"/>
<path d="M194.001 114.564L193.948 127.434V127.487L194.001 114.564Z" fill="#D62348"/>
<path d="M194.001 114.617L193.948 127.487C193.948 127.487 193.948 127.487 193.948 127.539L194.001 114.617Z" fill="#D52247"/>
<path d="M194.001 114.617L193.948 127.487L194.001 114.617Z" fill="#D42247"/>
<path d="M224.368 115.3L224.316 128.169C224.316 128.064 224.263 128.012 224.158 127.959C224.105 127.907 224.052 127.907 223.999 127.907L224.052 115.037C224.105 115.037 224.158 115.089 224.21 115.089C224.316 115.142 224.368 115.194 224.368 115.3Z" fill="#CF2145"/>
<path d="M223.999 114.984L223.947 127.854C223.894 127.802 223.788 127.802 223.683 127.749C220.414 126.751 217.251 125.753 213.982 124.807C213.877 124.807 213.824 124.755 213.771 124.755L213.824 111.885C213.877 111.885 213.982 111.938 214.035 111.938C217.251 112.936 220.467 113.934 223.736 114.879C223.841 114.932 223.947 114.932 223.999 114.984Z" fill="#D12246"/>
<path d="M213.824 111.833L213.771 124.702C213.719 124.702 213.666 124.65 213.613 124.65C213.508 124.597 213.455 124.492 213.455 124.44L213.508 111.57C213.508 111.675 213.56 111.727 213.666 111.78C213.719 111.833 213.771 111.833 213.824 111.833Z" fill="#CF2145"/>
<path d="M224.368 115.3L224.316 128.117L224.368 115.3Z" fill="#DFDFDF"/>
<path d="M224.368 115.3L224.316 128.169C224.316 128.169 224.316 128.169 224.316 128.222L224.368 115.3Z" fill="#E0E0E0"/>
<path d="M224.368 115.3L224.316 128.169V128.222L224.368 115.3C224.316 115.352 224.316 115.352 224.368 115.3Z" fill="#E2E2E2"/>
<path d="M224.316 115.352L224.263 128.222C224.263 128.222 224.263 128.274 224.21 128.274L224.263 115.405C224.316 115.405 224.316 115.405 224.316 115.352Z" fill="#E3E3E3"/>
<path d="M224.316 115.405L224.263 128.274C224.263 128.327 224.21 128.327 224.21 128.38L224.263 115.51C224.263 115.51 224.263 115.457 224.316 115.405Z" fill="#E5E5E5"/>
<path d="M224.21 115.562L224.157 128.432C224.157 128.485 224.105 128.485 224.105 128.537C222.312 130.533 220.625 132.529 218.885 134.473C218.833 134.578 218.727 134.631 218.622 134.736L218.674 121.866C218.78 121.761 218.885 121.708 218.938 121.603C220.678 119.607 222.365 117.611 224.157 115.667C224.157 115.615 224.21 115.562 224.21 115.562Z" fill="#E7E7E7"/>
<path d="M218.674 121.866L218.622 134.736C218.569 134.788 218.516 134.788 218.516 134.841V121.971C218.569 121.918 218.622 121.918 218.674 121.866Z" fill="#E8E8E8"/>
<path d="M218.516 121.971L218.464 134.841C218.411 134.893 218.411 134.893 218.358 134.946L218.411 122.076C218.464 122.023 218.516 122.023 218.516 121.971Z" fill="#E7E7E7"/>
<path d="M218.411 122.076L218.358 134.946C216.776 134.473 215.248 134.053 213.719 133.58C210.555 132.634 207.445 131.689 204.281 130.743C200.96 129.745 197.691 128.747 194.37 127.802C194.317 127.802 194.212 127.749 194.159 127.749L194.212 114.879C194.264 114.879 194.317 114.932 194.422 114.932C197.744 115.877 201.013 116.875 204.334 117.873C207.497 118.819 210.608 119.765 213.771 120.71C215.3 121.183 216.882 121.603 218.411 122.076Z" fill="#DCDCDC"/>
<path d="M194.212 114.879L194.159 127.749C194.106 127.749 194.053 127.697 194.053 127.697C193.948 127.644 193.948 127.592 193.948 127.539L194.001 114.669C194.001 114.722 194.053 114.774 194.106 114.827C194.159 114.827 194.212 114.827 194.212 114.879Z" fill="#DADADA"/>
<path d="M310.199 85.4624C315.103 88.299 315.155 92.9217 310.252 95.7058L218.253 148.971C213.402 151.808 205.389 151.808 200.485 148.971L107.853 95.7058C102.95 92.8692 102.897 88.2465 107.801 85.4624L199.8 32.1443C204.65 29.3077 212.664 29.3077 217.567 32.1443L310.199 85.4624ZM213.771 120.71C215.3 121.183 216.882 121.603 218.411 122.076C218.622 121.866 218.78 121.761 218.938 121.603C220.678 119.607 222.365 117.611 224.158 115.667C224.421 115.405 224.421 115.247 224.21 115.089C224.105 115.037 223.947 114.984 223.788 114.932C220.52 113.934 217.356 112.936 214.088 111.99C213.93 111.938 213.771 111.885 213.719 111.833C213.508 111.727 213.508 111.57 213.666 111.307C214.826 109.731 215.986 108.208 217.146 106.632C220.572 102.009 223.947 97.3868 227.374 92.7641C230.695 88.299 234.016 83.834 237.285 79.3689C239.289 76.6374 241.292 73.9583 243.296 71.2268C243.506 70.9116 243.612 70.7015 243.137 70.4388C240.659 69.0205 238.234 67.6547 235.809 66.2364C233.384 64.8181 230.959 63.4523 228.533 62.034C228.006 61.7713 227.743 61.7713 227.215 62.034C224.368 63.7149 221.521 65.3434 218.622 67.0243C218.095 67.3395 218.095 67.4971 218.569 67.8123C219.413 68.2851 220.203 68.7053 220.941 69.1781C221.311 69.3882 221.732 69.6509 222.101 69.861C223.261 70.5439 224.474 71.2268 225.634 71.9096C226.108 72.1723 226.161 72.3824 225.845 72.6976C223.894 74.8513 222.049 77.0576 220.098 79.2113C219.571 79.7892 219.254 80.4195 217.62 80.6297C211.61 81.26 205.705 82.1005 199.747 82.8359C194.317 83.5188 188.887 84.1492 183.404 84.8321C176.233 85.7251 169.116 86.6181 161.946 87.5111C159.573 87.8263 157.201 88.0889 154.828 88.4041C154.776 88.4566 154.723 88.5092 154.723 88.6142C156.041 89.3497 157.306 90.1376 158.624 90.873C161.208 92.3964 163.844 93.8672 166.48 95.3381C166.744 95.4957 167.271 95.5482 167.64 95.5482C172.754 95.0229 177.815 94.4451 182.929 93.8672C191.312 92.9217 199.642 92.0287 208.025 91.0831C209.185 90.9781 210.397 90.8205 211.662 90.7154C211.557 90.9256 211.557 91.0306 211.452 91.0831C209.975 93.0793 208.446 95.128 206.97 97.1241C202.7 102.902 198.377 108.733 194.106 114.512C193.948 114.722 193.948 114.827 194.106 114.932C194.159 114.984 194.264 115.037 194.422 115.037C197.744 115.982 201.013 116.98 204.334 117.979C207.497 118.819 210.608 119.765 213.771 120.71Z" fill="#E8254E"/>
<path d="M243.085 70.3863C243.612 70.7015 243.506 70.9116 243.295 71.2268C241.292 73.9583 239.289 76.6374 237.285 79.3689C233.964 83.834 230.642 88.299 227.374 92.7641C223.947 97.3868 220.572 102.009 217.146 106.632C215.986 108.208 214.878 109.731 213.666 111.307C213.455 111.57 213.455 111.727 213.719 111.833C213.824 111.885 213.929 111.938 214.088 111.99C217.304 112.988 220.52 113.986 223.788 114.932C223.999 114.984 224.105 115.037 224.21 115.089C224.474 115.247 224.421 115.405 224.158 115.667C222.365 117.663 220.678 119.66 218.938 121.603C218.833 121.761 218.622 121.918 218.411 122.076C216.829 121.603 215.3 121.183 213.771 120.71C210.608 119.765 207.497 118.819 204.334 117.874C201.013 116.875 197.744 115.877 194.422 114.932C194.264 114.879 194.159 114.827 194.106 114.827C193.895 114.722 193.948 114.617 194.106 114.407C198.429 108.628 202.7 102.797 206.97 97.019C208.446 95.0229 209.975 92.9742 211.452 90.9781C211.504 90.873 211.557 90.768 211.662 90.6104C210.344 90.768 209.185 90.873 208.025 90.9781C199.642 91.9236 191.312 92.8166 182.929 93.7622C177.868 94.34 172.754 94.8653 167.64 95.4431C167.271 95.4957 166.744 95.3906 166.48 95.233C163.844 93.7622 161.26 92.2388 158.624 90.768C157.306 90.0325 156.041 89.2446 154.723 88.5092C154.776 88.4566 154.828 88.4041 154.828 88.299C157.201 87.9839 159.573 87.7212 161.946 87.406C169.116 86.513 176.233 85.62 183.404 84.727C188.834 84.0441 194.264 83.4137 199.747 82.7309C205.705 81.9954 211.662 81.2075 217.62 80.5246C219.254 80.367 219.571 79.7366 220.098 79.1063C222.049 76.9525 223.947 74.7988 225.845 72.5925C226.108 72.2774 226.055 72.0672 225.634 71.8046C224.421 71.1217 223.261 70.4388 222.049 69.7559C221.68 69.5458 221.258 69.2831 220.889 69.073C220.098 68.6002 219.307 68.18 218.516 67.7072C217.989 67.3921 217.989 67.2345 218.516 66.9193C221.416 65.2908 224.263 63.6099 227.11 61.9289C227.584 61.6137 227.901 61.6137 228.428 61.9289C230.853 63.3472 233.278 64.713 235.704 66.1313C238.234 67.6022 240.659 68.968 243.085 70.3863Z" fill="#F4F4F4"/>
<path d="M310.252 95.7058V108.576L218.2 161.841L218.253 148.971L310.252 95.7058Z" fill="#E1244B"/>
<path d="M200.485 148.971L200.433 161.841L107.801 108.576L107.853 95.7058L200.485 148.971Z" fill="#D02246"/>
<path d="M218.253 148.971L218.2 161.841C217.356 162.314 216.46 162.734 215.458 163.049L215.511 150.18C216.513 149.864 217.409 149.444 218.253 148.971Z" fill="#DE244A"/>
<path d="M215.511 150.18L215.458 163.049C214.72 163.312 213.877 163.47 213.086 163.627L213.139 150.757C213.929 150.6 214.773 150.442 215.511 150.18Z" fill="#DC234A"/>
<path d="M213.139 150.757L213.086 163.627C212.559 163.732 212.032 163.785 211.452 163.837L211.504 150.967C212.084 150.967 212.611 150.862 213.139 150.757Z" fill="#DB2349"/>
<path d="M211.504 151.02L211.452 163.89C210.977 163.942 210.503 163.942 210.028 163.995L210.081 151.125C210.608 151.073 211.083 151.02 211.504 151.02Z" fill="#D92349"/>
<path d="M210.134 151.073L210.081 163.942C209.659 163.942 209.237 163.942 208.763 163.942L208.815 151.073C209.237 151.125 209.712 151.125 210.134 151.073Z" fill="#D82348"/>
<path d="M208.815 151.073L208.763 163.942C208.341 163.942 207.919 163.89 207.497 163.89L207.55 151.02C207.972 151.073 208.394 151.073 208.815 151.073Z" fill="#D62348"/>
<path d="M207.55 151.02L207.497 163.89C207.076 163.837 206.654 163.785 206.285 163.732L206.338 150.862C206.759 150.967 207.181 151.02 207.55 151.02Z" fill="#D52247"/>
<path d="M206.338 150.915L206.285 163.785C205.863 163.732 205.441 163.627 205.02 163.575L205.072 150.705C205.494 150.757 205.916 150.81 206.338 150.915Z" fill="#D42247"/>
<path d="M205.072 150.652L205.02 163.522C204.598 163.417 204.123 163.312 203.701 163.207L203.754 150.337C204.229 150.495 204.65 150.6 205.072 150.652Z" fill="#D22246"/>
<path d="M203.807 150.337L203.754 163.207C203.227 163.049 202.7 162.892 202.225 162.682L202.278 149.812C202.752 150.022 203.28 150.232 203.807 150.337Z" fill="#D12246"/>
<path d="M202.278 149.864L202.225 162.734C201.593 162.472 201.013 162.209 200.433 161.894L200.485 149.024C201.013 149.287 201.645 149.602 202.278 149.864Z" fill="#CF2145"/>
</g>
</g>
<defs>
<filter id="filter0_d_33_1327" x="-6" y="-3" width="430" height="349" filterUnits="userSpaceOnUse" color-interpolation-filters="sRGB">
<feFlood flood-opacity="0" result="BackgroundImageFix"/>
<feColorMatrix in="SourceAlpha" type="matrix" values="0 0 0 0 0 0 0 0 0 0 0 0 0 0 0 0 0 0 127 0" result="hardAlpha"/>
<feOffset dy="74"/>
<feGaussianBlur stdDeviation="52"/>
<feColorMatrix type="matrix" values="0 0 0 0 0.94902 0 0 0 0 0.152941 0 0 0 0 0.317647 0 0 0 0.15 0"/>
<feBlend mode="normal" in2="BackgroundImageFix" result="effect1_dropShadow_33_1327"/>
<feBlend mode="normal" in="SourceGraphic" in2="effect1_dropShadow_33_1327" result="shape"/>
</filter>
<clipPath id="clip0_33_1327">
<rect width="209.78" height="133.899" fill="white" transform="translate(104.11 30.0432)"/>
</clipPath>
</defs>
</svg>
