<?xml version="1.0" encoding="utf-8"?>
<!-- Generator: Adobe Illustrator 24.0.1, SVG Export Plug-In . SVG Version: 6.00 Build 0)  -->
<svg version="1.1" id="Ebene_1" xmlns="http://www.w3.org/2000/svg" xmlns:xlink="http://www.w3.org/1999/xlink" x="0px" y="0px"
	 viewBox="0 0 529.5 94.7" style="enable-background:new 0 0 529.5 94.7;" xml:space="preserve">
<style type="text/css">
	.st0{fill:#9FA6B2;}
</style>
<title>Logo_amatus</title>
<path class="st0" d="M65,93.6H46.2v-8.7C41,91.4,34.6,94.6,27,94.6c-7.6,0-14-2.2-19.2-6.6C2.6,83.6,0,77.7,0,70.3
	C0,63,2.7,57.5,8,53.8s12.7-5.5,22-5.5h15v-0.4c0-7.7-4.1-11.5-12.2-11.5c-3.8,0.1-7.5,0.8-11,2.1c-3.5,1.2-6.8,2.9-9.8,5.1l-9-13
	c9.4-6.9,20.8-10.5,32.4-10.3c8.7,0,15.9,2.2,21.4,6.6c5.5,4.4,8.3,11.3,8.3,20.8L65,93.6z M44.8,66.1v-3.5H32.3
	c-8,0-12.1,2.5-12.1,7.5c-0.1,2.4,1,4.6,2.9,6c1.9,1.4,4.7,2.1,8.2,2.1c3.4,0,6.8-1.1,9.4-3.3C43.5,72.8,45,69.6,44.8,66.1
	L44.8,66.1z"/>
<path class="st0" d="M149.5,54.8v38.8h-20.2V54.2c0-5.7-0.9-9.9-2.6-12.6s-4.6-4-8.4-4c-3.9,0-7.6,1.6-10.3,4.4
	c-3,2.9-4.5,7.2-4.5,12.8v38.8H83.4v-72h20.1v8.2c5.5-6.2,11.9-9.4,19-9.4c4.4,0,8.8,1.4,12.4,4c3.6,2.5,6.4,5.9,8.4,9.8
	c2.7-4.3,6.6-7.9,11.2-10.2c4.3-2.3,9.2-3.6,14.1-3.6c8.5,0,15.3,2.5,20.5,7.6c5.2,5,7.8,12.3,7.8,21.8v43.8h-20.2V54.2
	c0-11.1-4.1-16.6-12.2-16.6c-3.9,0-7.7,1.5-10.4,4.4C151,44.9,149.5,49.1,149.5,54.8z"/>
<path class="st0" d="M276.2,93.6h-18.9v-8.7c-5.2,6.5-11.6,9.8-19.2,9.8s-14-2.2-19.2-6.6c-5.2-4.4-7.8-10.3-7.8-17.7
	s2.7-12.9,8-16.5c5.3-3.7,12.6-5.5,22-5.5h15v-0.4c0-7.7-4.1-11.5-12.2-11.5c-3.8,0.1-7.5,0.8-11,2.1c-3.5,1.2-6.8,2.9-9.8,5.1
	l-9-13c9.4-6.9,20.8-10.5,32.4-10.3c8.8,0,15.9,2.2,21.4,6.6c5.5,4.4,8.3,11.3,8.3,20.8L276.2,93.6z M256,66.1v-3.5h-12.6
	c-8,0-12,2.5-12,7.5c-0.1,2.4,1,4.6,2.9,6c1.9,1.4,4.7,2.1,8.2,2.1c3.4,0,6.8-1.1,9.4-3.3C254.6,72.8,256.1,69.6,256,66.1z"/>
<path class="st0" d="M317.7,36v32.3c-0.1,2.4,0.6,4.7,2.1,6.5c1.3,1.5,3.1,2.3,5.1,2.3c3.8,0,6.9-1.7,9.5-5.1l7.5,14.1
	c-6.2,5.7-12.8,8.6-19.7,8.6c-6.5,0.2-12.8-2.3-17.5-6.8c-4.8-4.5-7.2-10.8-7.2-18.6V36H289V21.6h8.4V0h20.2v21.6h17.4V36H317.7z"/>
<path class="st0" d="M399.1,60.4V21.6h20.2v72h-20.2v-9.5c-5,7.1-11.4,10.6-19.3,10.6c-7.9,0-14.5-2.5-19.9-7.4c-5.3-5-8-12.3-8-22
	V21.6H372v39.2c0,11.1,4.1,16.6,12.2,16.6c3.9,0,7.7-1.5,10.4-4.4C397.6,70.1,399.1,65.9,399.1,60.4z"/>
<path class="st0" d="M492.5,71.2c0,7.1-2.6,12.8-7.8,17.1s-11.9,6.4-19.9,6.4c-5.7-0.1-11.3-1-16.7-2.9c-5.7-1.9-11-4.7-15.7-8.5
	l8.8-12.6c7.5,5.8,15.5,8.7,24,8.7c2.2,0.1,4.3-0.4,6.2-1.5c1.4-0.9,2.3-2.4,2.3-4.1c0-1.7-1-3.2-3.2-4.7c-2.8-1.8-5.9-3.1-9.1-4
	c-4-1.2-7-2.3-9.1-3.2c-2.5-1.1-4.9-2.4-7.2-3.9c-5.4-3.4-8.2-8.4-8.2-15.1c-0.1-6.4,2.9-12.5,8-16.3c5.3-4.2,12.2-6.3,20.8-6.3
	c8.5,0,17,2.9,25.4,8.6l-7.5,13.4c-6.2-4.3-12.5-6.4-18.7-6.4s-9.3,1.7-9.3,5.1c0,1.9,1.2,3.6,2.9,4.4c3.1,1.5,6.4,2.8,9.8,3.8
	c4.6,1.4,7.8,2.5,9.7,3.3c2.4,1,4.7,2.2,6.9,3.5C490,59,492.5,64.1,492.5,71.2z"/>
<path class="st0" d="M509.3,91.2c-4.7-4.6-4.8-12.2-0.2-17c4.6-4.7,12.2-4.8,17-0.2c4.7,4.6,4.8,12.2,0.2,17
	c-2.3,2.3-5.4,3.6-8.6,3.6C514.6,94.7,511.5,93.5,509.3,91.2z"/>
</svg>
