<svg id="Ebene_1" data-name="Ebene 1" xmlns="http://www.w3.org/2000/svg" viewBox="0 0 529.48 94.65" fill="#fff">
    <defs>
        <style>.cls-1{fill:#ff0002;}</style>
    </defs>
    <title>Logo_amatus</title>
    <path d="M212,324.81H193.16v-8.7q-7.77,9.76-19.21,9.77t-19.21-6.63Q147,312.62,147,301.58t8-16.53q8-5.49,22-5.49h15v-.4q0-11.52-12.19-11.52a32.75,32.75,0,0,0-11,2.08,35.88,35.88,0,0,0-9.84,5.15l-9-13a53.74,53.74,0,0,1,32.4-10.31q13.11,0,21.42,6.56t8.3,20.75Zm-20.22-27.45v-3.48H179.24q-12.06,0-12.05,7.5a6.89,6.89,0,0,0,2.88,6c1.91,1.38,4.66,2.07,8.23,2.07a14.64,14.64,0,0,0,9.44-3.28A10.66,10.66,0,0,0,191.82,297.36Z"
          transform="translate(-146.97 -231.23)"/>
    <path d="M296.51,286v38.83H276.3V285.45q0-8.56-2.61-12.58t-8.44-4a14.39,14.39,0,0,0-10.31,4.35q-4.49,4.35-4.48,12.78v38.83H230.38v-72h20.08V261q8.29-9.37,19-9.37a20.67,20.67,0,0,1,12.38,4,26.06,26.06,0,0,1,8.37,9.78,28.31,28.31,0,0,1,11.18-10.18,30.61,30.61,0,0,1,14.12-3.61q12.72,0,20.49,7.56T343.77,281v43.78H323.56V285.45q0-16.6-12.19-16.6a14.4,14.4,0,0,0-10.44,4.35Q296.52,277.55,296.51,286Z"
          transform="translate(-146.97 -231.23)"/>
    <path d="M423.16,324.81H404.28v-8.7q-7.75,9.76-19.21,9.77t-19.21-6.63q-7.77-6.63-7.76-17.67t8-16.53q8-5.49,21.95-5.49h15v-.4q0-11.52-12.18-11.52a32.76,32.76,0,0,0-11,2.08,35.88,35.88,0,0,0-9.84,5.15l-9-13a53.74,53.74,0,0,1,32.4-10.31q13.13,0,21.42,6.56t8.3,20.75Zm-20.22-27.45v-3.48H390.36q-12,0-12.05,7.5a6.89,6.89,0,0,0,2.88,6q2.88,2.07,8.23,2.07a14.62,14.62,0,0,0,9.44-3.28A10.66,10.66,0,0,0,402.94,297.36Z"
          transform="translate(-146.97 -231.23)"/>
    <path d="M464.66,267.24v32.27a9.26,9.26,0,0,0,2.15,6.49,6.65,6.65,0,0,0,5.08,2.34q5.63,0,9.51-5.09l7.49,14.06q-9.36,8.56-19.74,8.57a24.46,24.46,0,0,1-17.54-6.83q-7.17-6.82-7.16-18.61v-33.2H436V252.78h8.44V231.23h20.21v21.55h17.41v14.46Z"
          transform="translate(-146.97 -231.23)"/>
    <path d="M546.06,291.61V252.78h20.21v72H546.06V315.3q-7.5,10.59-19.35,10.58t-19.88-7.43q-8-7.43-8-22V252.78H519V292q0,16.61,12.19,16.6a14.4,14.4,0,0,0,10.44-4.35Q546.05,299.91,546.06,291.61Z"
          transform="translate(-146.97 -231.23)"/>
    <path d="M639.51,302.39q0,10.64-7.84,17.06t-19.88,6.43A53.18,53.18,0,0,1,595.06,323a49.3,49.3,0,0,1-15.67-8.5l8.84-12.58q11.25,8.7,24,8.7a10.82,10.82,0,0,0,6.16-1.54,4.73,4.73,0,0,0,2.28-4.09q0-2.53-3.15-4.68a35.48,35.48,0,0,0-9.1-4q-6-1.87-9.11-3.21a52.07,52.07,0,0,1-7.16-3.88q-8.16-5.08-8.17-15.06a19.74,19.74,0,0,1,8-16.27q8-6.28,20.75-6.29t25.44,8.57l-7.5,13.38q-9.37-6.42-18.68-6.42t-9.3,5.09a4.89,4.89,0,0,0,2.94,4.41,59.37,59.37,0,0,0,9.78,3.75q6.83,2.14,9.7,3.28a48.73,48.73,0,0,1,6.9,3.55Q639.5,291.74,639.51,302.39Z"
          transform="translate(-146.97 -231.23)"/>
    <path class="cls-1" d="M656.3,322.47a12,12,0,1,1,8.37,3.41A11.41,11.41,0,0,1,656.3,322.47Z"
          transform="translate(-146.97 -231.23)"/>
</svg>
