<?xml version="1.0" encoding="utf-8"?>
<!-- Generator: Adobe Illustrator 24.0.1, SVG Export Plug-In . SVG Version: 6.00 Build 0)  -->
<svg version="1.1" id="Ebene_1" xmlns="http://www.w3.org/2000/svg" xmlns:xlink="http://www.w3.org/1999/xlink" x="0px" y="0px"
	 viewBox="0 0 388.7 115.1" style="enable-background:new 0 0 388.7 115.1;" xml:space="preserve">
<style type="text/css">
	.st0{fill:#9FA6B2;}
</style>
<g>
	<path class="st0" d="M187.6,63c-0.5-1.2-0.9-2.6-1.3-4.2c-0.4-1.6-0.9-3.2-1.5-4.7s-1.3-2.7-2.2-3.8c-0.9-1-2.1-1.5-3.5-1.5
		c-2.7,0-5.1,2-7.1,5.9s-3.1,9.8-3.1,17.5c0,9.3,1.9,16.3,5.6,21.2c3.7,4.9,8.7,7.3,14.9,7.3c3.5,0,6.8-0.9,9.7-2.6
		c3-1.8,5.9-4.9,8.1-9.6l0.9,2.2c-2.1,7.9-5.9,14.2-11,18.3c-5.1,4.1-11.4,6.1-18.9,6.1c-4.4,0-8.5-0.8-12.3-2.4
		c-3.9-1.6-7.2-3.8-10.2-6.7c-2.9-2.9-5.2-6.4-7-10.4c-1.7-4-2.6-8.6-2.6-13.6c0-5.1,0.9-9.8,2.7-14.1s4.3-8.1,7.5-11.3
		s7-5.7,11.4-7.5s9.2-2.7,14.4-2.7c4,0,7.5,0.4,10.4,1.3c3,0.9,5.4,2,7.4,3.4s3.5,2.9,4.5,4.7c1,1.7,1.5,3.5,1.5,5.2
		c0,2.4-0.8,4.5-2.5,6.2c-1.7,1.7-3.9,2.6-6.8,2.6C192.2,69.7,189.2,67.4,187.6,63z"/>
	<path class="st0" d="M241.6,115c-5,0-9.7-0.9-14-2.6c-4.3-1.8-8-4.2-11.1-7.3c-3.1-3.1-5.5-6.7-7.3-10.8c-1.8-4.1-2.6-8.6-2.6-13.3
		c0-4.7,0.9-9.2,2.8-13.4c1.9-4.2,4.4-7.9,7.6-11c3.2-3.1,6.9-5.6,11.2-7.4c4.3-1.9,8.8-2.8,13.5-2.8c5.2,0,9.9,0.9,14.3,2.7
		c4.3,1.8,8,4.2,11.1,7.3s5.4,6.7,7.2,10.8c1.7,4.2,2.6,8.6,2.6,13.4c0,4.5-0.9,8.9-2.6,13.1c-1.8,4.2-4.2,7.8-7.4,11
		c-3.2,3.2-6.9,5.7-11.1,7.6C251.2,114.1,246.6,115,241.6,115z M230.4,80.2c0,10.1,1,18,2.9,23.7s4.7,8.6,8.2,8.6
		c1.4,0,2.7-0.5,4-1.4s2.5-2.6,3.5-4.9c1-2.4,1.8-5.6,2.4-9.7c0.6-4.1,0.9-9.3,0.9-15.6c0-10.3-1-18.2-3-23.8s-4.8-8.3-8.4-8.3
		c-1.4,0-2.7,0.5-4,1.5s-2.4,2.7-3.3,5.1c-1,2.4-1.8,5.6-2.4,9.7C230.7,69,230.4,74.1,230.4,80.2z"/>
	<g>
		<path class="st0" d="M358.9,35.3c1.2,1.2,2.6,2.2,4.3,2.9c1.7,0.7,3.4,1,5.1,1c3.9,0,7.1-1.3,9.7-3.9c2.6-2.6,3.9-5.7,3.9-9.2
			c0-3.8-1.3-7-3.9-9.6s-5.8-3.9-9.7-3.9c-1.8,0-3.5,0.3-5.1,1c-1.7,0.7-3.1,1.6-4.3,2.9c-1.2,1.2-2.2,2.6-2.9,4.3
			c-0.7,1.7-1.1,3.4-1.1,5.3c0,1.8,0.4,3.4,1.1,5C356.7,32.7,357.7,34.1,358.9,35.3z"/>
		<path class="st0" d="M382.9,108.7c-1.8-1.4-2.6-3.9-2.6-7.4V64.8l0.3-17.9l-1.1-0.4L348,55.1v1.4c1.1-0.1,2.2,0,3.3,0.3
			c1.1,0.3,2.1,0.8,2.9,1.5s1.5,1.7,2.1,3s0.8,3,0.8,5v34.5c0,1.7-0.1,3.5-0.8,5.1c-0.5,1.1-2.7,4.1-5.1,4.1s-4.4-2.3-5.2-4.1
			c-0.7-1.5-0.8-3.5-0.8-5.1c0-0.2,0-36.3,0-36.3c0-6-1.6-10.5-4.9-13.6c-3.2-3-7.5-4.5-12.7-4.5c-4.7,0-9.1,1.2-13.1,3.5
			c-4,2.4-7.4,5.1-10.3,8.1V46.8l-1.1-0.4L272.2,55v1.4c1.1-0.1,2.2,0,3.3,0.3c1.1,0.3,2.1,0.8,2.9,1.5s1.5,1.7,2.1,3s0.8,3,0.8,5
			v35.1c0,3.5-0.8,6-2.4,7.4s-3.4,2.2-5.4,2.4v1.4h37v-1.3c-1.9-0.2-3.3-1-4.5-2.4c-1.1-1.4-1.7-3.9-1.7-7.6V61
			c1.5-1.3,3.1-2.4,4.7-3.2c1.7-0.8,3.3-1.3,5-1.3c2.4,0,4.3,0.8,5.7,2.5c1.4,1.7,2.1,4.2,2.1,7.7v34.5c0,3.7-0.5,6.3-1.5,7.6
			c-1,1.4-2.6,2.2-4.7,2.4v1.3h33.7h2.1h36.9v-1.4C386.6,110.9,384.7,110.1,382.9,108.7z"/>
	</g>
	<path class="st0" d="M152.3,101.4c-2.4,3.4-4.4,4.3-6.3,4.3c-2.7,0-4-1.9-4-5.6V68.4c0-6.7-2.3-12-7-16.1c-4.7-4-11.8-6.1-21.5-6.1
		c-9.2,0-16,1.5-20.4,4.4c-4.5,2.9-6.7,6.5-6.7,10.6c0,2.7,0.9,4.9,2.6,6.5c1.8,1.7,3.9,2.5,6.4,2.5c2,0,4-0.6,6-1.8
		c1.9-1.2,3.4-3.3,4.5-6.3c0.6-1.8,1.1-3.5,1.3-5.1c0.2-1.7,0.5-3.1,0.8-4.4c0.3-1.3,0.8-2.3,1.5-3.1s1.8-1.2,3.4-1.2
		c1.9,0,3.4,0.9,4.4,2.8c1,1.9,1.5,5.2,1.5,10.2v12.2c-7.1,1.9-13,3.9-17.7,5.9c-4.6,2-8.3,4.1-11.1,6.2c-2.7,2.1-4.6,4.4-5.7,6.7
		c-1.1,2.3-1.6,4.8-1.6,7.4c0,2.5,0.5,4.7,1.4,6.5c0.8,1.7,2,3.1,3.3,4.3c-2.3-0.3-4.7-0.9-5.7-1.9c-1.5-1.6-2.6-3.2-2.6-7.6V0.3
		L77.9,0l-20,5.1c-3.8-1-7.7-1.5-11.8-1.5s-8.2,0.7-12.3,2.2s-7.9,3.8-11.3,6.8c-3.4,3.1-6.2,7-8.3,11.8c-2.2,4.8-3.4,10.5-3.5,17
		v2.9v1.4H0.4v4.1h10.2v50.6c0,3.6-0.7,6.2-2.2,7.9C7,110,5.1,111,2.8,111.2v1.2h38.7v-1.2c-2.3-0.2-4.2-1.2-5.6-2.9
		c-1.4-1.6-2.2-4.2-2.2-7.9c0,0,0-50.5,0-50.6h13.2v-4.1H33.6c0-0.5-0.1-1-0.1-1.4l-0.3-2.9c-0.5-3.5-1-6.9-1.6-10.2
		C31,28,30.7,24.6,30.7,21c0-3.9,1-7.2,2.9-9.8s5-4,9.2-4c1.9,0,3.7,0.4,5.4,1.3c1.6,0.9,3,2.1,4.2,3.5c1.2,1.5,2.1,3.2,2.7,5.1
		c0.6,1.9,1,4,1,6.3v77.4c0,3.5-0.8,6.3-2.3,7.7c-1.5,1.4-3.2,2.2-5.1,2.4v1.3h41.2c1,0.6,2.1,1.1,3.2,1.5c1.9,0.6,4,1,6.1,1
		c3.5,0,7.1-0.8,10.8-2.5c3.7-1.7,7-4,9.9-7c1,3.2,2.6,5.8,5,7.3c2.3,1.5,5.1,2.2,8.5,2.2c4.2,0,7.9-1,11.3-3
		c3.1-1.8,5.3-3.9,8.7-9.2L152.3,101.4z M112.5,105.2c-2.3,0-4.3-0.9-6-2.6s-2.5-4.4-2.5-8.1c0-1.6,0.2-3.2,0.6-4.9
		c0.4-1.7,1.1-3.3,2.2-4.9s2.6-3.2,4.5-4.7s4.4-2.8,7.4-4v21.7c0,1.8,0.1,3.4,0.4,5C117.1,104.4,114.9,105.2,112.5,105.2z"/>
</g>
</svg>
