<?xml version="1.0" encoding="utf-8"?>
<!-- Generator: Adobe Illustrator 24.0.1, SVG Export Plug-In . SVG Version: 6.00 Build 0)  -->
<svg version="1.1" id="Layer_1" xmlns="http://www.w3.org/2000/svg" xmlns:xlink="http://www.w3.org/1999/xlink" x="0px" y="0px"
	 viewBox="0 0 140 20" style="enable-background:new 0 0 140 20;" xml:space="preserve">
<style type="text/css">
	.st0{fill-rule:evenodd;clip-rule:evenodd;fill:#9FA6B2;}
</style>
<path class="st0" d="M14.4,12.7L12.5,0.4h-1.4L7.2,9.2L3.3,0.4H1.9L0,12.7h2.1l1-7.3l3.3,7.3h1.3l3.2-7.4l1,7.4
	C11.9,12.7,14.4,12.7,14.4,12.7z M28.5,12.7L22.9,0.4h-0.8l-5.8,12.3h2.2l1.2-2.7h5l1.2,2.7L28.5,12.7L28.5,12.7z M23.9,8.4h-3.6
	l1.8-4C22.1,4.4,23.9,8.4,23.9,8.4z M31,0.4v12.3h2.5V7.3c0.5,0.1,0.9,0.1,1.4,0.1l3.1,5.3h2.8l-3.4-5.8c1.3-0.6,2.1-1.7,2.1-3.2
	c0-0.6-0.2-1.2-0.4-1.7c-0.8-1.3-2.1-1.5-3.6-1.5L31,0.4L31,0.4z M33.4,2.1h1c1.3,0,2.5,0.5,2.5,2c0,1.2-0.9,2.3-3.3,2.3h-0.2V2.1
	L33.4,2.1z M51.1,12.7V11h-5.5V0.4h-2.5v12.3L51.1,12.7L51.1,12.7z M62,12.7V11h-5.9V7.2h4.5V5.5h-4.5V2.1h5.1V0.4h-7.6v12.3H62
	L62,12.7z M90,3.2c-0.3-2.5-2.3-3.2-4.1-3.2c-4,0-4.7,2.6-4.7,3.9c0,2.1,1.6,3.2,3.9,3.6c1.1,0.2,2.5,0.5,2.5,2c0,1-0.8,2.1-2.6,2.1
	c-0.6,0-2.7-0.1-3.7-2.4l-0.7,0.2c0.2,1.8,1.4,3.7,4.5,3.7c3.5,0,4.9-2.2,4.9-4.1c0-1.8-1.1-3.1-4.2-3.7c-1.6-0.3-2.3-0.8-2.3-1.8
	c0-1.6,1.7-1.9,2.7-1.9c0.4,0,2.4,0.1,3,1.9L90,3.2L90,3.2z M92.6,0.4v12.3h2.5V7.3c0.5,0.1,0.9,0.1,1.4,0.1c2.2,0,4.7-1.2,4.7-3.7
	c0-1.7-1.1-3.2-4-3.2L92.6,0.4L92.6,0.4z M95.1,2.1h1.1c1.1,0,2.4,0.5,2.4,2.1c0,1.8-2,2.3-3.2,2.3h-0.4L95.1,2.1L95.1,2.1z
	 M113.8,6.5c0-3.8-2.2-6.1-5.7-6.1c-3.7,0-5.6,2.6-5.6,6.2c0,3.5,1.9,6.1,5.6,6.1C112.7,12.7,113.8,8.9,113.8,6.5z M111.3,6.5
	c0,2.1-0.6,4.6-3.2,4.6c-2.6,0-3.1-2.7-3.1-4.8c0-2,0.7-4.4,3.1-4.4C110.6,2,111.3,4.4,111.3,6.5z M127.1,6.5c0-3.8-2.2-6.1-5.7-6.1
	c-3.7,0-5.6,2.6-5.6,6.2c0,3.5,1.9,6.1,5.6,6.1C126,12.7,127.1,8.9,127.1,6.5z M124.6,6.5c0,2.1-0.6,4.6-3.2,4.6
	c-2.6,0-3.1-2.7-3.1-4.8c0-2,0.7-4.4,3.1-4.4C123.9,2,124.6,4.4,124.6,6.5z M140,12.9V0.4h-2v7.4l-6.6-7.4h-2.2v12.3h2v-9l8.1,9.1
	L140,12.9L140,12.9z M74.3,0.4l-4.3,9l-3.5-9h-2.7l4.8,12c0,0,0,0.2-1.3,2.1c-1.2,1.8-2.8,3.4-5.1,3.6c-2.1,0.2-4.4-0.5-6.1-1.7
	l-0.4,0.5l0.2,0.2c1.3,1.2,3.8,2.3,6,2.3c1.7,0,3.3-0.5,4.6-1.4c1.4-0.9,2.3-2.3,3.2-3.7c0.3-0.4,0.5-0.9,0.7-1.3
	c1.3-2.4,6.1-12.5,6.1-12.6H74.3z"/>
</svg>
