<?xml version="1.0" encoding="utf-8"?>
<!-- Generator: Adobe Illustrator 24.0.1, SVG Export Plug-In . SVG Version: 6.00 Build 0)  -->
<svg version="1.1" id="Ebene_1" xmlns="http://www.w3.org/2000/svg" xmlns:xlink="http://www.w3.org/1999/xlink" x="0px" y="0px"
	 viewBox="0 0 435.3 50.5" style="enable-background:new 0 0 435.3 50.5;" xml:space="preserve">
<style type="text/css">
	.st0{clip-path:url(#SVGID_2_);fill:none;stroke:#FFFFFF;stroke-width:6.295;stroke-linecap:round;stroke-linejoin:round;}
	.st1{clip-path:url(#SVGID_4_);fill:none;stroke:#FFFFFF;stroke-width:6.295;stroke-linecap:round;stroke-linejoin:round;}
	.st2{clip-path:url(#SVGID_6_);fill:none;stroke:#FFFFFF;stroke-width:6.295;stroke-linecap:round;stroke-linejoin:round;}
	.st3{clip-path:url(#SVGID_8_);fill:none;stroke:#3BABAB;stroke-width:6.295;stroke-linecap:round;stroke-linejoin:round;}
	.st4{clip-path:url(#SVGID_10_);fill:none;stroke:#FFFFFF;stroke-width:6.295;stroke-linecap:round;stroke-linejoin:round;}
	.st5{clip-path:url(#SVGID_12_);fill:none;stroke:#FFFFFF;stroke-width:6.295;stroke-linecap:round;stroke-linejoin:round;}
	.st6{clip-path:url(#SVGID_14_);fill:none;stroke:#FFFFFF;stroke-width:6.295;stroke-linecap:round;stroke-linejoin:round;}
	.st7{clip-path:url(#SVGID_16_);fill:none;stroke:#FFFFFF;stroke-width:6.295;stroke-linecap:round;stroke-linejoin:round;}
	.st8{clip-path:url(#SVGID_18_);fill:none;stroke:#FFFFFF;stroke-width:6.295;stroke-linecap:round;stroke-linejoin:round;}
	.st9{clip-path:url(#SVGID_20_);fill:none;stroke:#FFFFFF;stroke-width:6.295;stroke-linecap:round;stroke-linejoin:round;}
	.st10{clip-path:url(#SVGID_22_);fill:none;stroke:#FFFFFF;stroke-width:6.295;stroke-linecap:round;stroke-linejoin:round;}
	.st11{clip-path:url(#SVGID_24_);fill:none;stroke:#FFFFFF;stroke-width:6.295;stroke-linecap:round;stroke-linejoin:round;}
</style>
<g>
	<g>
		<defs>
			<rect id="SVGID_1_" x="0.8" y="3.2" width="434.1" height="48.4"/>
		</defs>
		<clipPath id="SVGID_2_">
			<use xlink:href="#SVGID_1_"  style="overflow:visible;"/>
		</clipPath>
		<line class="st0" x1="3.9" y1="46" x2="3.9" y2="7.2"/>
	</g>
	<g>
		<defs>
			<rect id="SVGID_3_" x="0.8" y="3.2" width="434.1" height="48.4"/>
		</defs>
		<clipPath id="SVGID_4_">
			<use xlink:href="#SVGID_3_"  style="overflow:visible;"/>
		</clipPath>
		<path class="st1" d="M29.3,9.5C18.9,4.9,3.9,7.2,3.9,24.7"/>
	</g>
	<g>
		<defs>
			<rect id="SVGID_5_" x="0.8" y="3.2" width="434.1" height="48.4"/>
		</defs>
		<clipPath id="SVGID_6_">
			<use xlink:href="#SVGID_5_"  style="overflow:visible;"/>
		</clipPath>
		<path class="st2" d="M175.5,47.7c11.5,0,20.8-9.1,20.8-20.3S187,7.1,175.5,7.1s-20.8,9.1-20.8,20.3
			C154.8,38.6,164.1,47.7,175.5,47.7z"/>
	</g>
	<g>
		<defs>
			<rect id="SVGID_7_" x="0.8" y="3.2" width="434.1" height="48.4"/>
		</defs>
		<clipPath id="SVGID_8_">
			<use xlink:href="#SVGID_7_"  style="overflow:visible;"/>
		</clipPath>
		<path class="st3" d="M65.4,26.7H85c0-11.2-8.3-20.3-19.6-20.3s-19.6,9.1-19.6,20.3S54.2,47,65.4,47c5.6,0,11.2-2,14.9-5.6"/>
	</g>
	<g>
		<defs>
			<rect id="SVGID_9_" x="0.8" y="3.2" width="434.1" height="48.4"/>
		</defs>
		<clipPath id="SVGID_10_">
			<use xlink:href="#SVGID_9_"  style="overflow:visible;"/>
		</clipPath>
		<path class="st4" d="M253.4,45.9V23.7c0-8.6-5.6-17.2-16.9-16.9c-14.8,1.2-17,12.2-17,17V46"/>
	</g>
	<g>
		<defs>
			<rect id="SVGID_11_" x="0.8" y="3.2" width="434.1" height="48.4"/>
		</defs>
		<clipPath id="SVGID_12_">
			<use xlink:href="#SVGID_11_"  style="overflow:visible;"/>
		</clipPath>
		<line class="st5" x1="219.5" y1="46.4" x2="219.5" y2="6.4"/>
	</g>
	<g>
		<defs>
			<rect id="SVGID_13_" x="0.8" y="3.2" width="434.1" height="48.4"/>
		</defs>
		<clipPath id="SVGID_14_">
			<use xlink:href="#SVGID_13_"  style="overflow:visible;"/>
		</clipPath>
		<ellipse class="st6" cx="295.5" cy="27" rx="19.5" ry="20"/>
	</g>
	<g>
		<defs>
			<rect id="SVGID_15_" x="0.8" y="3.2" width="434.1" height="48.4"/>
		</defs>
		<clipPath id="SVGID_16_">
			<use xlink:href="#SVGID_15_"  style="overflow:visible;"/>
		</clipPath>
		<line class="st7" x1="314.9" y1="46.4" x2="314.9" y2="6.4"/>
	</g>
	<g>
		<defs>
			<rect id="SVGID_17_" x="0.8" y="3.2" width="434.1" height="48.4"/>
		</defs>
		<clipPath id="SVGID_18_">
			<use xlink:href="#SVGID_17_"  style="overflow:visible;"/>
		</clipPath>
		<path class="st8" d="M375,45.9V23.7c0-8.6-5.6-17.2-16.9-16.9c-14.7,1.2-17,12.2-17,17V46"/>
	</g>
	<g>
		<defs>
			<rect id="SVGID_19_" x="0.8" y="3.2" width="434.1" height="48.4"/>
		</defs>
		<clipPath id="SVGID_20_">
			<use xlink:href="#SVGID_19_"  style="overflow:visible;"/>
		</clipPath>
		<line class="st9" x1="341.1" y1="46.4" x2="341.1" y2="6.4"/>
	</g>
	<g>
		<defs>
			<rect id="SVGID_21_" x="0.8" y="3.2" width="434.1" height="48.4"/>
		</defs>
		<clipPath id="SVGID_22_">
			<use xlink:href="#SVGID_21_"  style="overflow:visible;"/>
		</clipPath>
		<polyline class="st10" points="431.8,45.9 397.3,45.9 429.7,7.9 397.3,7.9 		"/>
	</g>
	<g>
		<defs>
			<rect id="SVGID_23_" x="0.8" y="3.2" width="434.1" height="48.4"/>
		</defs>
		<clipPath id="SVGID_24_">
			<use xlink:href="#SVGID_23_"  style="overflow:visible;"/>
		</clipPath>
		<path class="st11" d="M131.7,11.8c-3.8-2.6-22.9-8.9-24.1,5.8c-0.7,8.3,10.6,10.1,16.4,11.6c7.6,1.9,12.6,7.4,8.7,14.2
			c-5.7,9.9-24,3.1-26.6,0.1"/>
	</g>
</g>
</svg>
