<svg width="32" height="32" viewBox="0 0 32 32" fill="none" xmlns="http://www.w3.org/2000/svg">
<path fill-rule="evenodd" clip-rule="evenodd" d="M0 16C0 7.16344 7.16344 0 16 0C24.8366 0 32 7.16344 32 16C32 24.8366 24.8366 32 16 32C7.16344 32 0 24.8366 0 16Z" fill="#F22751"/>
<path fill-rule="evenodd" clip-rule="evenodd" d="M20.3084 8C23.1386 8 25.2726 10.3061 25.2726 13.3642V19.1934C25.2726 20.7585 24.7185 22.1726 23.7114 23.1758C22.808 24.0746 21.636 24.5508 20.322 24.5508H11.9481C10.6367 24.5508 9.46553 24.0755 8.56125 23.1758C7.55413 22.1726 7 20.7585 7 19.1934V13.3642C7 10.3061 9.13407 8 11.9642 8H20.3084ZM20.3084 9.27314H11.9642C9.82674 9.27314 8.27484 10.9936 8.27484 13.3642V19.1934C8.27484 20.4182 8.69638 21.5122 9.46128 22.2736C10.1208 22.9314 10.9817 23.2777 11.9506 23.2777H20.3084C20.3101 23.276 20.3169 23.2777 20.322 23.2777C21.2918 23.2777 22.1518 22.9314 22.8114 22.2736C23.5771 21.5122 23.9978 20.4182 23.9978 19.1934V13.3642C23.9978 10.9936 22.4459 9.27314 20.3084 9.27314ZM21.6479 13.2019C21.8697 13.4743 21.828 13.8749 21.5552 14.0973L17.7783 17.163C17.3007 17.5416 16.7295 17.7309 16.1593 17.7309C15.5907 17.7309 15.0238 17.5433 14.5496 17.1681L10.7378 14.099C10.4633 13.8783 10.4208 13.4769 10.6409 13.2036C10.8628 12.9311 11.2639 12.8878 11.5376 13.1077L15.3459 16.1734C15.8244 16.5519 16.4984 16.5519 16.9803 16.17L20.7504 13.1094C21.024 12.8861 21.4252 12.9286 21.6479 13.2019Z" fill="white"/>
</svg>
