<svg width="174" height="174" viewBox="0 0 174 174" fill="none" xmlns="http://www.w3.org/2000/svg">
<g filter="url(#filter0_d_52_6)">
<rect x="24" y="20" width="126" height="126" rx="20" fill="#F22751"/>
</g>
<path fill-rule="evenodd" clip-rule="evenodd" d="M64.2449 62.3194C64.2506 62.3194 64.1081 62.4676 63.9287 62.6442C63.2393 63.3137 61.812 64.7067 61.7976 67.6211C61.775 71.6977 64.4557 79.2671 77.3637 92.1722C90.2119 105.015 97.7698 107.727 101.855 107.727H101.915C104.829 107.713 106.219 106.282 106.892 105.596C107.097 105.385 107.262 105.231 107.379 105.134C110.216 102.28 111.669 100.155 111.655 98.7929C111.635 97.4026 109.906 95.7589 107.516 93.4855C106.755 92.7619 105.929 91.9756 105.057 91.1039C102.798 88.8505 101.678 89.2351 99.217 90.1011C95.8127 91.2948 91.1406 92.9186 83.8818 85.657C76.6116 78.3925 78.2383 73.7261 79.4291 70.3218C80.2894 67.8604 80.6826 66.7379 78.4206 64.476C77.5346 63.5929 76.7398 62.7553 76.0077 61.9861C73.7486 59.6102 72.119 57.8924 70.7374 57.8724H70.7146C69.35 57.8724 67.2305 59.331 64.2306 62.3308C64.2392 62.3223 64.242 62.3194 64.2449 62.3194ZM101.858 112C94.7586 112 85.5028 106.348 74.344 95.1948C63.1424 83.9961 57.4818 74.7118 57.5243 67.5983C57.5502 62.8977 60.0144 60.4905 60.9403 59.5874C60.9887 59.5276 61.1539 59.3652 61.2109 59.3082C65.2961 55.2202 68.0509 53.5679 70.7915 53.5988C73.9736 53.6419 76.2384 56.0235 79.1043 59.0404C79.8137 59.7868 80.5829 60.5987 81.4404 61.4534C85.5997 65.6127 84.4145 69.0056 83.463 71.7291C82.4261 74.7004 81.5287 77.2643 86.9016 82.6372C92.2801 88.0101 94.8441 87.1127 97.804 86.0672C100.53 85.1157 103.915 83.9249 108.08 88.0842C108.923 88.9274 109.723 89.688 110.461 90.3917C113.492 93.2719 115.885 95.5481 115.926 98.7387C115.96 101.459 114.307 104.231 110.228 108.314L108.422 107.089L109.949 108.581C109.045 109.507 106.641 111.974 101.938 112H101.858Z" fill="white"/>
<defs>
<filter id="filter0_d_52_6" x="0" y="0" width="174" height="174" filterUnits="userSpaceOnUse" color-interpolation-filters="sRGB">
<feFlood flood-opacity="0" result="BackgroundImageFix"/>
<feColorMatrix in="SourceAlpha" type="matrix" values="0 0 0 0 0 0 0 0 0 0 0 0 0 0 0 0 0 0 127 0" result="hardAlpha"/>
<feOffset dy="4"/>
<feGaussianBlur stdDeviation="12"/>
<feColorMatrix type="matrix" values="0 0 0 0 0.94902 0 0 0 0 0.152941 0 0 0 0 0.317647 0 0 0 0.55 0"/>
<feBlend mode="normal" in2="BackgroundImageFix" result="effect1_dropShadow_52_6"/>
<feBlend mode="normal" in="SourceGraphic" in2="effect1_dropShadow_52_6" result="shape"/>
</filter>
</defs>
</svg>
