<svg width="112" height="112" viewBox="0 0 112 112" fill="none" xmlns="http://www.w3.org/2000/svg">
<g filter="url(#filter0_d_50_40)">
<rect x="24" y="20" width="64" height="64" rx="20" fill="#521753"/>
<path fill-rule="evenodd" clip-rule="evenodd" d="M56.4705 37.436C59.0957 35.7763 62.5832 35.3177 65.5959 36.2832C72.1494 38.3967 74.1838 45.5411 72.3642 51.2259C69.5564 60.1544 57.5651 66.8145 57.0565 67.0938C56.8757 67.1939 56.6755 67.244 56.4753 67.244C56.2751 67.244 56.0765 67.1955 55.8957 67.097C55.3903 66.8209 43.4862 60.2594 40.5848 51.2276C40.5832 51.2276 40.5832 51.2259 40.5832 51.2259C38.762 45.5395 40.7899 38.3934 47.3369 36.2832C50.411 35.2887 53.7612 35.7262 56.4705 37.436ZM48.0796 38.5888C42.7822 40.297 41.4519 45.9948 42.8904 50.4881C45.154 57.5308 54.0971 63.2253 56.4737 64.6348C58.8584 63.2108 67.866 57.4533 70.057 50.4946C71.4955 45.9964 70.1603 40.2986 64.8549 38.5888C62.2845 37.7638 59.2862 38.2659 57.2164 39.8675C56.7837 40.2001 56.1831 40.2066 55.7471 39.8772C53.5546 38.2288 50.6903 37.746 48.0796 38.5888ZM63.3049 41.7952C65.5055 42.5072 67.0474 44.4559 67.2363 46.7599C67.2896 47.4267 66.7939 48.0112 66.1271 48.0645C66.0932 48.0677 66.0609 48.0693 66.027 48.0693C65.4022 48.0693 64.8726 47.5898 64.8209 46.9569C64.7144 45.6297 63.8264 44.5092 62.5622 44.1007C61.9244 43.8941 61.5757 43.2111 61.7807 42.5766C61.989 41.9405 62.6655 41.595 63.3049 41.7952Z" fill="white"/>
</g>
<defs>
<filter id="filter0_d_50_40" x="0" y="0" width="112" height="112" filterUnits="userSpaceOnUse" color-interpolation-filters="sRGB">
<feFlood flood-opacity="0" result="BackgroundImageFix"/>
<feColorMatrix in="SourceAlpha" type="matrix" values="0 0 0 0 0 0 0 0 0 0 0 0 0 0 0 0 0 0 127 0" result="hardAlpha"/>
<feOffset dy="4"/>
<feGaussianBlur stdDeviation="12"/>
<feColorMatrix type="matrix" values="0 0 0 0 0 0 0 0 0 0 0 0 0 0 0 0 0 0 0.15 0"/>
<feBlend mode="normal" in2="BackgroundImageFix" result="effect1_dropShadow_50_40"/>
<feBlend mode="normal" in="SourceGraphic" in2="effect1_dropShadow_50_40" result="shape"/>
</filter>
</defs>
</svg>
