<svg width="112" height="112" viewBox="0 0 112 112" fill="none" xmlns="http://www.w3.org/2000/svg">
<g filter="url(#filter0_d_50_160)">
<rect x="24" y="20" width="64" height="64" rx="20" fill="#1E3CD7"/>
<path fill-rule="evenodd" clip-rule="evenodd" d="M62.3428 33.8079C63.0434 33.8079 63.612 34.3765 63.612 35.0771L63.6128 36.5118C66.0837 36.6812 68.1359 37.5276 69.5884 38.9831C71.174 40.5755 72.0083 42.8652 71.9999 45.6118V61.0506C71.9999 66.6893 68.419 70.1923 62.6567 70.1923H48.3433C42.581 70.1923 39.0001 66.6402 39.0001 60.922V45.6084C39.0001 40.2898 42.1936 36.8759 47.4019 36.5124L47.4029 35.0771C47.4029 34.3765 47.9715 33.8079 48.6721 33.8079C49.3727 33.8079 49.9413 34.3765 49.9413 35.0771L49.9408 36.48H61.0727L61.0736 35.0771C61.0736 34.3765 61.6422 33.8079 62.3428 33.8079ZM69.4614 48.876H41.5386V60.922C41.5386 65.2644 43.9552 67.6539 48.3433 67.6539H62.6567C67.0448 67.6539 69.4615 65.3084 69.4615 61.0506L69.4614 48.876ZM63.0327 59.5245C63.7334 59.5245 64.302 60.0931 64.302 60.7937C64.302 61.4943 63.7334 62.0629 63.0327 62.0629C62.3321 62.0629 61.7568 61.4943 61.7568 60.7937C61.7568 60.0931 62.3169 59.5245 63.0175 59.5245H63.0327ZM55.5232 59.5245C56.2238 59.5245 56.7924 60.0931 56.7924 60.7937C56.7924 61.4943 56.2238 62.0629 55.5232 62.0629C54.8226 62.0629 54.2472 61.4943 54.2472 60.7937C54.2472 60.0931 54.8074 59.5245 55.508 59.5245H55.5232ZM47.9979 59.5245C48.6985 59.5245 49.2671 60.0931 49.2671 60.7937C49.2671 61.4943 48.6985 62.0629 47.9979 62.0629C47.2973 62.0629 46.7202 61.4943 46.7202 60.7937C46.7202 60.0931 47.2821 59.5245 47.9827 59.5245H47.9979ZM63.0327 52.947C63.7334 52.947 64.302 53.5156 64.302 54.2162C64.302 54.9169 63.7334 55.4855 63.0327 55.4855C62.3321 55.4855 61.7568 54.9169 61.7568 54.2162C61.7568 53.5156 62.3169 52.947 63.0175 52.947H63.0327ZM55.5232 52.947C56.2238 52.947 56.7924 53.5156 56.7924 54.2162C56.7924 54.9169 56.2238 55.4855 55.5232 55.4855C54.8226 55.4855 54.2472 54.9169 54.2472 54.2162C54.2472 53.5156 54.8074 52.947 55.508 52.947H55.5232ZM47.9979 52.947C48.6985 52.947 49.2671 53.5156 49.2671 54.2162C49.2671 54.9169 48.6985 55.4855 47.9979 55.4855C47.2973 55.4855 46.7202 54.9169 46.7202 54.2162C46.7202 53.5156 47.2821 52.947 47.9827 52.947H47.9979ZM61.0727 39.0184H49.9408L49.9413 40.6464C49.9413 41.347 49.3727 41.9156 48.6721 41.9156C47.9715 41.9156 47.4029 41.347 47.4029 40.6464L47.402 39.0569C43.6109 39.3753 41.5386 41.6734 41.5386 45.6084V46.3376H69.4614L69.4615 45.6084C69.4682 43.5184 68.9064 41.8938 67.7911 40.7769C66.8122 39.795 65.3811 39.2086 63.6135 39.0577L63.612 40.6464C63.612 41.347 63.0434 41.9156 62.3428 41.9156C61.6422 41.9156 61.0736 41.347 61.0736 40.6464L61.0727 39.0184Z" fill="white"/>
</g>
<defs>
<filter id="filter0_d_50_160" x="0" y="0" width="112" height="112" filterUnits="userSpaceOnUse" color-interpolation-filters="sRGB">
<feFlood flood-opacity="0" result="BackgroundImageFix"/>
<feColorMatrix in="SourceAlpha" type="matrix" values="0 0 0 0 0 0 0 0 0 0 0 0 0 0 0 0 0 0 127 0" result="hardAlpha"/>
<feOffset dy="4"/>
<feGaussianBlur stdDeviation="12"/>
<feColorMatrix type="matrix" values="0 0 0 0 0 0 0 0 0 0 0 0 0 0 0 0 0 0 0.15 0"/>
<feBlend mode="normal" in2="BackgroundImageFix" result="effect1_dropShadow_50_160"/>
<feBlend mode="normal" in="SourceGraphic" in2="effect1_dropShadow_50_160" result="shape"/>
</filter>
</defs>
</svg>
