<svg width="112" height="112" viewBox="0 0 112 112" fill="none" xmlns="http://www.w3.org/2000/svg">
<g filter="url(#filter0_d_50_55)">
<rect x="24" y="20" width="64" height="64" rx="20" fill="#FF7A59"/>
<path fill-rule="evenodd" clip-rule="evenodd" d="M48.7395 33C49.4537 33 50.0302 33.5782 50.0302 34.2907C50.0302 34.8517 50.5069 35.3078 51.0937 35.3078H52.9128C55.6198 35.3164 57.8312 37.4916 57.8432 40.1573L57.8433 40.5325C59.6003 40.5416 61.3684 40.5606 63.1409 40.5895C69.424 40.5895 74 45.0794 74 51.2627V59.265C74 65.4431 69.4309 69.9313 63.1306 69.9365C60.6043 69.9778 58.0573 70.0002 55.5069 70.0002C52.9547 70.0002 50.3992 69.9778 47.8591 69.9365C41.576 69.9365 37 65.4466 37 59.265V51.2627C37 45.0794 41.576 40.5895 47.8814 40.5895C50.2988 40.5482 52.7652 40.5271 55.2612 40.5263L55.2618 40.1642C55.2567 38.9183 54.2 37.8943 52.9076 37.8892H51.0937C49.0854 37.8892 47.4488 36.2749 47.4488 34.2907C47.4488 33.5782 48.027 33 48.7395 33ZM55.4157 43.1072C52.8756 43.1072 50.3665 43.1296 47.9021 43.1709C43.0714 43.1709 39.5814 46.5749 39.5814 51.2627V59.265C39.5814 63.9511 43.0714 67.3551 47.8814 67.3551C52.953 67.4394 58.0659 67.4394 63.0979 67.3551H63.1203C67.9286 67.3551 71.4186 63.9511 71.4186 59.265V51.2627C71.4186 46.5749 67.9286 43.1709 63.1203 43.1709C60.532 43.1296 57.9592 43.1072 55.4157 43.1072ZM50.0755 50.7509C50.7879 50.7509 51.3662 51.3291 51.3662 52.0416L51.3646 53.9713L53.3636 53.9723C54.0761 53.9723 54.6543 54.5505 54.6543 55.263C54.6543 55.9754 54.0761 56.5537 53.3636 56.5537L51.3646 56.5526L51.3662 58.4865C51.3662 59.1989 50.7879 59.7772 50.0755 59.7772C49.363 59.7772 48.7848 59.1989 48.7848 58.4865L48.7832 56.5526L46.788 56.5537C46.0755 56.5537 45.4973 55.9754 45.4973 55.263C45.4973 54.5505 46.0755 53.9723 46.788 53.9723L48.7832 53.9713L48.7848 52.0416C48.7848 51.3291 49.363 50.7509 50.0755 50.7509ZM64.4136 57.0982C65.126 57.0982 65.7043 57.6764 65.7043 58.3889C65.7043 59.1013 65.126 59.6796 64.4136 59.6796H64.2294C63.517 59.6796 62.9387 59.1013 62.9387 58.3889C62.9387 57.6764 63.517 57.0982 64.2294 57.0982H64.4136ZM61.2927 50.9472C62.0051 50.9472 62.5833 51.5255 62.5833 52.2379C62.5833 52.9504 62.0051 53.5286 61.2927 53.5286H61.1085C60.396 53.5286 59.8178 52.9504 59.8178 52.2379C59.8178 51.5255 60.396 50.9472 61.1085 50.9472H61.2927Z" fill="white"/>
</g>
<defs>
<filter id="filter0_d_50_55" x="0" y="0" width="112" height="112" filterUnits="userSpaceOnUse" color-interpolation-filters="sRGB">
<feFlood flood-opacity="0" result="BackgroundImageFix"/>
<feColorMatrix in="SourceAlpha" type="matrix" values="0 0 0 0 0 0 0 0 0 0 0 0 0 0 0 0 0 0 127 0" result="hardAlpha"/>
<feOffset dy="4"/>
<feGaussianBlur stdDeviation="12"/>
<feColorMatrix type="matrix" values="0 0 0 0 0 0 0 0 0 0 0 0 0 0 0 0 0 0 0.15 0"/>
<feBlend mode="normal" in2="BackgroundImageFix" result="effect1_dropShadow_50_55"/>
<feBlend mode="normal" in="SourceGraphic" in2="effect1_dropShadow_50_55" result="shape"/>
</filter>
</defs>
</svg>
