<svg xmlns="http://www.w3.org/2000/svg" xmlns:xlink="http://www.w3.org/1999/xlink" viewBox="0 0 106 81" fill="#fff"
    fill-rule="evenodd" stroke="#000" stroke-linecap="round" stroke-linejoin="round">
    <use xlink:href="#A" x=".5" y=".5" />
    <symbol id="A" overflow="visible">
        <g stroke="none">
            <path
                d="M35.296 80H105l-.18-3.686c-.355-5.262-1.594-16.14-2.656-21.053-1.066-5.262-2.488-9.823-8.34-12.63-4.61-2.28-6.918-3.158-9.043-3.158-1.242 0-2.308.35-3.195.7v-.877c4.613-3.86 7.63-9.823 7.63-16.666 0-11.403-8.515-20.877-19.156-20.877-10.464 0-19.156 9.298-19.156 20.877 0 4.034 1.063 7.893 3.016 11.228-3.37-1.578-5.5-2.28-7.093-2.28-.9 0-1.598.176-2.308.35v-.7c3.547-3.332 5.676-8.07 5.676-13.333C50.193 8.07 42.565 0 32.987 0 23.59 0 15.785 8.07 15.785 17.894c0 5.44 2.308 10.35 6.03 13.683v.527c-.707-.352-1.598-.527-2.484-.527-1.95 0-4.258.703-8.69 2.983-5.496 2.81-6.914 7.37-7.98 12.107s-2.13 15.087-2.484 20L0 70.35h35.827l-.53 5.964V80z" />
            <path
                d="M39.198 76.5c.355-5.087 1.594-15.8 2.484-20.525 1.238-5.44 2.48-8.245 6.383-10.352 3.902-1.928 6.03-2.63 7.45-2.63 1.242 0 1.953.526 2.84 1.403l.355.35c3.902 3.334 7.625 4.035 11.35 4.035 3.902 0 7.625-.7 11.35-4.035l.355-.35c.887-.7 1.597-1.403 2.836-1.403 1.418 0 3.55.7 7.45 2.63 4.082 1.932 5.324 4.913 6.386 10.353 1.066 4.737 2.305 15.44 2.484 20.525H39.198zm31.038-36.666c-8.515 0-15.605-7.72-15.605-17.37 0-9.474 6.914-17.367 15.605-17.367 8.515 0 15.6 7.718 15.6 17.367s-7.093 17.37-15.6 17.37h0zM46.47 42.106c4.6-2.28 7.093-3.16 9.222-3.16h.53c-.7-.527-1.418-1.053-2.305-1.402-3.726-1.932-5.676-2.633-7.094-2.633-1.246 0-1.773.526-2.664 1.227l-.355.352c-3.543 3.16-7.094 3.684-10.64 3.684s-7.093-.526-10.64-3.684l-.355-.352c-.887-.7-1.418-1.227-2.66-1.227s-3.37.7-7.097 2.633-4.965 4.56-6.027 9.647C5.32 51.755 4.253 61.754 3.898 66.667h31.928c.53-4.387 1.066-8.948 1.773-11.755 1.418-4.913 2.84-9.825 8.87-12.806zM33.343 32.28C40.792 32.28 47 25.788 47 17.894S40.97 3.508 33.343 3.508c-7.445 0-13.656 6.5-13.656 14.386s6.03 14.386 13.656 14.386z"
                fill="#515150" />
        </g>
    </symbol>
</svg>
