<svg xmlns="http://www.w3.org/2000/svg" fill="none" height="24" viewBox="0 0 24 24" width="24"><path d="m0 0h24v24h-24z" fill="#fff" fill-opacity=".01"/><path clip-rule="evenodd" d="m16.436 15.085 3.94 4.01c.1765.1908.2718.4428.2657.7026s-.1131.5071-.2984.6893c-.1853.1823-.4342.2853-.6941.2872s-.5103-.0975-.6982-.2771l-3.938-4.006c-1.5195 1.1446-3.4171 1.6691-5.30872 1.4672s-3.63583-1.1151-4.87946-2.5546c-1.24364-1.4396-1.89376-3.2979-1.81874-5.1988.07503-1.90089.8696-3.70223 2.22283-5.03929s3.16399-2.10993 5.06559-2.16211c1.9017-.05217 3.7521.62024 5.1766 1.88108 1.4245 1.26085 2.3167 3.01591 2.4958 4.90981.1792 1.89391-.3681 3.78511-1.5309 5.29071zm-5.936.915c1.4587 0 2.8576-.5795 3.8891-1.6109 1.0314-1.0315 1.6109-2.4304 1.6109-3.8891 0-1.45869-.5795-2.85764-1.6109-3.88909-1.0315-1.03145-2.4304-1.61091-3.8891-1.61091-1.45869 0-2.85764.57946-3.88909 1.61091s-1.61091 2.4304-1.61091 3.88909c0 1.4587.57946 2.8576 1.61091 3.8891 1.03145 1.0314 2.4304 1.6109 3.88909 1.6109z" fill="rgba(80, 95, 121, 1)" fill-rule="evenodd"/><path xmlns="http://www.w3.org/2000/svg" d="m0 0h24v24h-24z" fill="#fff" fill-opacity=".01"/><path xmlns="http://www.w3.org/2000/svg" clip-rule="evenodd" d="m16.436 15.085 3.94 4.01c.1765.1908.2718.4428.2657.7026s-.1131.5071-.2984.6893c-.1853.1823-.4342.2853-.6941.2872s-.5103-.0975-.6982-.2771l-3.938-4.006c-1.5195 1.1446-3.4171 1.6691-5.30872 1.4672s-3.63583-1.1151-4.87946-2.5546c-1.24364-1.4396-1.89376-3.2979-1.81874-5.1988.07503-1.90089.8696-3.70223 2.22283-5.03929s3.16399-2.10993 5.06559-2.16211c1.9017-.05217 3.7521.62024 5.1766 1.88108 1.4245 1.26085 2.3167 3.01591 2.4958 4.90981.1792 1.89391-.3681 3.78511-1.5309 5.29071zm-5.936.915c1.4587 0 2.8576-.5795 3.8891-1.6109 1.0314-1.0315 1.6109-2.4304 1.6109-3.8891 0-1.45869-.5795-2.85764-1.6109-3.88909-1.0315-1.03145-2.4304-1.61091-3.8891-1.61091-1.45869 0-2.85764.57946-3.88909 1.61091s-1.61091 2.4304-1.61091 3.88909c0 1.4587.57946 2.8576 1.61091 3.8891 1.03145 1.0314 2.4304 1.6109 3.88909 1.6109z" fill="rgba(80, 95, 121, 1)" fill-rule="evenodd"/></svg>