<svg width="33" height="33" viewBox="0 0 33 33" fill="none" xmlns="http://www.w3.org/2000/svg">
<path opacity="0.1" fill-rule="evenodd" clip-rule="evenodd" d="M0.5 16.0923C0.5 7.25573 7.66344 0.0922852 16.5 0.0922852C25.3366 0.0922852 32.5 7.25573 32.5 16.0923C32.5 24.9288 25.3366 32.0923 16.5 32.0923C7.66344 32.0923 0.5 24.9288 0.5 16.0923Z" fill="white"/>
<path fill-rule="evenodd" clip-rule="evenodd" d="M25.0333 16.0806C25.0333 16.6577 24.9746 17.234 24.8592 17.7957C24.7467 18.3441 24.58 18.8825 24.3617 19.3972C24.1483 19.9028 23.8837 20.39 23.5745 20.8444C23.27 21.2959 22.9191 21.7194 22.5337 22.1055C22.1474 22.49 21.7224 22.8399 21.2711 23.1458C20.8152 23.4528 20.3273 23.717 19.8215 23.9313C19.306 24.1485 18.7664 24.315 18.2184 24.4273C17.6559 24.543 17.0776 24.6021 16.4996 24.6021C15.9213 24.6021 15.3429 24.543 14.7812 24.4273C14.2324 24.315 13.6928 24.1485 13.1778 23.9313C12.6719 23.717 12.1836 23.4528 11.7277 23.1458C11.2764 22.8399 10.8514 22.49 10.466 22.1055C10.0801 21.7194 9.72928 21.2959 9.42427 20.8444C9.11675 20.39 8.85172 19.9028 8.63755 19.3972C8.41918 18.8825 8.25211 18.3441 8.13919 17.7957C8.02503 17.234 7.96667 16.6577 7.96667 16.0806C7.96667 15.5031 8.02499 14.9255 8.13922 14.365C8.25215 13.8166 8.41922 13.2774 8.63759 12.7635C8.85175 12.2576 9.11678 11.7699 9.4243 11.3155C9.72931 10.8637 10.0802 10.4409 10.466 10.0544C10.8515 9.66987 11.2765 9.32081 11.7278 9.0154C12.1836 8.70706 12.672 8.44288 13.1778 8.22816C13.6929 8.0105 14.2324 7.84368 14.7812 7.73218C15.3429 7.61735 15.9213 7.55908 16.4997 7.55908C17.0776 7.55908 17.6559 7.61735 18.2185 7.73218C18.7664 7.84371 19.306 8.01054 19.8215 8.22816C20.3273 8.44285 20.8153 8.70706 21.2711 9.0154C21.7224 9.32081 22.1475 9.66987 22.5337 10.0544C22.9191 10.4409 23.27 10.8637 23.5746 11.3155C23.8837 11.7699 24.1483 12.2576 24.3617 12.7635C24.58 13.2774 24.7467 13.8166 24.8592 14.365C24.9746 14.9255 25.0333 15.5031 25.0333 16.0806ZM13.3903 9.49846C11.3581 10.4567 9.84131 12.3266 9.36836 14.5802C9.56048 14.5818 12.5973 14.6201 16.0962 13.6918C14.8349 11.4541 13.4874 9.6279 13.3903 9.49846ZM16.7 14.8124C12.9477 15.9341 9.34711 15.8534 9.21795 15.8484C9.21585 15.9266 9.21211 16.0023 9.21211 16.0806C9.21211 17.95 9.91839 19.6543 11.0793 20.943C11.0768 20.9392 13.0711 17.4062 17.0038 16.1363C17.0988 16.1047 17.1955 16.0764 17.2913 16.049C17.1084 15.6354 16.9087 15.221 16.7 14.8124ZM21.3124 10.619C20.0293 9.4893 18.3447 8.80404 16.4996 8.80404C15.9075 8.80404 15.3329 8.87562 14.7824 9.00793C14.8916 9.15441 16.2604 10.9677 17.5067 13.2528C20.2565 12.2234 21.2944 10.6456 21.3124 10.619ZM17.788 17.2548C17.7718 17.2601 17.7556 17.2648 17.7397 17.2706C13.44 18.7674 12.0358 21.7838 12.0206 21.8168C13.2578 22.7775 14.8096 23.3571 16.4996 23.3571C17.5088 23.3571 18.4701 23.1519 19.3448 22.7804C19.2368 22.1446 18.8135 19.9161 17.788 17.2548ZM20.5719 22.1155C22.2082 21.0129 23.3703 19.262 23.6945 17.2339C23.5445 17.1857 21.5057 16.5411 19.1535 16.9177C20.1093 19.5408 20.4977 21.677 20.5719 22.1155ZM18.0676 14.3372C18.2368 14.6842 18.4006 15.0374 18.5518 15.3924C18.6056 15.5197 18.6581 15.6445 18.7093 15.7693C21.2128 15.4548 23.6792 15.984 23.7846 16.0056C23.7679 14.2806 23.15 12.6973 22.1275 11.4578C22.1137 11.4773 20.9449 13.1638 18.0676 14.3372Z" fill="white"/>
</svg>
