<svg width="232" height="34" viewBox="0 0 232 34" fill="none" xmlns="http://www.w3.org/2000/svg">
<path d="M47.8158 27.3881C46.582 28.2124 45.4166 29.1357 44.1142 29.8611C42.1263 30.9162 40.4811 29.993 40.2755 27.7838C40.2069 27.1243 40.1384 26.4978 40.0013 25.5746C39.4186 26.267 39.0073 26.7946 38.5275 27.2892C37.0194 28.9708 35.4771 30.6194 33.9347 32.2681C33.7291 32.4989 33.4549 32.6308 33.1464 32.7627C32.1182 33.2243 31.09 32.6308 31.1242 31.5427C31.1585 30.7513 31.3299 29.96 31.6041 29.2346C32.1525 27.7508 32.8037 26.267 33.4206 24.7832C33.969 23.3984 34.2432 21.9476 34.1746 20.2C33.4206 20.8265 32.7694 21.2551 32.2553 21.8157C29.8904 24.3546 27.594 26.9265 25.2633 29.4984C24.7492 30.0589 24.2694 30.6194 23.7552 31.18C23.5496 31.3778 23.344 31.6416 23.104 31.7075C22.6585 31.8065 22.1101 31.9384 21.6988 31.8065C21.0818 31.6416 21.0476 31.0151 21.2532 30.5535C21.6302 29.5973 22.0758 28.707 22.5214 27.7838C22.6242 27.553 22.7956 27.3881 22.7956 27.0254C22.5556 27.2232 22.35 27.4211 22.1101 27.6189C20.6363 29.1027 19.0597 30.4876 17.1403 31.4767C10.4568 34.9059 1.92249 30.9162 0.654344 23.7281C-0.510983 16.9357 5.07573 10.8686 12.2391 11.1654C12.5475 11.1654 12.856 11.1654 13.1645 11.1654C13.6786 9.97836 14.0556 8.72539 14.6725 7.60431C17.3459 2.88917 21.5617 0.317284 27.1484 0.251338C32.4609 0.185392 36.6424 2.55945 39.4872 6.87891C39.9327 7.57134 40.3097 7.76918 41.1666 7.63728C48.0215 6.5162 54.465 10.8357 55.8703 17.3973C56.9328 22.3762 54.1566 28.1794 49.5295 30.6854C47.0961 32.0043 44.4569 32.7297 41.6464 33.0924C43.086 32.367 44.5255 31.7076 45.8622 30.9162C48.1928 29.5643 50.1122 27.7838 51.5175 25.5086C54.1223 21.2881 53.7453 16.6059 50.4892 13.1438C47.7473 10.2421 42.8803 9.3189 39.1444 10.9676C38.9045 11.0665 38.6646 11.1654 38.3904 11.2973C37.3279 7.93404 35.2371 5.39512 31.9125 3.91134C29.719 2.95512 27.4226 2.69134 25.0577 3.15296C19.3681 4.27404 16.2834 8.16485 15.7008 14.6935C14.6383 14.4297 13.61 14.067 12.5133 13.9351C8.36607 13.4405 4.28742 16.4081 3.53339 20.4308C2.77935 24.5194 5.34993 28.6081 9.49712 29.5643C13.0274 30.3557 16.2149 29.96 18.9911 27.1903C23.1726 23.0686 26.8742 18.5843 30.2674 13.8362C30.3359 13.7373 30.4387 13.6054 30.5073 13.5065C30.9871 12.88 31.8097 12.6162 32.2896 12.9789C32.9065 13.4735 32.8379 14.067 32.4952 14.6935C30.9529 17.3643 29.3762 20.0021 27.8339 22.673C27.6625 22.9697 27.4911 23.2665 27.4569 23.6292C28.6222 22.4421 29.7533 21.2221 30.9529 20.1011C31.6041 19.5076 32.3238 18.947 33.1121 18.4854C34.8601 17.4632 36.5396 18.3535 36.5738 20.2989C36.6081 22.1454 36.2997 23.9589 35.5456 25.6735C35.1 26.6627 34.6545 27.6848 34.2089 28.674C34.2775 28.707 34.346 28.74 34.3803 28.773C35.1 27.9157 35.8198 27.0584 36.5396 26.234C37.1908 25.5086 37.7734 24.7173 38.4589 24.0248C39.0759 23.3984 39.8299 22.9697 40.7553 23.2994C41.6464 23.5962 41.8521 24.3216 41.9206 25.1459C41.9892 25.8713 42.092 26.6297 42.1948 27.3551C42.3662 28.5421 43.1202 29.0367 44.3198 28.6081C45.4509 28.2124 46.5477 27.6848 47.6787 27.2232C47.713 27.2892 47.7816 27.3221 47.8158 27.3881Z" fill="white"/>
<path d="M80.9832 11.9568C80.9832 16.5071 80.9832 21.0574 80.9832 25.6736C80.4768 25.6736 80.0066 25.6736 79.4278 25.6736C79.4278 22.0466 79.4278 18.3866 79.4278 14.7266C79.3555 14.6936 79.2831 14.6936 79.1746 14.6606C77.3661 17.0676 75.5938 19.4747 73.7491 21.9476C71.9044 19.4747 70.132 17.1006 68.3597 14.7266C68.2873 14.7266 68.2512 14.7595 68.1788 14.7595C68.1788 18.3866 68.1788 22.0136 68.1788 25.6736C67.6001 25.6736 67.1299 25.6736 66.5873 25.6736C66.5873 21.0903 66.5873 16.5401 66.5873 11.9239C67.5639 11.693 68.2874 11.8249 68.8661 12.6822C70.2406 14.7266 71.7597 16.672 73.2065 18.6503C73.3512 18.8812 73.5321 19.079 73.7852 19.3757C74.1108 18.9471 74.364 18.5844 74.6533 18.2547C75.9916 16.4412 77.4023 14.6276 78.6321 12.7482C79.247 11.8579 79.9704 11.726 80.9832 11.9568Z" fill="white"/>
<path d="M172.548 20.2659C172.548 22.1454 172.548 23.86 172.548 25.6405C171.999 25.6405 171.487 25.6405 170.902 25.6405C170.865 25.4097 170.829 25.1789 170.829 24.9481C170.829 20.8594 170.829 16.7708 170.792 12.6821C170.792 11.9897 171.048 11.7919 171.78 11.8248C173.682 11.8578 175.621 11.7589 177.523 11.8578C178.657 11.9237 179.864 12.1216 180.815 12.6162C183.742 14.067 183.596 17.9578 180.669 19.3756C180.12 19.6394 179.499 19.8043 178.767 20.0681C179.535 20.9913 180.303 21.9146 181.072 22.8048C181.803 23.6951 182.571 24.6183 183.303 25.5086C182.023 25.9043 181.474 25.7724 180.742 24.8821C179.608 23.5302 178.511 22.1124 177.34 20.7935C177.084 20.4967 176.572 20.2989 176.17 20.2659C175.036 20.2329 173.828 20.2659 172.548 20.2659ZM172.585 18.8151C174.67 18.8151 176.645 18.914 178.621 18.7821C180.12 18.6832 181.145 17.5621 181.218 16.3092C181.328 14.9243 180.669 13.9351 179.279 13.5724C177.084 12.9789 174.816 13.3416 172.511 13.2756C172.511 15.0562 172.511 16.6719 172.511 18.3205C172.548 18.4854 172.585 18.6502 172.585 18.8151Z" fill="white"/>
<path d="M121.033 25.6407C120.121 25.9045 119.573 25.5747 119.062 24.9483C116.251 21.651 113.367 18.3866 110.519 15.0893C110.337 14.8915 110.154 14.6937 109.826 14.3639C109.826 18.2218 109.826 21.9147 109.826 25.6407C109.278 25.6407 108.803 25.6407 108.256 25.6407C108.256 21.0904 108.256 16.5072 108.256 11.891C109.168 11.6601 109.789 11.792 110.446 12.5504C113.184 15.7818 115.959 18.9801 118.733 22.1785C118.916 22.3764 119.098 22.5742 119.463 22.9699C119.463 19.112 119.463 15.518 119.463 11.858C120.048 11.858 120.522 11.858 121.07 11.858C121.033 16.4742 121.033 21.0245 121.033 25.6407Z" fill="white"/>
<path d="M193.949 18.7821C193.877 14.7594 197.225 11.627 201.582 11.594C205.938 11.561 209.215 14.5946 209.287 18.7162C209.359 22.7059 206.082 25.8713 201.762 25.9702C197.369 26.0362 194.021 23.0027 193.949 18.7821ZM201.618 24.5854C204.966 24.5854 207.595 22.1124 207.631 18.881C207.667 15.5837 205.074 13.0119 201.654 13.0119C198.305 13.0119 195.677 15.4519 195.641 18.6173C195.605 21.9805 198.161 24.5524 201.618 24.5854Z" fill="white"/>
<path d="M133.331 11.8579C137.027 11.8579 140.686 11.8579 144.418 11.8579C144.418 12.2866 144.418 12.6822 144.418 13.1768C142.94 13.1768 141.499 13.1768 140.094 13.1768C138.616 13.1768 137.138 13.1439 135.659 13.2098C135.401 13.2098 134.994 13.4736 134.994 13.6055C134.957 15.0233 134.957 16.4412 134.957 17.9579C137.803 17.9579 140.538 17.9579 143.383 17.9579C143.383 18.4525 143.383 18.8812 143.383 19.4087C140.612 19.4087 137.84 19.4087 135.031 19.4087C135.031 21.0574 135.031 22.6071 135.031 24.2887C138.172 24.2887 141.351 24.2887 144.529 24.2887C144.529 24.8163 144.529 25.212 144.529 25.6736C140.833 25.6736 137.138 25.6736 133.405 25.6736C133.331 21.0903 133.331 16.5401 133.331 11.8579Z" fill="white"/>
<path d="M231.15 13.3745C230.855 13.7373 230.56 14.067 230.265 14.4297C229.786 14.1659 229.306 13.9021 228.827 13.6713C227.389 12.9789 225.877 12.781 224.292 13.2097C223.148 13.5064 222.485 14.2978 222.448 15.221C222.374 16.2762 223.001 16.9686 224.033 17.2983C225.029 17.6281 226.098 17.8589 227.094 18.1227C227.868 18.3205 228.643 18.5183 229.343 18.8151C230.855 19.4086 231.703 20.4308 231.703 21.9475C231.666 23.4972 230.855 24.6183 229.343 25.3108C226.651 26.5308 222.3 25.7064 220.235 23.5962C220.53 23.2664 220.862 22.9367 221.194 22.574C222.522 23.6291 223.96 24.4205 225.73 24.4535C226.615 24.4864 227.573 24.3875 228.421 24.1237C229.454 23.827 229.97 23.0686 230.007 22.1124C230.044 21.1232 229.454 20.4637 228.532 20.134C227.647 19.8043 226.725 19.6394 225.803 19.3756C225.103 19.1778 224.365 19.0459 223.702 18.8151C221.489 18.0567 220.641 16.9356 220.789 15.0232C220.936 13.4405 222.263 12.2205 224.292 11.7589C226.578 11.2973 229.417 11.9237 231.15 13.3745Z" fill="white"/>
<path d="M158.531 25.6404C157.734 25.6404 156.937 25.6404 156.084 25.6404C156.084 21.0571 156.084 16.5068 156.084 11.8906C156.88 11.8906 157.677 11.8906 158.531 11.8906C158.531 16.4739 158.531 21.0241 158.531 25.6404Z" fill="white"/>
<path d="M95.7926 25.6733C94.9219 25.6733 94.2253 25.6733 93.4127 25.6733C93.4127 21.0901 93.4127 16.5068 93.4127 11.8906C94.1673 11.8906 94.9219 11.8906 95.7926 11.8906C95.7926 16.4739 95.7926 21.0241 95.7926 25.6733Z" fill="white"/>
</svg>
