<svg width="14" height="14" viewBox="0 0 14 14" fill="none" xmlns="http://www.w3.org/2000/svg">
<path fill-rule="evenodd" clip-rule="evenodd" d="M7.24131 0.854343C8.31229 0.177245 9.73498 -0.00981331 10.964 0.384063C13.6375 1.24624 14.4674 4.16079 13.7251 6.47992C12.5797 10.1223 7.68788 12.8392 7.4804 12.9532C7.40663 12.994 7.32496 13.0144 7.24329 13.0144C7.16161 13.0144 7.0806 12.9947 7.00683 12.9545C6.80067 12.8419 1.9444 10.1651 0.760799 6.48058C0.76014 6.48058 0.76014 6.47992 0.76014 6.47992C0.0171768 4.16014 0.844448 1.24493 3.5153 0.384063C4.76938 -0.0216691 6.13609 0.156827 7.24131 0.854343ZM3.81828 1.32462C1.65723 2.02148 1.1145 4.34588 1.70136 6.17891C2.62479 9.05197 6.27309 11.375 7.24263 11.9501C8.21546 11.3691 11.8901 9.02035 12.7839 6.18155C13.3708 4.34653 12.8261 2.02214 10.6617 1.32462C9.61313 0.98805 8.39001 1.19289 7.54561 1.84628C7.36909 1.98196 7.12407 1.9846 6.94623 1.85023C6.05178 1.17774 4.88332 0.980805 3.81828 1.32462ZM10.0294 2.63265C10.9271 2.92311 11.5562 3.71811 11.6332 4.65801C11.655 4.93004 11.4528 5.16847 11.1807 5.19021C11.1669 5.19152 11.1537 5.19218 11.1399 5.19218C10.885 5.19218 10.669 4.99656 10.6479 4.73837C10.6044 4.19695 10.2421 3.73985 9.72642 3.57321C9.46625 3.4889 9.32398 3.21029 9.40763 2.95144C9.4926 2.69193 9.76857 2.55097 10.0294 2.63265Z" fill="#F22751"/>
</svg>
