<svg width="33" height="33" viewBox="0 0 33 33" fill="none" xmlns="http://www.w3.org/2000/svg">
<path opacity="0.1" fill-rule="evenodd" clip-rule="evenodd" d="M0.5 16.0923C0.5 7.25573 7.66344 0.0922852 16.5 0.0922852C25.3366 0.0922852 32.5 7.25573 32.5 16.0923C32.5 24.9288 25.3366 32.0923 16.5 32.0923C7.66344 32.0923 0.5 24.9288 0.5 16.0923Z" fill="white"/>
<path fill-rule="evenodd" clip-rule="evenodd" d="M16.5008 7.55908C14.1833 7.55908 13.8924 7.56922 12.9822 7.61064C12.0737 7.65224 11.4536 7.79606 10.9111 8.00709C10.3498 8.22504 9.87372 8.5166 9.3994 8.9911C8.92473 9.46541 8.63317 9.94151 8.4145 10.5026C8.20294 11.0453 8.05894 11.6656 8.01805 12.5737C7.97734 13.4839 7.96667 13.775 7.96667 16.0925C7.96667 18.41 7.97699 18.7 8.01823 19.6102C8.06001 20.5187 8.20383 21.1388 8.41468 21.6814C8.63282 22.2426 8.92437 22.7187 9.39887 23.193C9.87301 23.6677 10.3491 23.96 10.91 24.1779C11.4529 24.3889 12.0732 24.5328 12.9815 24.5744C13.8917 24.6158 14.1824 24.6259 16.4997 24.6259C18.8175 24.6259 19.1074 24.6158 20.0176 24.5744C20.9261 24.5328 21.5469 24.3889 22.0898 24.1779C22.6509 23.96 23.1263 23.6677 23.6004 23.193C24.0751 22.7187 24.3667 22.2426 24.5853 21.6815C24.7951 21.1388 24.9391 20.5185 24.9818 19.6104C25.0227 18.7002 25.0333 18.41 25.0333 16.0925C25.0333 13.775 25.0227 13.4841 24.9818 12.5739C24.9391 11.6654 24.7951 11.0453 24.5853 10.5028C24.3667 9.94151 24.0751 9.46541 23.6004 8.9911C23.1258 8.51643 22.6511 8.22487 22.0893 8.00709C21.5453 7.79606 20.9249 7.65224 20.0164 7.61064C19.1062 7.56922 18.8164 7.55908 16.4981 7.55908H16.5008ZM15.7353 9.09685C15.9625 9.0965 16.216 9.09685 16.5008 9.09685C18.7792 9.09685 19.0492 9.10503 19.949 9.14592C20.781 9.18396 21.2326 9.32299 21.5334 9.43979C21.9316 9.59446 22.2155 9.77935 22.514 10.078C22.8127 10.3767 22.9976 10.6611 23.1526 11.0594C23.2694 11.3598 23.4086 11.8114 23.4464 12.6434C23.4873 13.5429 23.4962 13.8132 23.4962 16.0905C23.4962 18.3679 23.4873 18.6381 23.4464 19.5377C23.4084 20.3697 23.2694 20.8212 23.1526 21.1217C22.9979 21.5199 22.8127 21.8035 22.514 22.102C22.2153 22.4006 21.9318 22.5855 21.5334 22.7402C21.2329 22.8575 20.781 22.9962 19.949 23.0342C19.0494 23.0751 18.7792 23.084 16.5008 23.084C14.2222 23.084 13.9521 23.0751 13.0526 23.0342C12.2205 22.9958 11.769 22.8568 11.468 22.74C11.0698 22.5853 10.7853 22.4005 10.4867 22.1018C10.188 21.8031 10.0031 21.5194 9.84808 21.121C9.73128 20.8205 9.59208 20.369 9.55421 19.537C9.51332 18.6374 9.50514 18.3672 9.50514 16.0884C9.50514 13.8096 9.51332 13.5408 9.55421 12.6412C9.59226 11.8092 9.73128 11.3577 9.84808 11.0569C10.0027 10.6586 10.188 10.3742 10.4867 10.0755C10.7853 9.77686 11.0698 9.59197 11.468 9.43694C11.7688 9.31961 12.2205 9.18094 13.0526 9.14272C13.8398 9.10716 14.1448 9.0965 15.7353 9.09472V9.09685ZM21.0558 10.5138C20.4905 10.5138 20.0318 10.9719 20.0318 11.5374C20.0318 12.1028 20.4905 12.5614 21.0558 12.5614C21.6212 12.5614 22.0799 12.1028 22.0799 11.5374C22.0799 10.9721 21.6212 10.5138 21.0558 10.5138ZM16.5008 11.7102C14.0807 11.7102 12.1186 13.6724 12.1186 16.0925C12.1186 18.5126 14.0807 20.4739 16.5008 20.4739C18.9209 20.4739 20.8824 18.5126 20.8824 16.0925C20.8824 13.6724 18.9209 11.7102 16.5008 11.7102ZM16.5008 13.248C18.0717 13.248 19.3453 14.5214 19.3453 16.0925C19.3453 17.6633 18.0717 18.937 16.5008 18.937C14.9298 18.937 13.6563 17.6633 13.6563 16.0925C13.6563 14.5214 14.9298 13.248 16.5008 13.248Z" fill="white"/>
</svg>
