<svg width="19" height="19" viewBox="0 0 19 19" fill="none" xmlns="http://www.w3.org/2000/svg">
<path fill-rule="evenodd" clip-rule="evenodd" d="M9.11803 11.0398L12.0744 15.8361C12.2037 16.0463 12.4058 16.0438 12.4875 16.0325C12.5691 16.0212 12.7656 15.9711 12.8367 15.7326L16.5336 3.24667C16.5983 3.02597 16.4794 2.87561 16.4261 2.82225C16.3744 2.7689 16.2264 2.65491 16.0122 2.71554L3.51735 6.37442C3.28048 6.44394 3.22874 6.64281 3.21743 6.72446C3.20611 6.80773 3.20287 7.01387 3.41225 7.14565L8.26354 10.1796L12.5497 5.84814C12.785 5.61047 13.169 5.60804 13.4075 5.84329C13.646 6.07854 13.6476 6.46335 13.4123 6.70102L9.11803 11.0398ZM12.4244 17.25C11.8618 17.25 11.346 16.9638 11.0421 16.4723L7.90784 11.3866L2.76956 8.17314C2.2158 7.82633 1.92639 7.2087 2.01612 6.55955C2.10505 5.91039 2.55048 5.39462 3.1762 5.21111L15.671 1.55224C16.2458 1.38409 16.8618 1.54334 17.2854 1.96534C17.709 2.39137 17.8667 3.01385 17.6953 3.59105L13.9984 16.0762C13.8133 16.7043 13.2959 17.1481 12.6484 17.2346C12.5724 17.2443 12.4988 17.25 12.4244 17.25Z" fill="white"/>
</svg>
