<svg width="33" height="33" viewBox="0 0 33 33" fill="none" xmlns="http://www.w3.org/2000/svg">
<path opacity="0.1" fill-rule="evenodd" clip-rule="evenodd" d="M0.5 16.0923C0.5 7.25573 7.66344 0.0922852 16.5 0.0922852C25.3366 0.0922852 32.5 7.25573 32.5 16.0923C32.5 24.9288 25.3366 32.0923 16.5 32.0923C7.66344 32.0923 0.5 24.9288 0.5 16.0923Z" fill="white"/>
<path fill-rule="evenodd" clip-rule="evenodd" d="M16.0208 13.0974L16.0544 13.651L15.4948 13.5832C13.4579 13.3234 11.6784 12.4421 10.1676 10.9619L9.42891 10.2275L9.23865 10.7699C8.83575 11.9788 9.09316 13.2556 9.93253 14.1143C10.3802 14.5888 10.2795 14.6566 9.50725 14.3741C9.23865 14.2837 9.00363 14.216 8.98124 14.2499C8.9029 14.3289 9.1715 15.3571 9.38414 15.7639C9.67513 16.3288 10.2683 16.8824 10.9174 17.2101L11.4658 17.47L10.8167 17.4813C10.1899 17.4813 10.1676 17.4926 10.2347 17.7298C10.4585 18.4643 11.3427 19.2439 12.3276 19.5828L13.0214 19.8201L12.4171 20.1817C11.5218 20.7014 10.4697 20.9952 9.41772 21.0178C8.91409 21.0291 8.5 21.0743 8.5 21.1082C8.5 21.2211 9.86538 21.8539 10.66 22.1024C13.0438 22.8369 15.8753 22.5205 18.0017 21.2663C19.5126 20.3737 21.0235 18.5998 21.7286 16.8824C22.1091 15.9673 22.4896 14.295 22.4896 13.4928C22.4896 12.9731 22.5232 12.9053 23.1499 12.2839C23.5192 11.9223 23.8662 11.5269 23.9333 11.4139C24.0452 11.1992 24.034 11.1992 23.4633 11.3913C22.512 11.7302 22.3777 11.685 22.8477 11.1766C23.1947 10.815 23.6088 10.1597 23.6088 9.96764C23.6088 9.93375 23.4409 9.99024 23.2506 10.0919C23.0492 10.2049 22.6015 10.3744 22.2658 10.4761L21.6614 10.6682L21.113 10.2953C20.8108 10.0919 20.3856 9.86596 20.1617 9.79816C19.5909 9.63998 18.718 9.66258 18.2032 9.84336C16.8042 10.3518 15.9201 11.6624 16.0208 13.0974Z" fill="white"/>
</svg>
