<svg width="33" height="33" viewBox="0 0 33 33" fill="none" xmlns="http://www.w3.org/2000/svg">
<path opacity="0.1" fill-rule="evenodd" clip-rule="evenodd" d="M0.5 16.0923C0.5 7.25573 7.66344 0.0922852 16.5 0.0922852C25.3366 0.0922852 32.5 7.25573 32.5 16.0923C32.5 24.9288 25.3366 32.0923 16.5 32.0923C7.66344 32.0923 0.5 24.9288 0.5 16.0923Z" fill="white"/>
<path fill-rule="evenodd" clip-rule="evenodd" d="M23.1677 10.5918C23.9021 10.7933 24.4804 11.3871 24.6767 12.1411C25.0333 13.5076 25.0333 16.3589 25.0333 16.3589C25.0333 16.3589 25.0333 19.2101 24.6767 20.5768C24.4804 21.3308 23.9021 21.9245 23.1677 22.1261C21.8369 22.4923 16.5 22.4923 16.5 22.4923C16.5 22.4923 11.1631 22.4923 9.83218 22.1261C9.09783 21.9245 8.5195 21.3308 8.32323 20.5768C7.96667 19.2101 7.96667 16.3589 7.96667 16.3589C7.96667 16.3589 7.96667 13.5076 8.32323 12.1411C8.5195 11.3871 9.09783 10.7933 9.83218 10.5918C11.1631 10.2256 16.5 10.2256 16.5 10.2256C16.5 10.2256 21.8369 10.2256 23.1677 10.5918ZM14.9 13.9589V19.2922L19.1667 16.6256L14.9 13.9589Z" fill="white"/>
</svg>
 