<svg width="21" height="21" viewBox="0 0 21 21" fill="none" xmlns="http://www.w3.org/2000/svg">
<path fill-rule="evenodd" clip-rule="evenodd" d="M2.96612 3.48668C2.96807 3.48668 2.91929 3.53741 2.85783 3.5979C2.62174 3.82716 2.13297 4.30422 2.12804 5.30225C2.12029 6.69831 3.03831 9.29044 7.45869 13.7098C11.8586 18.1078 14.4468 19.0365 15.8458 19.0365H15.8663C16.8643 19.0317 17.3404 18.5419 17.5706 18.3068C17.6409 18.2346 17.6974 18.1819 17.7374 18.1487C18.7091 17.1712 19.2067 16.4434 19.2018 15.9771C19.195 15.501 18.6028 14.9381 17.7843 14.1596C17.5238 13.9118 17.2409 13.6425 16.9423 13.344C16.1687 12.5723 15.7853 12.704 14.9424 13.0006C13.7766 13.4094 12.1766 13.9654 9.69082 11.4787C7.20113 8.99093 7.75819 7.39292 8.16598 6.2271C8.46061 5.38419 8.59524 4.99981 7.82063 4.2252C7.51722 3.92277 7.24503 3.63595 6.99431 3.37254C6.22067 2.5589 5.66263 1.97062 5.18948 1.96379H5.18167C4.71437 1.96379 3.98853 2.46329 2.96124 3.49058C2.96417 3.48766 2.96514 3.48668 2.96612 3.48668ZM15.8468 20.4999C13.4156 20.4999 10.2459 18.5643 6.42457 14.7449C2.58857 10.9099 0.650081 7.73048 0.664632 5.29444C0.673495 3.68473 1.51738 2.86036 1.83444 2.5511C1.85103 2.53061 1.90761 2.475 1.92712 2.45549C3.32611 1.05552 4.2695 0.489686 5.20801 0.500268C6.29774 0.515051 7.07333 1.33064 8.05477 2.36378C8.29769 2.61939 8.5611 2.89743 8.85475 3.1901C10.2791 4.61446 9.87326 5.77638 9.54741 6.70904C9.1923 7.72657 8.88499 8.6046 10.7249 10.4446C12.5668 12.2845 13.4449 11.9772 14.4585 11.6192C15.3921 11.2933 16.5511 10.8855 17.9774 12.3099C18.2662 12.5986 18.5404 12.8591 18.793 13.1001C19.8311 14.0864 20.6505 14.8659 20.6644 15.9586C20.6759 16.8902 20.1101 17.8395 18.713 19.2375L18.0945 18.818L18.6174 19.3292C18.3082 19.6463 17.4848 20.4911 15.8741 20.4999H15.8468Z" fill="white"/>
</svg>
