<svg width="247" height="35" viewBox="0 0 247 35" fill="none" xmlns="http://www.w3.org/2000/svg">
<path d="M50.4242 28.9209C49.1093 29.7994 47.8674 30.7833 46.4794 31.5564C44.3609 32.6808 42.6077 31.6969 42.3885 29.3426C42.3155 28.6398 42.2424 27.9722 42.0963 26.9883C41.4754 27.7262 41.0371 28.2884 40.5257 28.8155C38.9186 30.6076 37.2749 32.3646 35.6312 34.1215C35.4121 34.3675 35.1199 34.5081 34.7911 34.6486C33.6953 35.1406 32.5996 34.5081 32.6361 33.3485C32.6726 32.5051 32.8552 31.6618 33.1475 30.8887C33.7319 29.3075 34.4259 27.7262 35.0833 26.1449C35.6677 24.6691 35.96 23.123 35.8869 21.2606C35.0833 21.9282 34.3893 22.3851 33.8414 22.9824C31.3212 25.6881 28.8739 28.429 26.3901 31.1698C25.8423 31.7672 25.3309 32.3646 24.783 32.9619C24.5638 33.1728 24.3447 33.4539 24.089 33.5242C23.6142 33.6296 23.0298 33.7701 22.5914 33.6296C21.934 33.4539 21.8974 32.7862 22.1166 32.2943C22.5184 31.2753 22.9932 30.3265 23.4681 29.3426C23.5776 29.0966 23.7603 28.9209 23.7603 28.5344C23.5046 28.7452 23.2854 28.9561 23.0298 29.1669C21.4591 30.7482 19.7789 32.224 17.7335 33.2782C10.6109 36.9327 1.51595 32.6808 0.164484 25.0205C-1.0774 17.7818 4.87634 11.3162 12.5103 11.6325C12.839 11.6325 13.1677 11.6325 13.4965 11.6325C14.0444 10.3675 14.4461 9.03218 15.1036 7.83745C17.9526 2.81256 22.4453 0.0717041 28.3991 0.00142586C34.0606 -0.0688524 38.5168 2.46117 41.5484 7.06439C42.0233 7.80231 42.4251 8.01315 43.3382 7.87259C50.6434 6.67786 57.5103 11.2811 59.0079 18.2738C60.1402 23.5798 57.1816 29.7643 52.2505 32.4348C49.6572 33.8404 46.8447 34.6135 43.8496 35C45.3837 34.2269 46.9177 33.5242 48.3423 32.6808C50.826 31.2401 52.8715 29.3426 54.3691 26.918C57.145 22.4202 56.7432 17.4304 53.2733 13.7408C50.3512 10.6486 45.1645 9.66469 41.1832 11.4216C40.9275 11.5271 40.6718 11.6325 40.3796 11.773C39.2473 8.18884 37.0192 5.48313 33.4762 3.90187C31.1385 2.88283 28.6913 2.60172 26.171 3.09367C20.1077 4.2884 16.8203 8.43482 16.1994 15.3924C15.0671 15.1113 13.9713 14.7247 12.8025 14.5842C8.38283 14.0571 4.03624 17.2196 3.23267 21.5066C2.4291 25.8638 5.16855 30.2211 9.58819 31.2401C13.3504 32.0835 16.7473 31.6618 19.7059 28.7101C24.1621 24.3177 28.1069 19.5388 31.7229 14.4787C31.796 14.3733 31.9056 14.2328 31.9786 14.1274C32.49 13.4597 33.3666 13.1786 33.878 13.5651C34.5354 14.0922 34.4624 14.7247 34.0971 15.3924C32.4535 18.2386 30.7733 21.0498 29.1296 23.896C28.947 24.2123 28.7643 24.5285 28.7278 24.9151C29.9697 23.6501 31.175 22.3499 32.4535 21.1552C33.1475 20.5227 33.9145 19.9253 34.7546 19.4334C36.6174 18.3441 38.4072 19.2928 38.4437 21.366C38.4802 23.3338 38.1515 25.2665 37.3479 27.0937C36.8731 28.1479 36.3983 29.2372 35.9234 30.2914C35.9965 30.3265 36.0695 30.3616 36.1061 30.3968C36.8731 29.4832 37.6401 28.5695 38.4072 27.6911C39.1012 26.918 39.7221 26.0747 40.4526 25.3367C41.1101 24.6691 41.9137 24.2123 42.8999 24.5637C43.8496 24.8799 44.0687 25.653 44.1418 26.5315C44.2148 27.3045 44.3244 28.1127 44.434 28.8858C44.6166 30.1508 45.4202 30.6779 46.6986 30.2211C47.9039 29.7994 49.0728 29.2372 50.2781 28.7452C50.3147 28.8155 50.3877 28.8507 50.4242 28.9209Z" fill="#F22751"/>
<path d="M85.7705 12.4759C85.7705 17.3251 85.7705 22.1743 85.7705 27.0937C85.2308 27.0937 84.7297 27.0937 84.113 27.0937C84.113 23.2284 84.113 19.328 84.113 15.4275C84.0359 15.3924 83.9588 15.3924 83.8432 15.3573C81.9158 17.9224 80.0271 20.4876 78.0612 23.123C76.0953 20.4876 74.2065 17.9576 72.3177 15.4275C72.2406 15.4275 72.2021 15.4627 72.125 15.4627C72.125 19.328 72.125 23.1933 72.125 27.0937C71.5083 27.0937 71.0072 27.0937 70.429 27.0937C70.429 22.2094 70.429 17.3602 70.429 12.4407C71.4697 12.1947 72.2406 12.3353 72.8574 13.2489C74.3222 15.4275 75.9411 17.5008 77.483 19.6091C77.6372 19.8551 77.8299 20.0659 78.0997 20.3822C78.4466 19.9254 78.7165 19.5388 79.0248 19.1874C80.4511 17.2548 81.9544 15.3221 83.265 13.3192C83.9203 12.3704 84.6912 12.2299 85.7705 12.4759Z" fill="#48435C"/>
<path d="M183.351 21.3309C183.351 23.3338 183.351 25.1611 183.351 27.0586C182.766 27.0586 182.22 27.0586 181.596 27.0586C181.557 26.8126 181.518 26.5666 181.518 26.3207C181.518 21.9634 181.518 17.6062 181.479 13.2489C181.479 12.511 181.752 12.3001 182.532 12.3353C184.559 12.3704 186.625 12.265 188.653 12.3704C189.861 12.4407 191.148 12.6515 192.161 13.1786C195.28 14.7247 195.124 18.8712 192.005 20.3821C191.421 20.6633 190.758 20.839 189.978 21.1201C190.797 22.104 191.615 23.0879 192.434 24.0366C193.214 24.9854 194.033 25.9693 194.812 26.918C193.448 27.3397 192.863 27.1991 192.083 26.2504C190.875 24.8097 189.705 23.2987 188.458 21.8931C188.185 21.5769 187.639 21.366 187.21 21.3309C186.002 21.2958 184.715 21.3309 183.351 21.3309ZM183.39 19.7848C185.612 19.7848 187.717 19.8902 189.822 19.7496C191.421 19.6442 192.512 18.4495 192.59 17.1142C192.707 15.6384 192.005 14.5842 190.524 14.1977C188.185 13.5652 185.768 13.9517 183.312 13.8814C183.312 15.7789 183.312 17.5007 183.312 19.2577C183.351 19.4334 183.39 19.6091 183.39 19.7848Z" fill="#48435C"/>
<path d="M128.452 27.0586C127.479 27.3397 126.895 26.9883 126.351 26.3207C123.355 22.8067 120.282 19.328 117.247 15.8141C117.052 15.6032 116.858 15.3924 116.508 15.041C116.508 19.1523 116.508 23.0879 116.508 27.0586C115.924 27.0586 115.418 27.0586 114.835 27.0586C114.835 22.2094 114.835 17.325 114.835 12.4056C115.807 12.1596 116.469 12.3001 117.169 13.1083C120.087 16.552 123.044 19.9605 126.001 23.369C126.195 23.5798 126.39 23.7906 126.779 24.2123C126.779 20.101 126.779 16.2709 126.779 12.3704C127.401 12.3704 127.907 12.3704 128.491 12.3704C128.452 17.2899 128.452 22.1391 128.452 27.0586Z" fill="#48435C"/>
<path d="M206.157 19.7496C206.081 15.4626 209.649 12.1244 214.292 12.0893C218.935 12.0541 222.426 15.2869 222.503 19.6793C222.58 23.9312 219.088 27.3045 214.484 27.4099C209.803 27.4802 206.234 24.2474 206.157 19.7496ZM214.33 25.9341C217.899 25.9341 220.7 23.2987 220.738 19.855C220.776 16.3411 218.014 13.6003 214.369 13.6003C210.8 13.6003 207.999 16.2006 207.961 19.5739C207.922 23.1581 210.647 25.899 214.33 25.9341Z" fill="#48435C"/>
<path d="M141.557 12.3704C145.496 12.3704 149.395 12.3704 153.373 12.3704C153.373 12.8272 153.373 13.2489 153.373 13.776C151.798 13.776 150.262 13.776 148.765 13.776C147.189 13.776 145.614 13.7408 144.039 13.8111C143.763 13.8111 143.33 14.0922 143.33 14.2328C143.29 15.7438 143.29 17.2548 143.29 18.8712C146.323 18.8712 149.237 18.8712 152.27 18.8712C152.27 19.3983 152.27 19.8551 152.27 20.4173C149.316 20.4173 146.362 20.4173 143.369 20.4173C143.369 22.1742 143.369 23.8258 143.369 25.6179C146.717 25.6179 150.104 25.6179 153.491 25.6179C153.491 26.1801 153.491 26.6018 153.491 27.0937C149.553 27.0937 145.614 27.0937 141.636 27.0937C141.557 22.2094 141.557 17.3602 141.557 12.3704Z" fill="#48435C"/>
<path d="M245.802 13.9868C245.488 14.3733 245.174 14.7247 244.859 15.1112C244.349 14.8301 243.838 14.549 243.327 14.303C241.794 13.5651 240.183 13.3543 238.494 13.8111C237.275 14.1273 236.568 14.9707 236.529 15.9546C236.45 17.079 237.118 17.817 238.218 18.1683C239.279 18.5197 240.419 18.7657 241.48 19.0468C242.305 19.2577 243.13 19.4685 243.877 19.7847C245.488 20.4173 246.392 21.5066 246.392 23.123C246.353 24.7745 245.488 25.9692 243.877 26.7072C241.008 28.0073 236.372 27.1288 234.171 24.8799C234.485 24.5285 234.839 24.1771 235.193 23.7906C236.607 24.9151 238.14 25.7584 240.026 25.7935C240.969 25.8287 241.991 25.7233 242.895 25.4421C243.995 25.1259 244.545 24.3177 244.584 23.2987C244.624 22.2445 243.995 21.5417 243.013 21.1903C242.069 20.8389 241.087 20.6632 240.105 20.3821C239.358 20.1713 238.572 20.0307 237.865 19.7847C235.507 18.9765 234.603 17.7818 234.76 15.7437C234.918 14.0571 236.332 12.7569 238.494 12.265C240.93 11.773 243.956 12.4407 245.802 13.9868Z" fill="#48435C"/>
<path d="M168.413 27.0586C167.564 27.0586 166.714 27.0586 165.805 27.0586C165.805 22.1742 165.805 17.325 165.805 12.4055C166.654 12.4055 167.503 12.4055 168.413 12.4055C168.413 17.2899 168.413 22.1391 168.413 27.0586Z" fill="#48435C"/>
<path d="M101.553 27.0937C100.625 27.0937 99.8826 27.0937 99.0166 27.0937C99.0166 22.2094 99.0166 17.325 99.0166 12.4055C99.8208 12.4055 100.625 12.4055 101.553 12.4055C101.553 17.2899 101.553 22.1391 101.553 27.0937Z" fill="#48435C"/>
</svg>
