<svg width="118" height="118" viewBox="0 0 118 118" fill="none" xmlns="http://www.w3.org/2000/svg">
<g filter="url(#filter0_d_17_105)">
<rect x="24" y="20" width="70" height="70" rx="20" fill="#F22751"/>
<path fill-rule="evenodd" clip-rule="evenodd" d="M50.5385 56.9231C56.7985 56.9231 57.0769 59.0462 57.0769 63.4615C57.0769 65.6738 57.0769 67.2477 56.1477 68.4C55.0785 69.7277 53.1323 70 50.5385 70C47.9446 70 45.9985 69.7277 44.9292 68.4C44 67.2477 44 65.6754 44 63.5L45.1538 63.4615H44C44 59.0462 44.2785 56.9231 50.5385 56.9231ZM67.4615 56.9231C73.7215 56.9231 74 59.0462 74 63.4615C74 65.6738 74 67.2477 73.0708 68.4C72.0015 69.7277 70.0554 70 67.4615 70C64.8677 70 62.9215 69.7277 61.8523 68.4C60.9231 67.2477 60.9231 65.6754 60.9231 63.5L62.0769 63.4615H60.9231C60.9231 59.0462 61.2015 56.9231 67.4615 56.9231ZM50.8556 59.2315L50.5385 59.2308C46.5247 59.2308 46.3188 59.5188 46.3083 62.8878L46.3089 64.2003C46.3162 65.5402 46.3673 66.5081 46.7246 66.9538C47.1323 67.4585 48.3431 67.6923 50.5385 67.6923C52.7338 67.6923 53.9446 67.4569 54.3523 66.9523C54.7692 66.4338 54.7692 65.2031 54.7692 63.4985C54.7692 59.652 54.7692 59.2496 50.8556 59.2315ZM67.7787 59.2315L67.4615 59.2308C63.4477 59.2308 63.2419 59.5188 63.2313 62.8878L63.232 64.2003C63.2393 65.5402 63.2903 66.5081 63.6477 66.9538C64.0554 67.4585 65.2662 67.6923 67.4615 67.6923C69.6569 67.6923 70.8677 67.4569 71.2754 66.9523C71.6923 66.4338 71.6923 65.2031 71.6923 63.4985C71.6923 59.652 71.6923 59.2496 67.7787 59.2315ZM50.5385 40C56.7985 40 57.0769 42.1231 57.0769 46.5385C57.0769 48.7508 57.0769 50.3246 56.1477 51.4769C55.0785 52.8046 53.1323 53.0769 50.5385 53.0769C47.9446 53.0769 45.9985 52.8046 44.9292 51.4769C44 50.3246 44 48.7523 44 46.5769L45.1538 46.5385H44C44 42.1231 44.2785 40 50.5385 40ZM67.4615 40C73.7215 40 74 42.1231 74 46.5385C74 48.7508 74 50.3246 73.0708 51.4769C72.0015 52.8046 70.0554 53.0769 67.4615 53.0769C64.8677 53.0769 62.9215 52.8046 61.8523 51.4769C60.9231 50.3246 60.9231 48.7523 60.9231 46.5769L62.0769 46.5385H60.9231C60.9231 42.1231 61.2015 40 67.4615 40ZM50.8556 42.3084L50.5385 42.3077C46.5247 42.3077 46.3188 42.5957 46.3083 45.9647L46.3089 47.2772C46.3162 48.6171 46.3673 49.5851 46.7246 50.0308C47.1323 50.5354 48.3431 50.7692 50.5385 50.7692C52.7338 50.7692 53.9446 50.5338 54.3523 50.0292C54.7692 49.5108 54.7692 48.28 54.7692 46.5754C54.7692 42.7289 54.7692 42.3265 50.8556 42.3084ZM67.7787 42.3084L67.4615 42.3077C63.4477 42.3077 63.2419 42.5957 63.2313 45.9647L63.232 47.2772C63.2393 48.6171 63.2903 49.5851 63.6477 50.0308C64.0554 50.5354 65.2662 50.7692 67.4615 50.7692C69.6569 50.7692 70.8677 50.5338 71.2754 50.0292C71.6923 49.5108 71.6923 48.28 71.6923 46.5754C71.6923 42.7289 71.6923 42.3265 67.7787 42.3084Z" fill="white"/>
</g>
<defs>
<filter id="filter0_d_17_105" x="0" y="0" width="118" height="118" filterUnits="userSpaceOnUse" color-interpolation-filters="sRGB">
<feFlood flood-opacity="0" result="BackgroundImageFix"/>
<feColorMatrix in="SourceAlpha" type="matrix" values="0 0 0 0 0 0 0 0 0 0 0 0 0 0 0 0 0 0 127 0" result="hardAlpha"/>
<feOffset dy="4"/>
<feGaussianBlur stdDeviation="12"/>
<feColorMatrix type="matrix" values="0 0 0 0 0.94902 0 0 0 0 0.152941 0 0 0 0 0.317647 0 0 0 0.55 0"/>
<feBlend mode="normal" in2="BackgroundImageFix" result="effect1_dropShadow_17_105"/>
<feBlend mode="normal" in="SourceGraphic" in2="effect1_dropShadow_17_105" result="shape"/>
</filter>
</defs>
</svg>
