<svg width="118" height="118" viewBox="0 0 118 118" fill="none" xmlns="http://www.w3.org/2000/svg">
<g filter="url(#filter0_d_17_96)">
<rect x="24" y="20" width="70" height="70" rx="20" fill="#F22751"/>
</g>
<path fill-rule="evenodd" clip-rule="evenodd" d="M59.4645 36C61.53 36 72.3679 39.7208 73.8026 41.1555C74.9985 42.3514 74.9803 43.3176 74.8964 47.9481C74.8636 49.8039 74.818 52.3325 74.818 55.8327C74.818 68.3787 60.4708 72.867 59.8601 73.0511C59.7307 73.0912 59.5976 73.1095 59.4645 73.1095C59.3314 73.1095 59.1983 73.0912 59.0689 73.0511C58.4582 72.867 44.111 68.3787 44.111 55.8327C44.111 52.3379 44.0654 49.8094 44.0326 47.9536C44.0176 47.1257 44.0048 46.4149 44.0005 45.7989L44 45.1038C44.0156 42.8202 44.23 42.0524 45.1283 41.1555C46.5593 39.7208 57.3972 36 59.4645 36ZM59.4645 38.7345C57.9186 38.7345 48.1654 42.1691 47.0406 43.108C46.7088 43.4416 46.6961 44.0213 46.7672 47.9025C46.8 49.7729 46.8455 52.3142 46.8455 55.8327C46.8455 65.3142 57.2769 69.5236 59.4627 70.2984C61.6467 69.5199 72.0835 65.2869 72.0835 55.8327C72.0835 52.3106 72.1291 49.7675 72.1637 47.8971C72.233 44.0195 72.2202 43.4398 71.8684 43.0897C70.7654 42.1691 61.0104 38.7345 59.4645 38.7345ZM66.2489 49.3801C66.783 49.9142 66.783 50.7802 66.2489 51.3143L59.1427 58.4223C58.9386 58.6279 58.6749 58.7612 58.3918 58.8063L58.1765 58.8233C57.8138 58.8233 57.4656 58.6793 57.2085 58.4223L53.7594 54.9695C53.227 54.4353 53.227 53.5676 53.7612 53.0352C54.2935 52.5011 55.1613 52.5011 55.6954 53.0352L58.1765 55.52L64.3165 49.3801C64.8506 48.8459 65.7148 48.8459 66.2489 49.3801Z" fill="white"/>
<defs>
<filter id="filter0_d_17_96" x="0" y="0" width="118" height="118" filterUnits="userSpaceOnUse" color-interpolation-filters="sRGB">
<feFlood flood-opacity="0" result="BackgroundImageFix"/>
<feColorMatrix in="SourceAlpha" type="matrix" values="0 0 0 0 0 0 0 0 0 0 0 0 0 0 0 0 0 0 127 0" result="hardAlpha"/>
<feOffset dy="4"/>
<feGaussianBlur stdDeviation="12"/>
<feColorMatrix type="matrix" values="0 0 0 0 0.94902 0 0 0 0 0.152941 0 0 0 0 0.317647 0 0 0 0.55 0"/>
<feBlend mode="normal" in2="BackgroundImageFix" result="effect1_dropShadow_17_96"/>
<feBlend mode="normal" in="SourceGraphic" in2="effect1_dropShadow_17_96" result="shape"/>
</filter>
</defs>
</svg>
