<svg width="118" height="118" viewBox="0 0 118 118" fill="none" xmlns="http://www.w3.org/2000/svg">
<g filter="url(#filter0_d_17_57)">
<rect x="24" y="20" width="70" height="70" rx="20" fill="#F22751"/>
</g>
<path fill-rule="evenodd" clip-rule="evenodd" d="M60.2755 39C61.4105 39 62.5137 39.466 63.3047 40.2761C64.0942 41.0908 64.5301 42.2084 64.4968 43.3418C64.5 43.597 64.584 43.8918 64.7361 44.1502C64.9882 44.5782 65.3861 44.8794 65.8584 45.003C66.3308 45.1204 66.8254 45.0569 67.2455 44.8081C69.2745 43.6493 71.8567 44.3436 73.0155 46.3568L74.0031 48.0672C74.0284 48.1132 74.0506 48.1575 74.0696 48.2035C75.119 50.1866 74.4184 52.6832 72.4686 53.8229C72.1849 53.9862 71.955 54.2145 71.7965 54.4903C71.5508 54.9167 71.4826 55.424 71.6063 55.89C71.7331 56.3656 72.0359 56.7603 72.4623 57.0044C73.4245 57.5576 74.1426 58.4897 74.4295 59.566C74.7164 60.6408 74.5595 61.8075 73.9999 62.7697L72.9473 64.5229C71.7886 66.5138 69.2063 67.2034 67.1979 66.043C66.93 65.8893 66.6209 65.8053 66.3134 65.7973H66.3039C65.8458 65.7973 65.375 65.9923 65.0326 66.3331C64.6854 66.6803 64.4952 67.1432 64.4984 67.6346C64.4873 69.9632 62.593 71.8464 60.2755 71.8464H58.2893C55.9606 71.8464 54.0664 69.9537 54.0664 67.625C54.0632 67.3381 53.9808 67.0401 53.827 66.7817C53.5781 66.3474 53.1755 66.0367 52.711 65.9131C52.2497 65.7894 51.7441 65.8576 51.3288 66.0985C50.3333 66.6533 49.1618 66.7881 48.0903 66.4869C47.0203 66.1841 46.0961 65.4486 45.554 64.4737L44.5632 62.7665C43.4045 60.7565 44.094 58.1806 46.1009 57.0202C46.6699 56.6921 47.0234 56.0802 47.0234 55.424C47.0234 54.7677 46.6699 54.1542 46.1009 53.8261C44.0924 52.6594 43.4045 50.0772 44.5617 48.0672L45.6364 46.3029C46.7793 44.3151 49.3631 43.6144 51.3779 44.7716C51.6521 44.9349 51.9501 45.0173 52.2529 45.0205C53.2405 45.0205 54.0664 44.2057 54.0822 43.2039C54.0759 42.099 54.5118 41.0385 55.306 40.238C56.1033 39.4391 57.1622 39 58.2893 39H60.2755ZM60.2755 41.3778H58.2893C57.7978 41.3778 57.3381 41.5696 56.991 41.9151C56.6454 42.2623 56.4568 42.7236 56.46 43.215C56.4267 45.5325 54.5324 47.3982 52.2386 47.3982C51.5031 47.3903 50.7946 47.1922 50.1795 46.8244C49.3156 46.333 48.1869 46.6358 47.6813 47.5155L46.6081 49.2798C46.1167 50.1327 46.4179 51.2597 47.2929 51.7686C48.5912 52.5199 49.4012 53.9212 49.4012 55.424C49.4012 56.9267 48.5912 58.3264 47.2897 59.0794C46.4195 59.5835 46.1183 60.7042 46.6224 61.576L47.6226 63.3007C47.8699 63.7461 48.2741 64.0679 48.7418 64.1995C49.2078 64.3295 49.7214 64.274 50.1494 64.0362C50.7787 63.6669 51.5111 63.4751 52.2466 63.4751C52.6096 63.4751 52.9726 63.521 53.3277 63.6161C54.3992 63.9046 55.3297 64.6211 55.8814 65.5833C56.2396 66.1873 56.4378 66.8927 56.4441 67.6124C56.4441 68.6427 57.2716 69.4686 58.2893 69.4686H60.2755C61.2884 69.4686 62.1159 68.6475 62.1206 67.6346C62.1143 66.5154 62.5518 65.4518 63.3523 64.6513C64.1417 63.8618 65.245 63.3879 66.3483 63.4196C67.0711 63.437 67.767 63.632 68.3805 63.9807C69.2634 64.4864 70.3905 64.1852 70.9009 63.3134L71.9534 61.5586C72.188 61.1544 72.2562 60.6471 72.131 60.1795C72.0073 59.7119 71.6966 59.3061 71.2782 59.0667C70.2985 58.5024 69.5995 57.5925 69.3094 56.5019C69.0225 55.4319 69.1794 54.2636 69.7389 53.3014C70.1035 52.6674 70.6377 52.1332 71.2782 51.7654C72.1373 51.2629 72.4385 50.139 71.9392 49.264C71.9186 49.2291 71.8995 49.1927 71.8837 49.1546L70.9548 47.5441C70.4491 46.6643 69.3236 46.3615 68.4407 46.864C67.4864 47.4284 66.3514 47.59 65.2608 47.3031C64.1718 47.021 63.2588 46.3314 62.6897 45.3581C62.3251 44.7494 62.127 44.0408 62.1206 43.3196C62.1349 42.7775 61.9447 42.2908 61.5991 41.9342C61.2551 41.5791 60.7716 41.3778 60.2755 41.3778ZM59.2893 50.0552C62.2489 50.0552 64.6567 52.4646 64.6567 55.4241C64.6567 58.3836 62.2489 60.7899 59.2893 60.7899C56.3298 60.7899 53.9219 58.3836 53.9219 55.4241C53.9219 52.4646 56.3298 50.0552 59.2893 50.0552ZM59.2893 52.4329C57.6408 52.4329 56.2997 53.7756 56.2997 55.4241C56.2997 57.0727 57.6408 58.4122 59.2893 58.4122C60.9379 58.4122 62.279 57.0727 62.279 55.4241C62.279 53.7756 60.9379 52.4329 59.2893 52.4329Z" fill="white"/>
<defs>
<filter id="filter0_d_17_57" x="0" y="0" width="118" height="118" filterUnits="userSpaceOnUse" color-interpolation-filters="sRGB">
<feFlood flood-opacity="0" result="BackgroundImageFix"/>
<feColorMatrix in="SourceAlpha" type="matrix" values="0 0 0 0 0 0 0 0 0 0 0 0 0 0 0 0 0 0 127 0" result="hardAlpha"/>
<feOffset dy="4"/>
<feGaussianBlur stdDeviation="12"/>
<feColorMatrix type="matrix" values="0 0 0 0 0.94902 0 0 0 0 0.152941 0 0 0 0 0.317647 0 0 0 0.55 0"/>
<feBlend mode="normal" in2="BackgroundImageFix" result="effect1_dropShadow_17_57"/>
<feBlend mode="normal" in="SourceGraphic" in2="effect1_dropShadow_17_57" result="shape"/>
</filter>
</defs>
</svg>
