<svg width="118" height="118" viewBox="0 0 118 118" fill="none" xmlns="http://www.w3.org/2000/svg">
<g filter="url(#filter0_d_17_19)">
<rect x="24" y="20" width="70" height="70" rx="20" fill="#F22751"/>
</g>
<path fill-rule="evenodd" clip-rule="evenodd" d="M65.5541 38C70.8036 38 74.33 41.5949 74.33 46.9446V62.2991C74.33 67.6955 70.9121 71.2052 65.6225 71.2386L52.7776 71.2436C47.5281 71.2436 44 67.6488 44 62.2991V46.9446C44 41.5464 47.4179 38.0384 52.7075 38.0067L65.5524 38H65.5541ZM65.5541 40.5045L52.7158 40.5112C48.8288 40.5346 46.5045 42.939 46.5045 46.9446V62.2991C46.5045 66.3314 48.8505 68.7391 52.7759 68.7391L65.6142 68.7341C69.5012 68.7107 71.8255 66.303 71.8255 62.2991V46.9446C71.8255 42.9122 69.4812 40.5045 65.5541 40.5045ZM65.232 60.497C65.9233 60.497 66.4843 61.058 66.4843 61.7492C66.4843 62.4405 65.9233 63.0015 65.232 63.0015H53.1768C52.4856 63.0015 51.9245 62.4405 51.9245 61.7492C51.9245 61.058 52.4856 60.497 53.1768 60.497H65.232ZM65.232 53.5068C65.9233 53.5068 66.4843 54.0678 66.4843 54.7591C66.4843 55.4503 65.9233 56.0113 65.232 56.0113H53.1768C52.4856 56.0113 51.9245 55.4503 51.9245 54.7591C51.9245 54.0678 52.4856 53.5068 53.1768 53.5068H65.232ZM57.7763 46.5328C58.4676 46.5328 59.0286 47.0938 59.0286 47.7851C59.0286 48.4763 58.4676 49.0374 57.7763 49.0374H53.1763C52.4851 49.0374 51.924 48.4763 51.924 47.7851C51.924 47.0938 52.4851 46.5328 53.1763 46.5328H57.7763Z" fill="white"/>
<defs>
<filter id="filter0_d_17_19" x="0" y="0" width="118" height="118" filterUnits="userSpaceOnUse" color-interpolation-filters="sRGB">
<feFlood flood-opacity="0" result="BackgroundImageFix"/>
<feColorMatrix in="SourceAlpha" type="matrix" values="0 0 0 0 0 0 0 0 0 0 0 0 0 0 0 0 0 0 127 0" result="hardAlpha"/>
<feOffset dy="4"/>
<feGaussianBlur stdDeviation="12"/>
<feColorMatrix type="matrix" values="0 0 0 0 0.94902 0 0 0 0 0.152941 0 0 0 0 0.317647 0 0 0 0.55 0"/>
<feBlend mode="normal" in2="BackgroundImageFix" result="effect1_dropShadow_17_19"/>
<feBlend mode="normal" in="SourceGraphic" in2="effect1_dropShadow_17_19" result="shape"/>
</filter>
</defs>
</svg>
