<svg width="118" height="118" viewBox="0 0 118 118" fill="none" xmlns="http://www.w3.org/2000/svg">
<g filter="url(#filter0_d_17_66)">
<rect x="24" y="20" width="70" height="70" rx="20" fill="#F22751"/>
<path fill-rule="evenodd" clip-rule="evenodd" d="M58.7708 58.0427L58.9447 58.0428L59.3338 58.0441C62.3079 58.0637 69.1044 58.3641 69.1044 62.9708C69.1044 67.5472 62.5448 67.8457 59.3802 67.8651L58.2077 67.8651C55.2335 67.8455 48.4356 67.5455 48.4356 62.9446C48.4356 58.3624 55.2335 58.0636 58.2077 58.0441L58.5968 58.0428C58.6572 58.0427 58.7152 58.0427 58.7708 58.0427ZM58.7708 60.3535C55.1105 60.3535 50.7463 60.8033 50.7463 62.9446C50.7463 65.0374 54.8501 65.5267 58.4362 65.5544L58.7708 65.5557C62.431 65.5557 66.7937 65.1074 66.7937 62.9708C66.7937 60.8079 62.431 60.3535 58.7708 60.3535ZM71.0233 57.4176C74.7559 57.9768 75.54 59.7299 75.54 61.1025C75.54 61.9405 75.2103 63.4702 73.0074 64.3098C72.8719 64.3606 72.7332 64.3853 72.5961 64.3853C72.1309 64.3853 71.6918 64.1018 71.5162 63.6412C71.2882 63.045 71.5886 62.3765 72.1848 62.15C73.2293 61.7526 73.2293 61.3135 73.2293 61.1025C73.2293 60.4277 72.3712 59.9563 70.6797 59.7037C70.0497 59.6082 69.6137 59.0213 69.7077 58.3881C69.8017 57.7565 70.387 57.3359 71.0233 57.4176ZM47.8323 58.3881C47.9263 59.0213 47.4903 59.6082 46.8603 59.7037C45.1688 59.9563 44.3107 60.4277 44.3107 61.1025C44.3107 61.3135 44.3107 61.751 45.3567 62.15C45.9529 62.3765 46.2533 63.045 46.0253 63.6412C45.8497 64.1018 45.4107 64.3853 44.9454 64.3853C44.8083 64.3853 44.6697 64.3606 44.5341 64.3098C42.3297 63.4687 42 61.939 42 61.1025C42 59.7314 42.7841 57.9768 46.5183 57.4176C47.1545 57.3375 47.7368 57.7565 47.8323 58.3881ZM58.7708 42C62.6528 42 65.8093 45.158 65.8093 49.0385C65.8093 52.919 62.6528 56.0771 58.7708 56.0771H58.7292C56.8498 56.0709 55.089 55.3345 53.7703 54.0035C52.4486 52.6741 51.7261 50.9087 51.7337 49.0339C51.7337 45.158 54.8903 42 58.7708 42ZM58.7708 44.3107C56.1642 44.3107 54.0445 46.432 54.0445 49.0385C54.0399 50.3017 54.5236 51.4833 55.4094 52.3752C56.2952 53.2672 57.4752 53.7617 58.7323 53.7663L58.7708 54.9217V53.7663C61.3773 53.7663 63.4986 51.6466 63.4986 49.0385C63.4986 46.432 61.3773 44.3107 58.7708 44.3107ZM68.3049 43.5089C71.0131 43.9541 72.9803 46.271 72.9803 49.0177C72.9742 51.7829 70.9083 54.1553 68.174 54.5389C68.12 54.5466 68.0661 54.5497 68.0138 54.5497C67.4468 54.5497 66.9523 54.1322 66.8707 53.5545C66.7829 52.9213 67.2219 52.3375 67.8551 52.2497C69.4572 52.0248 70.6665 50.6353 70.6696 49.0147C70.6696 47.4079 69.5173 46.0492 67.929 45.7889C67.3005 45.6856 66.8738 45.091 66.977 44.4609C67.0817 43.8309 67.6718 43.4088 68.3049 43.5089ZM50.5645 44.4609C50.6678 45.091 50.241 45.6856 49.6125 45.7889C48.0243 46.0492 46.872 47.4079 46.872 49.0177C46.8751 50.6353 48.0843 52.0263 49.6849 52.2497C50.3181 52.3375 50.7571 52.9213 50.6693 53.5545C50.5877 54.1322 50.0932 54.5497 49.5263 54.5497C49.4739 54.5497 49.42 54.5466 49.366 54.5389C46.6317 54.1553 44.5674 51.7829 44.5612 49.0208C44.5612 46.271 46.5284 43.9541 49.2366 43.5089C49.8852 43.4072 50.4598 43.834 50.5645 44.4609Z" fill="white"/>
</g>
<defs>
<filter id="filter0_d_17_66" x="0" y="0" width="118" height="118" filterUnits="userSpaceOnUse" color-interpolation-filters="sRGB">
<feFlood flood-opacity="0" result="BackgroundImageFix"/>
<feColorMatrix in="SourceAlpha" type="matrix" values="0 0 0 0 0 0 0 0 0 0 0 0 0 0 0 0 0 0 127 0" result="hardAlpha"/>
<feOffset dy="4"/>
<feGaussianBlur stdDeviation="12"/>
<feColorMatrix type="matrix" values="0 0 0 0 0.94902 0 0 0 0 0.152941 0 0 0 0 0.317647 0 0 0 0.55 0"/>
<feBlend mode="normal" in2="BackgroundImageFix" result="effect1_dropShadow_17_66"/>
<feBlend mode="normal" in="SourceGraphic" in2="effect1_dropShadow_17_66" result="shape"/>
</filter>
</defs>
</svg>
